<?xml version="1.0" standalone="no"?>
<svg version="1.1" id="Layer_2" xmlns="http://www.w3.org/2000/svg" xmlns:xlink="http://www.w3.org/1999/xlink" x="0px" y="0px" viewBox="0 0 2000 2000" enable-background="new 0 0 2000 2000" xml:space="preserve">
<path id="color_x5F_9" fill="#fccbb0" d="M1121.3,574.8c-1.5-2.1-2.4-4.7-2.4-7.4v-20.2l29.1-7.8c5.8-1.5,12,0.2,16.1,4.6l31.9,34
	L1121.3,574.8z M1807.1,886.5l-430.3-248.4v241.8c0,9.8-10.6,15.9-19.1,11l-221.9-128.1c1.5,9.2-4.1,17.2-4.1,17.2
	s3.6,11.5,6.2,23.7c2.3-0.3,4.4,0.2,4.4,0.2s2.5,4.7,0,9.4c-0.9,1.6-1.7,2-2.4,1.8c0.9,7,0.7,13-1.4,15.4
	c-3.1,3.5-14.3,3.9-26.1,2.5c0.3,1.4,0.6,2.9,1,4.3l0,0c0.8,3.4,1.6,6.6,2,8.1c0.1,0.5,0.2,0.8,0.2,0.8s1.1,0.4,2.9,1.1
	c0.5,0.2,0.9,0.4,1.5,0.7c0,0,0.1,0,0.1,0.1c4.5,2.1,11.1,6,14.4,11.8l0.2-0.3c1,0.5,30.8,13.6,27.6,90.7l35.8-34.8
	c-0.8-3-1.3-10,10.7-13.1c14.9-3.9,10.6-10.9,14.5-12.9s16.4,5.5,10.9,19.2c-3.3,8.3-11.6,13.6-17.9,16.3c0.3,1.3,0.5,2.8,0.3,4.5
	c0,0-33.4,62-55.8,69.8c-8.6,3-15.6,1.3-20.8-2.1c0,1.6,0,3.2,0.1,4.8l640.6,369.8c24.8,14.3,55.8-3.6,55.8-32.2v-470
	C1836.3,884.6,1820.1,894,1807.1,886.5z M1095.4,752c0,0,4.8-3.9,11.5-5.9l-13.9-8v14C1094.5,752,1095.4,752,1095.4,752z"></path>
<path id="color_x5F_8" fill="#e08573" d="M505.8,1086l-6.5-3.8c-0.2-0.1-0.4-0.4-0.6-0.6c-0.1-0.3-0.2-0.6-0.2-1.1l0,0l-0.2-53
	l-1.7-1c-0.4-0.2-0.7-0.5-1-0.8s-0.5-0.7-0.7-1c1.8-0.1,3.7-0.5,5.6-1.1l0.3,0.2c0,0.1,0,0.1,0,0.2c-0.1,0.5-0.1,0.9-0.1,1.2
	c0,1.6,0.4,2.9,1.1,3.9l2.9,1.7l0.2,53.4C505.1,1085.1,505.4,1085.7,505.8,1086z M508.8,1020.6c-2.5,1.4-5,2.6-7.5,3.4
	c0,0.4-0.1,0.8-0.1,1.1c0,4.8,3.4,6.7,7.6,4.3c4.2-2.4,7.5-8.2,7.5-13c0-0.3,0-0.7-0.1-1.1C513.8,1017.4,511.3,1019.1,508.8,1020.6z
	 M895.8,232.6l35.7-20.6c8.7-5,19.7,1.3,19.7,11.3v41.3c0,4.7-2.5,9-6.6,11.3l-35.7,20.6c-8.7,5-19.7-1.3-19.7-11.3v-41.3
	C889.3,239.3,891.8,234.9,895.8,232.6z M1765.7,807.7v36c0,5.5,2.9,10.6,7.7,13.3l31.1,18c10.3,5.9,23.1-1.5,23.1-13.3v-36
	c0-5.5-2.9-10.6-7.7-13.3l-31.1-18C1778.6,788.4,1765.7,795.9,1765.7,807.7z M1329.8,395.4v22.1c0,3.4,1.8,6.5,4.7,8.2l19.2,11.1
	c6.3,3.6,14.2-0.9,14.2-8.2v-22.1c0-3.4-1.8-6.5-4.7-8.2l-19.2-11.1C1337.7,383.5,1329.8,388.1,1329.8,395.4z M1183.4,564.7
	c3.4-6.1,9.4-10.1,16.3-10.1c10.7,0,19.3,9.8,19.3,21.9c0,0.8,0,1.7-0.1,2.5l-22.9-1L1183.4,564.7z M709.4,647l47.6-27.5V592
	l-47.6,27.5V647z M505.4,1084.1c0,1.4,1,2,2.3,1.3l2.6-1.5c1.3-0.7,2.3-2.5,2.3-3.9l-0.2-53.2c-1.1,1.3-2.3,2.3-3.6,3.1
	c-1.3,0.7-2.5,1.1-3.6,1.1L505.4,1084.1z M508.6,941.2c18.9-10.9,34.4-2.1,34.4,19.6c0.1,18.7-11.3,41-26.5,53.8
	c-2.7,2.2-5.2,4-7.8,5.5c-2.5,1.5-5.1,2.6-7.6,3.4c-15.4,4.8-26.8-4.3-26.9-23C474.3,978.8,489.7,952.2,508.6,941.2z M508.8,1015.1
	c16.5-9.5,29.9-32.7,29.8-51.7c-0.1-19-13.5-26.6-30-17.1S478.7,979,478.8,998C478.8,1016.9,492.3,1024.6,508.8,1015.1 M531.3,937.2
	l-4.5-2.6l0,0c-0.1,0-0.1-0.1-0.2-0.1c0,0-0.1,0-0.1-0.1c-0.2-0.1-0.4-0.2-0.6-0.3c-0.1,0-0.1-0.1-0.2-0.1c-0.3-0.1-0.5-0.2-0.8-0.4
	l0,0h-0.1c-0.2-0.1-0.4-0.2-0.7-0.3c-0.1,0-0.2-0.1-0.2-0.1c-0.3-0.1-0.5-0.2-0.8-0.2c0,0,0,0-0.1,0l0,0c-0.3-0.1-0.6-0.2-0.9-0.2
	c-0.1,0-0.2,0-0.2-0.1c-0.2-0.1-0.5-0.1-0.7-0.1h-0.1c0,0,0,0-0.1,0c-0.3-0.1-0.6-0.1-0.9-0.1c-0.1,0-0.1,0-0.2,0
	c-0.3,0-0.5-0.1-0.8-0.1H519h-0.1c-0.3,0-0.7,0-1,0c-0.1,0-0.1,0-0.2,0c-0.3,0-0.6,0-0.9,0h-0.1c0,0,0,0-0.1,0c-0.4,0-0.7,0-1.1,0.1
	c-0.1,0-0.2,0-0.2,0c-0.4,0-0.8,0.1-1.2,0.1l0,0l0,0c-0.5,0.1-0.9,0.2-1.4,0.3h-0.1c-0.5,0.1-0.9,0.2-1.4,0.3h-0.1H511
	c-0.3,0.1-0.5,0.1-0.8,0.2h-0.1c-0.3,0.1-0.6,0.2-0.9,0.3c-0.1,0-0.2,0.1-0.3,0.1c-0.2,0.1-0.4,0.2-0.7,0.2c-0.1,0-0.2,0.1-0.4,0.1
	c-0.2,0.1-0.4,0.2-0.6,0.2c-0.1,0-0.1,0.1-0.2,0.1c0,0-0.1,0-0.1,0.1c-0.3,0.1-0.6,0.3-0.9,0.4c-0.1,0-0.1,0-0.2,0.1
	c-0.4,0.2-0.7,0.3-1.1,0.5c-0.1,0-0.2,0.1-0.3,0.1c-0.3,0.1-0.6,0.3-0.8,0.4c-0.1,0.1-0.2,0.1-0.3,0.2c-0.4,0.2-0.7,0.4-1.1,0.6
	c-0.6,0.3-1.1,0.7-1.7,1c-0.2,0.1-0.4,0.2-0.5,0.3c-0.4,0.2-0.7,0.5-1.1,0.7c-0.2,0.1-0.4,0.3-0.6,0.4c-0.3,0.2-0.7,0.5-1,0.7
	c-0.2,0.2-0.4,0.3-0.6,0.5c-0.3,0.3-0.7,0.5-1,0.8c-0.2,0.2-0.4,0.3-0.6,0.5c-0.4,0.3-0.8,0.6-1.2,1c-0.1,0.1-0.3,0.2-0.4,0.3
	c-0.5,0.5-1,0.9-1.5,1.4c-0.1,0.1-0.2,0.2-0.3,0.3c-0.3,0.3-0.6,0.6-1,0.9c-0.1,0.1-0.1,0.1-0.2,0.2c-0.6,0.6-1.2,1.2-1.8,1.8l0,0
	c-0.6,0.6-1.1,1.3-1.7,1.9c0,0.1-0.1,0.1-0.1,0.2c-0.2,0.2-0.4,0.5-0.6,0.7c-0.2,0.3-0.4,0.5-0.7,0.8c-0.3,0.3-0.5,0.7-0.8,1
	c-0.2,0.3-0.4,0.5-0.6,0.8l-0.1,0.1c-0.4,0.5-0.8,1-1.2,1.6l-0.1,0.1c-0.3,0.5-0.7,0.9-1,1.4c0,0.1-0.1,0.1-0.1,0.2
	c-0.1,0.2-0.2,0.3-0.3,0.5c-0.3,0.4-0.6,0.9-0.9,1.3c-0.1,0.2-0.3,0.4-0.4,0.6c-0.1,0.1-0.2,0.3-0.3,0.4c-0.2,0.3-0.4,0.7-0.6,1
	c-0.1,0.1-0.1,0.2-0.2,0.4c-0.3,0.5-0.6,1.1-1,1.6c0,0.1-0.1,0.1-0.1,0.2c-0.1,0.1-0.2,0.3-0.2,0.4c-0.3,0.5-0.5,1-0.8,1.5
	c-0.1,0.2-0.2,0.3-0.3,0.5c-0.1,0.1-0.1,0.2-0.2,0.3c-0.3,0.5-0.5,1-0.8,1.5c0,0,0,0.1-0.1,0.1c-0.2,0.4-0.4,0.9-0.7,1.3
	c-0.1,0.1-0.1,0.3-0.2,0.4c-0.1,0.2-0.2,0.4-0.2,0.5c-0.2,0.5-0.5,1-0.7,1.6c-0.1,0.1-0.1,0.2-0.2,0.4c0,0,0,0.1-0.1,0.1
	c-0.3,0.6-0.5,1.2-0.7,1.8c-0.1,0.2-0.1,0.3-0.2,0.5c-0.1,0.3-0.2,0.6-0.3,0.9c-0.1,0.2-0.1,0.4-0.2,0.6c-0.1,0.2-0.2,0.4-0.2,0.6
	c-0.2,0.5-0.4,1.1-0.6,1.6c0,0.1-0.1,0.2-0.1,0.4v0.1c-0.2,0.6-0.4,1.3-0.6,1.9c-0.1,0.2-0.1,0.3-0.2,0.5c-0.1,0.4-0.2,0.7-0.3,1.1
	c0,0.1-0.1,0.2-0.1,0.3c-0.1,0.3-0.2,0.6-0.2,0.9c-0.1,0.4-0.2,0.8-0.3,1.2c-0.1,0.3-0.1,0.6-0.2,0.9c0,0.2-0.1,0.4-0.1,0.7
	c0,0.1-0.1,0.3-0.1,0.4c-0.1,0.5-0.2,0.9-0.3,1.4c-0.1,0.3-0.1,0.6-0.2,0.9c-0.1,0.5-0.1,0.9-0.2,1.4c0,0.2-0.1,0.4-0.1,0.7
	c0,0.1,0,0.2,0,0.3c0,0.2,0,0.4-0.1,0.6c-0.1,0.4-0.1,0.9-0.1,1.3c0,0.2,0,0.5-0.1,0.7c0,0.4-0.1,0.9-0.1,1.3c0,0.2,0,0.4,0,0.6
	c0,0.6,0,1.3,0,1.9c0,10.8,3.8,18.5,10,22.1l6.5,3.8c-6.2-3.6-10-11.2-10-22.1c0-0.6,0-1.3,0-1.9c0-0.2,0-0.4,0-0.6
	c0-0.4,0-0.9,0.1-1.3c0-0.2,0-0.5,0.1-0.7c0-0.4,0.1-0.9,0.1-1.3c0-0.2,0-0.4,0.1-0.6c0-0.3,0.1-0.6,0.1-0.9
	c0.1-0.5,0.1-0.9,0.2-1.4c0.1-0.3,0.1-0.6,0.2-0.9c0.1-0.5,0.2-0.9,0.3-1.4c0.1-0.4,0.2-0.7,0.2-1.1c0.1-0.3,0.1-0.6,0.2-0.9
	c0.1-0.4,0.2-0.8,0.3-1.2c0.1-0.3,0.2-0.6,0.2-0.9c0.1-0.5,0.3-1,0.4-1.5c0.1-0.2,0.1-0.3,0.2-0.5c0.2-0.7,0.4-1.3,0.6-2
	c0-0.1,0.1-0.2,0.1-0.4c0.2-0.5,0.4-1.1,0.6-1.6c0.1-0.2,0.2-0.4,0.2-0.6c0.2-0.5,0.4-1,0.6-1.5c0.1-0.2,0.1-0.3,0.2-0.5
	c0.3-0.6,0.5-1.3,0.8-1.9c0.1-0.1,0.1-0.2,0.2-0.4c0.2-0.5,0.5-1,0.7-1.6c0.1-0.2,0.2-0.4,0.3-0.5c0.3-0.6,0.6-1.2,0.9-1.7
	c0,0,0-0.1,0.1-0.1c0.3-0.6,0.6-1.2,1-1.8c0.1-0.2,0.2-0.3,0.3-0.5c0.3-0.5,0.5-1,0.8-1.4c0.1-0.1,0.2-0.3,0.2-0.4
	c0.4-0.6,0.7-1.2,1.1-1.8c0.1-0.1,0.1-0.2,0.2-0.4c0.3-0.5,0.6-1,0.9-1.4c0.1-0.2,0.3-0.4,0.4-0.6c0.3-0.4,0.6-0.9,0.9-1.3
	c0.1-0.2,0.2-0.3,0.3-0.5c0.4-0.5,0.8-1.1,1.2-1.6l0.1-0.1c0.4-0.6,0.9-1.1,1.3-1.7c0.2-0.3,0.4-0.5,0.6-0.8c0.3-0.3,0.5-0.7,0.8-1
	c0.2-0.3,0.4-0.5,0.7-0.8c0.3-0.3,0.5-0.6,0.8-0.9c0.6-0.6,1.1-1.3,1.7-1.9l0,0c0.6-0.6,1.2-1.2,1.8-1.8c0.4-0.4,0.7-0.7,1.1-1.1
	c0.1-0.1,0.2-0.2,0.3-0.3c0.5-0.5,1-0.9,1.5-1.4c0.1-0.1,0.3-0.2,0.4-0.3c0.4-0.3,0.8-0.7,1.2-1c0.2-0.2,0.4-0.3,0.6-0.5
	c0.3-0.3,0.7-0.5,1-0.8c0.2-0.2,0.4-0.3,0.6-0.5c0.3-0.3,0.7-0.5,1-0.7c0.2-0.1,0.4-0.3,0.6-0.4c0.4-0.3,0.7-0.5,1.1-0.7
	c0.2-0.1,0.4-0.2,0.5-0.3c0.6-0.3,1.1-0.7,1.7-1c0.4-0.2,0.7-0.4,1.1-0.6c0.1-0.1,0.2-0.1,0.3-0.2c0.3-0.1,0.6-0.3,0.8-0.4
	c0.1,0,0.2-0.1,0.3-0.1c0.4-0.2,0.7-0.3,1.1-0.5c0.1,0,0.1,0,0.2-0.1c0.3-0.1,0.6-0.3,0.9-0.4c0.1,0,0.2-0.1,0.3-0.1
	c0.2-0.1,0.4-0.2,0.6-0.2c0.1,0,0.2-0.1,0.3-0.1c0.2-0.1,0.5-0.2,0.7-0.2c0.1,0,0.2-0.1,0.3-0.1c0.3-0.1,0.6-0.2,0.9-0.3h0.1
	c0.3-0.1,0.5-0.2,0.8-0.2c0.1,0,0.1,0,0.2-0.1c0.5-0.1,0.9-0.2,1.4-0.3h0.1c0.5-0.1,0.9-0.2,1.4-0.3l0,0c0.4-0.1,0.8-0.1,1.2-0.1
	c0.1,0,0.2,0,0.2,0c0.4,0,0.7-0.1,1.1-0.1c0.1,0,0.1,0,0.2,0c0.3,0,0.6,0,0.9,0c0.1,0,0.1,0,0.2,0c0.3,0,0.7,0,1,0
	c0.1,0,0.2,0,0.2,0c0.3,0,0.5,0,0.8,0.1c0.1,0,0.1,0,0.2,0c0.3,0,0.6,0.1,0.9,0.1c0.1,0,0.1,0,0.2,0c0.2,0,0.5,0.1,0.7,0.1
	c0.1,0,0.2,0,0.2,0.1c0.3,0.1,0.6,0.1,0.9,0.2c0,0,0,0,0.1,0c0.3,0.1,0.5,0.2,0.8,0.2c0.1,0,0.2,0.1,0.2,0.1
	c0.2,0.1,0.4,0.2,0.7,0.3c0.1,0,0.1,0,0.2,0.1c0.3,0.1,0.5,0.2,0.8,0.4c0.1,0,0.1,0.1,0.2,0.1c0.2,0.1,0.4,0.2,0.6,0.3
	c0.1,0.1,0.2,0.1,0.3,0.2l0,0L531.3,937.2z"></path>
<path id="color_x5F_7" fill="#e08573" d="M561,643.7l-20.2,11.6v5.8l4.9,2.9l7.7-4.5c-0.1,0.2-0.1,0.3-0.2,0.5c0,0.1,0,0.1-0.1,0.2
	c-0.2,0.5-0.4,1-0.6,1.4c-0.1,0.2-0.1,0.3-0.2,0.5c-0.2,0.4-0.4,0.8-0.6,1.2c-0.1,0.1-0.1,0.3-0.2,0.4c-0.3,0.5-0.6,1-0.9,1.6
	c-0.1,0.1-0.1,0.2-0.2,0.3c-0.3,0.5-0.6,1-0.9,1.4c-0.3,0.5-0.6,0.9-1,1.4c-0.2,0.2-0.3,0.4-0.5,0.7s-0.4,0.6-0.7,0.9
	c-0.2,0.3-0.4,0.5-0.7,0.8c-0.2,0.2-0.4,0.4-0.6,0.7c-0.4,0.5-0.8,0.9-1.2,1.3c-0.2,0.2-0.3,0.3-0.5,0.5c-0.3,0.3-0.6,0.5-0.9,0.8
	c-0.2,0.2-0.4,0.4-0.6,0.6c-0.3,0.3-0.6,0.5-1,0.8c-0.2,0.2-0.4,0.3-0.6,0.5c-0.4,0.3-0.7,0.5-1.1,0.8c-0.2,0.1-0.4,0.3-0.6,0.4
	c-0.6,0.4-1.1,0.7-1.7,1.1c-0.5,0.3-1,0.6-1.5,0.8c-0.2,0.1-0.3,0.2-0.5,0.2c-0.3,0.2-0.7,0.3-1,0.5c-0.2,0.1-0.4,0.2-0.7,0.3
	c-0.2,0.1-0.4,0.2-0.6,0.2c-0.2,0.1-0.5,0.2-0.7,0.2c-0.2,0.1-0.4,0.1-0.6,0.2c-0.4,0.1-0.7,0.2-1.1,0.3l0,0
	c-0.4,0.1-0.7,0.1-1.1,0.2c-0.5,0.1-1,0.1-1.4,0.1s-0.8,0-1.2,0c-0.3,0-0.5,0-0.7-0.1c-0.2,0-0.4,0-0.6-0.1c-0.2,0-0.4-0.1-0.6-0.1
	c-0.2-0.2-0.4-0.5-0.6-0.7c-1.8-2.4-2.7-5.6-2.7-9.4c0-3.7,0.8-7.8,2.6-12.1c1.7-4.3,4.2-8.4,7.3-12.2c3.1-3.7,6.4-6.6,9.8-8.6
	c2.8-1.6,5.8-2.6,8.8-2.9c2.9-0.3,5.7,0.3,8.2,1.7l0.2,0.1l4-6.7l-4.9-2.9l-0.3-0.1l0,0c-0.4-0.2-0.9-0.4-1.3-0.6h-0.1
	c-0.3-0.1-0.7-0.3-1-0.4c-0.1,0-0.1,0-0.2-0.1c-0.3-0.1-0.5-0.2-0.8-0.3h-0.1c-0.5-0.2-1.1-0.3-1.7-0.4h-0.1c-0.1,0-0.2,0-0.3,0
	c-0.4-0.1-0.9-0.1-1.3-0.2c-0.1,0-0.2,0-0.3,0h-0.1c-0.5,0-1.1,0-1.6,0h-0.1c-0.4,0-0.7,0-1.1,0.1c-0.3,0-0.6,0.1-0.9,0.1
	c-0.1,0-0.1,0-0.2,0c-0.2,0-0.4,0.1-0.6,0.1c-0.2,0-0.5,0.1-0.7,0.1s-0.4,0.1-0.6,0.1c-0.1,0-0.3,0.1-0.4,0.1
	c-0.1,0-0.2,0.1-0.3,0.1c-0.3,0.1-0.7,0.2-1,0.3c-0.2,0.1-0.3,0.1-0.5,0.2c-0.5,0.2-1,0.3-1.4,0.5h-0.1l0,0
	c-0.6,0.3-1.2,0.5-1.9,0.9c-0.2,0.1-0.3,0.2-0.5,0.2c-0.6,0.3-1.3,0.7-1.9,1c-0.7,0.4-1.5,0.9-2.2,1.4c-0.2,0.1-0.4,0.3-0.6,0.4
	c-0.6,0.4-1.1,0.8-1.7,1.2c-0.2,0.1-0.3,0.2-0.5,0.4c-0.7,0.5-1.4,1.1-2,1.7c-0.1,0.1-0.3,0.3-0.4,0.4c-0.5,0.5-1.1,1-1.6,1.5
	c-0.1,0.1-0.2,0.2-0.3,0.3s-0.2,0.3-0.4,0.4c-0.2,0.2-0.4,0.4-0.6,0.6c-0.3,0.3-0.6,0.6-0.8,0.9c-0.2,0.2-0.4,0.4-0.6,0.6
	c-0.1,0.1-0.2,0.2-0.3,0.3c-0.3,0.4-0.6,0.8-1,1.1c-0.3,0.4-0.7,0.8-1,1.3c-0.1,0.1-0.1,0.1-0.2,0.2c-0.4,0.5-0.8,1.1-1.2,1.6
	c-0.1,0.1-0.2,0.2-0.2,0.3c0,0,0,0,0,0.1c-0.4,0.6-0.9,1.3-1.3,1.9l0,0c-0.1,0.2-0.2,0.4-0.4,0.6c-0.3,0.4-0.5,0.8-0.8,1.3
	c0,0,0,0,0,0.1c-0.2,0.3-0.3,0.6-0.5,0.9c-0.2,0.3-0.4,0.6-0.5,0.9c0,0,0,0,0,0.1c-0.2,0.3-0.3,0.7-0.5,1s-0.3,0.6-0.5,0.9l0,0
	c-0.1,0.3-0.3,0.6-0.4,0.8c-0.2,0.4-0.4,0.8-0.5,1.1c0,0,0,0,0,0.1c-0.3,0.6-0.5,1.3-0.8,1.9c0,0.1-0.1,0.2-0.1,0.3
	c-0.1,0.2-0.1,0.4-0.2,0.6c-0.2,0.5-0.4,1-0.5,1.5c0,0.1-0.1,0.2-0.1,0.2c-0.1,0.2-0.1,0.4-0.2,0.5c-0.2,0.5-0.3,1-0.5,1.5
	c0,0.1-0.1,0.3-0.1,0.4c0,0.1-0.1,0.3-0.1,0.4c-0.2,0.6-0.3,1.3-0.5,1.9c0,0.1-0.1,0.3-0.1,0.4c0,0.1,0,0.1,0,0.2
	c0,0.2-0.1,0.4-0.1,0.6c-0.1,0.4-0.2,0.8-0.2,1.2c0,0.2-0.1,0.5-0.1,0.7s-0.1,0.4-0.1,0.6c0,0.1,0,0.3,0,0.4c-0.1,0.5-0.1,1-0.1,1.5
	c0,0.2,0,0.5-0.1,0.7c0,0.7-0.1,1.4-0.1,2.1c0,6.7,2,11.5,5.8,14.4c0.4,0.3,0.8,0.6,1.3,0.8l4.9,2.9l-0.1-0.1
	c4.8,2.9,11.2,2.1,19-2.4c6.9-4,12.6-9.7,16.7-16.8c4.1-7.2,6.2-14.9,6.3-23v-0.4L561,643.7z M564.8,653.3L564.8,653.3
	c0,0.2,0,0.3-0.1,0.5l0,0C564.7,653.7,564.7,653.5,564.8,653.3z M533.5,685L533.5,685L533.5,685L533.5,685z M531.7,690
	c0.2,0,0.3,0,0.5,0l0,0C532,689.9,531.9,690,531.7,690L531.7,690z M565,651.5c0-0.3,0.1-0.6,0.1-0.9l0,0
	C565,650.9,565,651.2,565,651.5L565,651.5z M561.4,629.2c0.1,0,0.2,0.1,0.3,0.1l0,0C561.6,629.3,561.5,629.3,561.4,629.2z
	 M563.1,630L563.1,630l-2.5-1.4L563.1,630z M522.8,688.5c-0.9-0.7-1.7-1.5-2.4-2.5l0,0C521.1,687,521.9,687.8,522.8,688.5
	L522.8,688.5L522.8,688.5z M531,690L531,690c-0.1,0-0.2,0-0.4,0C530.8,690,530.9,690,531,690z M533.1,689.8L533.1,689.8L533.1,689.8
	L533.1,689.8z M564.3,656.1L564.3,656.1c0,0.1,0,0.2,0,0.2C564.3,656.2,564.3,656.2,564.3,656.1z M602.3,617.6
	c-0.2-0.1-0.4-0.3-0.6-0.4l0,0l-4.9-2.9c0,0-0.1,0-0.1-0.1c-0.3-0.2-0.6-0.3-0.9-0.4c-0.1,0-0.1,0-0.2-0.1c-0.1,0-0.2-0.1-0.3-0.1
	c-0.2-0.1-0.3-0.1-0.5-0.2c-0.2-0.1-0.4-0.1-0.6-0.1c-0.1,0-0.2,0-0.3-0.1h-0.1c-0.3-0.1-0.7-0.1-1-0.1c-0.1,0-0.1,0-0.2,0
	c-0.1,0-0.2,0-0.3,0c-0.2,0-0.4,0-0.6,0c-0.1,0-0.3,0-0.4,0c-0.2,0-0.3,0-0.5,0c-0.1,0-0.2,0-0.3,0c-0.2,0-0.4,0.1-0.6,0.1
	c-0.2,0-0.4,0.1-0.6,0.1c-0.1,0-0.1,0-0.2,0c-0.4,0.1-0.8,0.2-1.2,0.4c-0.1,0-0.2,0.1-0.3,0.1c-0.2,0.1-0.4,0.1-0.6,0.2
	c-0.2,0.1-0.4,0.2-0.6,0.3c-0.2,0.1-0.3,0.1-0.5,0.2c-0.5,0.3-1.1,0.5-1.6,0.9c-0.6,0.4-1.2,0.7-1.8,1.1c-0.2,0.1-0.4,0.3-0.6,0.4
	c-0.4,0.3-0.8,0.6-1.2,0.9c-0.2,0.2-0.4,0.3-0.6,0.5c-0.4,0.3-0.7,0.6-1.1,0.9c-0.2,0.2-0.4,0.4-0.6,0.6c-0.1,0.1-0.2,0.2-0.3,0.3
	c-0.2,0.2-0.3,0.3-0.5,0.5c-0.3,0.3-0.7,0.7-1,1c-0.1,0.1-0.2,0.2-0.3,0.4c-0.2,0.2-0.4,0.4-0.5,0.7c-0.2,0.2-0.4,0.4-0.5,0.6
	c-0.1,0.1-0.2,0.2-0.2,0.3c-0.3,0.4-0.7,0.9-1,1.4c0,0,0,0.1-0.1,0.1l0,0c-0.3,0.5-0.7,1-1,1.5c-0.1,0.1-0.2,0.3-0.2,0.4
	c-0.1,0.2-0.2,0.3-0.3,0.5s-0.3,0.4-0.4,0.6c-0.3,0.5-0.5,0.9-0.8,1.4c0,0.1-0.1,0.2-0.1,0.3c-0.3,0.6-0.6,1.1-0.8,1.7
	c0,0,0,0.1-0.1,0.1c-0.1,0.1-0.1,0.3-0.2,0.4c-0.2,0.4-0.3,0.7-0.5,1.1c-0.1,0.2-0.1,0.3-0.2,0.5c-0.1,0.2-0.2,0.4-0.2,0.6
	c-0.1,0.2-0.1,0.3-0.2,0.5c-0.1,0.3-0.2,0.6-0.3,0.9c-0.1,0.2-0.1,0.4-0.2,0.5c0,0.1,0,0.1-0.1,0.2c-0.2,0.6-0.4,1.2-0.5,1.8l0,0
	c0,0.1,0,0.2-0.1,0.2c-0.2,0.6-0.3,1.2-0.4,1.8c0,0,0,0,0,0.1c-0.2,0.8-0.3,1.6-0.4,2.3v0.1c0,0.4-0.1,0.8-0.1,1.1
	c0,0.2,0,0.4-0.1,0.7c0,0.7-0.1,1.3-0.1,2c0,5.4,1.7,9.3,5,11.5c0.1,0.1,0.3,0.2,0.4,0.2l4.9,2.9c-0.1-0.1-0.3-0.2-0.4-0.2
	c3.3,2.2,7.6,1.7,12.8-1.3s9.5-7.5,12.8-13.5s4.9-11.8,4.9-17.2C607,623.6,605.4,619.8,602.3,617.6z M583.4,651.9
	c-0.1,0-0.2,0.1-0.3,0.1c-0.2,0.1-0.4,0.2-0.6,0.3c-0.2,0.1-0.3,0.1-0.5,0.2c-0.1,0-0.2,0.1-0.3,0.1c-0.2,0.1-0.3,0.1-0.5,0.2
	c-0.1,0-0.2,0.1-0.3,0.1s-0.1,0-0.2,0c-0.3,0.1-0.6,0.1-0.9,0.2c-0.1,0-0.2,0-0.3,0c-0.2,0-0.4,0-0.6,0.1c-0.1,0-0.2,0-0.3,0
	c-0.2,0-0.3,0-0.5,0H578c-1.1-1.7-1.7-3.8-1.7-6.5c0-4.2,1.2-8.5,3.7-12.9s5.5-7.6,8.9-9.6c2.2-1.3,4.2-1.8,6.1-1.7
	c1.1,1.6,1.7,3.8,1.7,6.6c0,0.6,0,1.2-0.1,1.8c0,0.1,0,0.3,0,0.4c0,0.4-0.1,0.9-0.2,1.4c0,0.2-0.1,0.5-0.1,0.7
	c-0.1,0.6-0.3,1.3-0.5,1.9c0,0.1-0.1,0.2-0.1,0.3c-0.2,0.7-0.4,1.3-0.7,2s-0.6,1.4-0.9,2c0,0.1-0.1,0.2-0.1,0.2
	c-0.3,0.6-0.6,1.3-1,1.9c0,0.1-0.1,0.1-0.1,0.2c-0.3,0.6-0.7,1.2-1.1,1.7c-0.1,0.1-0.1,0.2-0.2,0.2c-0.4,0.6-0.8,1.2-1.3,1.8
	c-0.4,0.4-0.7,0.9-1.1,1.3c-0.2,0.2-0.4,0.4-0.6,0.6c-0.4,0.4-0.9,0.9-1.3,1.3l0,0c-0.5,0.4-1,0.8-1.5,1.2c-0.1,0.1-0.2,0.2-0.4,0.3
	c-0.5,0.4-1,0.7-1.5,1C584,651.6,583.7,651.7,583.4,651.9z M601.1,616.9c0.1,0,0.1,0.1,0.2,0.1C601.2,617,601.1,616.9,601.1,616.9z
	 M573.7,658.3L573.7,658.3c0.5,0.7,1,1.3,1.6,1.8C574.7,659.6,574.2,658.9,573.7,658.3z M643.4,593.8c-0.2-0.1-0.4-0.3-0.6-0.4l0,0
	l-4.9-2.9c0,0-0.1,0-0.1-0.1c-0.3-0.2-0.6-0.3-0.9-0.5c-0.1,0-0.1,0-0.2-0.1c-0.1,0-0.2-0.1-0.3-0.1c-0.2-0.1-0.3-0.1-0.5-0.2
	c-0.2-0.1-0.4-0.1-0.6-0.1c-0.1,0-0.2,0-0.3-0.1h-0.1c-0.3-0.1-0.7-0.1-1-0.1c-0.1,0-0.1,0-0.2,0c-0.1,0-0.2,0-0.3,0
	c-0.2,0-0.4,0-0.6,0c-0.1,0-0.3,0-0.4,0c-0.2,0-0.3,0-0.5,0c-0.1,0-0.2,0-0.3,0c-0.2,0-0.4,0.1-0.6,0.1c-0.2,0-0.4,0.1-0.6,0.1
	c-0.1,0-0.1,0-0.2,0c-0.4,0.1-0.8,0.2-1.2,0.4c-0.1,0-0.2,0.1-0.3,0.1c-0.2,0.1-0.4,0.1-0.6,0.2c-0.2,0.1-0.4,0.2-0.6,0.3
	c-0.2,0.1-0.3,0.1-0.5,0.2c-0.5,0.3-1.1,0.5-1.6,0.9c-0.6,0.4-1.2,0.7-1.8,1.1c-0.2,0.1-0.4,0.3-0.6,0.4c-0.4,0.3-0.8,0.6-1.2,0.9
	c-0.2,0.2-0.4,0.3-0.6,0.5c-0.4,0.3-0.7,0.6-1.1,0.9c-0.2,0.2-0.4,0.4-0.6,0.6c-0.1,0.1-0.2,0.2-0.3,0.3c-0.2,0.2-0.3,0.3-0.5,0.5
	c-0.3,0.3-0.7,0.7-1,1c-0.1,0.1-0.2,0.2-0.3,0.4c-0.2,0.2-0.4,0.4-0.5,0.7c-0.2,0.2-0.4,0.4-0.5,0.6c-0.1,0.1-0.2,0.2-0.2,0.3
	c-0.3,0.4-0.7,0.9-1,1.4l-0.1,0.1l0,0c-0.3,0.5-0.7,1-1,1.5c-0.1,0.1-0.2,0.3-0.2,0.4c-0.1,0.2-0.2,0.3-0.3,0.5s-0.3,0.4-0.4,0.6
	c-0.3,0.5-0.5,0.9-0.8,1.4c0,0.1-0.1,0.2-0.1,0.2c-0.3,0.6-0.6,1.1-0.8,1.7c0,0,0,0.1-0.1,0.1c-0.1,0.1-0.1,0.3-0.2,0.4
	c-0.2,0.3-0.3,0.7-0.5,1c-0.1,0.2-0.1,0.3-0.2,0.5c-0.1,0.2-0.2,0.4-0.2,0.6c-0.1,0.2-0.1,0.3-0.2,0.5c-0.1,0.3-0.2,0.6-0.3,0.9
	c-0.1,0.2-0.1,0.4-0.2,0.5c0,0.1,0,0.1-0.1,0.2c-0.2,0.6-0.4,1.2-0.5,1.8l0,0c0,0.1,0,0.2-0.1,0.3c-0.2,0.6-0.3,1.1-0.4,1.7
	c0,0,0,0,0,0.1c-0.2,0.8-0.3,1.6-0.4,2.3v0.1c0,0.4-0.1,0.8-0.1,1.2c0,0.2,0,0.4-0.1,0.7c0,0.7-0.1,1.3-0.1,2c0,5.4,1.7,9.3,5,11.5
	c0.1,0.1,0.3,0.2,0.4,0.2l4.9,2.9c-0.1-0.1-0.3-0.2-0.4-0.2c3.3,2.2,7.6,1.7,12.8-1.3s9.5-7.5,12.8-13.5s4.9-11.8,4.9-17.2
	C648.1,599.8,646.5,596,643.4,593.8z M635.6,616c0,0.1-0.1,0.2-0.1,0.2c-0.3,0.6-0.6,1.3-1,1.9c0,0.1-0.1,0.1-0.1,0.2
	c-0.3,0.6-0.7,1.2-1.1,1.7c-0.1,0.1-0.1,0.2-0.2,0.2c-0.4,0.6-0.8,1.2-1.3,1.8c-0.4,0.4-0.7,0.9-1.1,1.3c-0.2,0.2-0.4,0.4-0.6,0.6
	c-0.4,0.4-0.9,0.9-1.3,1.3l0,0c-0.5,0.4-1,0.8-1.5,1.2c-0.1,0.1-0.2,0.2-0.4,0.3c-0.5,0.4-1,0.7-1.5,1c-0.3,0.2-0.6,0.3-0.9,0.5
	c-0.1,0-0.2,0.1-0.3,0.1c-0.2,0.1-0.4,0.2-0.6,0.3c-0.2,0.1-0.3,0.1-0.5,0.2c-0.1,0-0.2,0.1-0.3,0.1c-0.2,0.1-0.3,0.1-0.5,0.2
	c-0.1,0-0.2,0.1-0.3,0.1s-0.1,0-0.2,0c-0.3,0.1-0.6,0.1-0.9,0.2c-0.1,0-0.2,0-0.3,0c-0.2,0-0.4,0-0.6,0.1c-0.1,0-0.2,0-0.3,0
	c-0.2,0-0.3,0-0.5,0h-0.1c-1.1-1.7-1.7-3.8-1.7-6.4c0-4.2,1.2-8.5,3.7-12.9s5.5-7.6,8.9-9.6c2.2-1.3,4.2-1.8,6.1-1.7
	c1.1,1.6,1.7,3.8,1.7,6.6c0,0.6,0,1.2-0.1,1.8c0,0.1,0,0.3,0,0.4c0,0.4-0.1,0.9-0.2,1.4c0,0.2-0.1,0.5-0.1,0.7
	c-0.1,0.6-0.3,1.3-0.5,1.9c0,0.1-0.1,0.2-0.1,0.3c-0.2,0.7-0.4,1.3-0.7,2C636.2,614.7,635.9,615.3,635.6,616z M642.2,593.1
	c0.1,0,0.1,0.1,0.2,0.1C642.3,593.2,642.3,593.2,642.2,593.1z M614.9,634.5L614.9,634.5c0.2,0.3,0.4,0.5,0.6,0.8
	C615.2,635,615.1,634.8,614.9,634.5z M686,568.7c-0.4-0.2-0.8-0.4-1.2-0.6c0.4,0.1,0.7,0.3,1.1,0.5l-4.9-2.9c0,0-0.1,0-0.1-0.1
	c-0.3-0.2-0.6-0.3-1-0.5c0,0-0.1,0-0.1-0.1c-0.1,0-0.2-0.1-0.3-0.1c-0.2-0.1-0.3-0.1-0.5-0.2c-0.2,0-0.3-0.1-0.5-0.1
	c-0.1,0-0.2-0.1-0.3-0.1s-0.1,0-0.2,0c-0.3-0.1-0.7-0.1-1-0.1h-0.1c-0.1,0-0.2,0-0.2,0c-0.3,0-0.5,0-0.8,0c-0.1,0-0.2,0-0.3,0
	c-0.2,0-0.3,0-0.5,0c-0.1,0-0.3,0-0.4,0c-0.2,0-0.3,0.1-0.5,0.1s-0.4,0.1-0.6,0.1c-0.1,0-0.2,0-0.3,0.1c-0.3,0.1-0.7,0.2-1.1,0.3
	c-0.1,0-0.1,0-0.2,0.1c-0.2,0.1-0.5,0.2-0.7,0.3s-0.4,0.2-0.6,0.3c-0.2,0.1-0.3,0.1-0.5,0.2c-0.5,0.2-1,0.5-1.6,0.8
	c-0.6,0.4-1.2,0.7-1.8,1.1c-0.2,0.1-0.4,0.3-0.5,0.4c-0.4,0.3-0.8,0.6-1.3,1c-0.2,0.1-0.4,0.3-0.5,0.4c-0.5,0.4-1,0.9-1.5,1.3
	c-0.1,0.1-0.1,0.1-0.2,0.2l0,0c-0.6,0.6-1.1,1.2-1.7,1.8c0,0,0,0-0.1,0.1c-0.2,0.2-0.4,0.5-0.6,0.7v-10.4l-4.9-2.9l-5,2.9l0.2,54
	l4.9,2.9l5-2.9v-6.1l1.4,0.8c0,0,0,0-0.1,0c1.2,0.7,2.6,1.1,4,1.2c2.3,0.1,4.8-0.7,7.6-2.3c4.8-2.8,9-7.2,12.4-13.2
	s5.1-11.9,5.1-17.5C691.1,574.7,689.4,570.8,686,568.7z M681,582.1c0,0.1,0,0.3,0,0.4c-0.1,0.5-0.1,0.9-0.2,1.4
	c0,0.2-0.1,0.4-0.1,0.7c-0.1,0.6-0.3,1.3-0.5,1.9c0,0.1-0.1,0.3-0.1,0.4c-0.2,0.7-0.4,1.3-0.7,2s-0.6,1.4-0.9,2.1
	c0,0.1-0.1,0.2-0.1,0.3c-0.3,0.6-0.6,1.3-1,1.9c0,0.1-0.1,0.2-0.1,0.2c-0.3,0.6-0.7,1.2-1.1,1.8c-0.1,0.1-0.1,0.2-0.2,0.3
	c-0.4,0.6-0.8,1.2-1.3,1.8c-0.4,0.5-0.8,0.9-1.2,1.4c-0.2,0.2-0.4,0.4-0.6,0.6c-0.4,0.4-0.8,0.8-1.2,1.2l-0.1,0.1
	c-0.5,0.4-1,0.8-1.4,1.2c-0.1,0.1-0.2,0.2-0.4,0.3c-0.5,0.4-1,0.7-1.5,1c-0.4,0.2-0.8,0.4-1.2,0.6c-0.1,0.1-0.2,0.1-0.4,0.2
	c-0.3,0.1-0.6,0.3-0.9,0.4c-0.1,0-0.1,0-0.2,0.1c-0.3,0.1-0.7,0.2-1,0.3c-0.2,0-0.3,0.1-0.5,0.1s-0.5,0.1-0.7,0.1
	c-0.1,0-0.2,0-0.3,0c-0.3,0-0.5,0-0.8,0c-0.1,0-0.1,0-0.2,0H662c-1.1-1.6-1.7-3.9-1.7-6.7s0.5-5.7,1.6-8.6c1.1-2.9,2.7-5.6,4.7-8.1
	s4.2-4.5,6.5-5.8c2.1-1.2,4.2-1.8,6.1-1.7l0,0c1.2,1.7,1.8,3.9,1.8,6.6C681.1,580.9,681.1,581.5,681,582.1z M684.5,568
	c-0.2-0.1-0.4-0.1-0.6-0.2c0.2,0,0.3,0.1,0.5,0.1C684.4,568,684.5,568,684.5,568z M683.1,567.6c-0.2,0-0.5-0.1-0.7-0.1
	C682.7,567.6,682.9,567.6,683.1,567.6L683.1,567.6z M661.3,611.8c0.1,0.1,0.1,0.1,0.2,0.1C661.5,611.8,661.4,611.8,661.3,611.8z
	 M702.5,539.3l0.2,54l-5,2.9l-4.9-2.9l-0.2-54l5-2.9L702.5,539.3z M735.2,555.7l9.2-5.3V550c-0.1-5.3-1.3-9.1-3.8-11.2
	c-0.6-0.5-1.2-0.9-1.9-1.3c0.1,0.1,0.3,0.1,0.4,0.2l-4.9-2.9c0,0-0.1,0-0.1-0.1c-0.3-0.2-0.6-0.3-0.9-0.4c-0.1,0-0.1,0-0.2-0.1
	c-0.1,0-0.2-0.1-0.3-0.1s-0.3-0.1-0.4-0.1c-0.2-0.1-0.4-0.1-0.6-0.1c-0.1,0-0.1,0-0.2,0h-0.1c-0.3-0.1-0.6-0.1-1-0.1
	c-0.1,0-0.1,0-0.2,0c-0.1,0-0.2,0-0.4,0s-0.3,0-0.5,0s-0.4,0-0.5,0.1c-0.1,0-0.3,0-0.4,0c-0.1,0-0.2,0-0.2,0c-0.2,0-0.5,0.1-0.7,0.2
	c-0.2,0-0.4,0.1-0.6,0.1h-0.1c-0.4,0.1-0.9,0.3-1.3,0.4c-0.1,0-0.2,0.1-0.3,0.1c-0.2,0.1-0.3,0.1-0.5,0.2c-0.2,0.1-0.5,0.2-0.7,0.3
	s-0.3,0.1-0.5,0.2c-0.6,0.3-1.1,0.6-1.7,0.9c-0.6,0.4-1.3,0.8-1.9,1.2c-0.2,0.1-0.4,0.3-0.6,0.4c-0.4,0.3-0.8,0.6-1.3,1
	c-0.2,0.2-0.4,0.3-0.6,0.5c-0.4,0.4-0.8,0.7-1.2,1.1c-0.1,0.1-0.3,0.3-0.4,0.4l-0.1,0.1c-0.3,0.3-0.5,0.6-0.8,0.8
	c-0.3,0.3-0.6,0.6-0.8,0.9l-0.1,0.1c-0.4,0.5-0.8,1-1.3,1.5l-0.1,0.1c-0.1,0.1-0.2,0.2-0.2,0.3c-0.2,0.3-0.5,0.6-0.7,1
	c-0.2,0.2-0.3,0.5-0.5,0.7c-0.1,0.1-0.2,0.3-0.3,0.4c-0.1,0.1-0.1,0.2-0.2,0.3c-0.3,0.5-0.6,0.9-0.9,1.4c-0.1,0.1-0.1,0.2-0.2,0.3
	c-0.1,0.1-0.2,0.3-0.2,0.4c-0.1,0.3-0.3,0.5-0.4,0.8c-0.3,0.5-0.5,1-0.7,1.5c0,0.1-0.1,0.1-0.1,0.2c-0.3,0.6-0.5,1.1-0.8,1.7
	c0,0,0,0,0,0.1c-0.1,0.1-0.1,0.3-0.2,0.4c-0.2,0.4-0.3,0.8-0.5,1.2c0,0.1-0.1,0.2-0.1,0.2c-0.1,0.2-0.2,0.5-0.2,0.7
	c-0.1,0.3-0.2,0.5-0.3,0.8c0,0.1-0.1,0.2-0.1,0.4c-0.1,0.3-0.2,0.6-0.3,0.8s-0.1,0.4-0.2,0.6c0,0.1-0.1,0.3-0.1,0.4
	c-0.1,0.4-0.2,0.7-0.3,1.1c0,0.2-0.1,0.4-0.1,0.6c0,0.1,0,0.2,0,0.3c-0.2,0.7-0.3,1.5-0.4,2.2v0.1l0,0c-0.1,0.4-0.1,0.8-0.1,1.2
	c0,0.2,0,0.4-0.1,0.6c0,0.6-0.1,1.3-0.1,1.9c0,5.3,1.6,9.1,4.7,11.5c0.2,0.2,0.5,0.4,0.8,0.5l4.9,2.9c0,0,0,0-0.1,0
	c3.1,1.8,7.2,1.3,12.4-1.7c2.5-1.4,4.7-3.2,6.7-5.2s3.8-4.4,5.4-6.9c1.6-2.6,3-5.6,4.2-9l0.2-0.5l-4.9-2.9L735.2,555.7z
	 M732.3,542.9c0.2,0,0.4,0,0.6,0c0.4,0.7,0.8,1.6,1.1,2.7l-16.6,9.6c0.4-0.8,0.8-1.5,1.2-2.2c2.3-3.7,5-6.4,8.2-8.3
	C728.7,543.6,730.5,543,732.3,542.9z M733.6,557.2c0,0.1-0.1,0.2-0.1,0.3c-0.1,0.3-0.2,0.5-0.3,0.8s-0.2,0.5-0.3,0.8
	c0,0.1-0.1,0.2-0.1,0.3c-0.2,0.3-0.3,0.7-0.5,1l0,0c-0.2,0.4-0.4,0.8-0.6,1.2c0,0.1-0.1,0.2-0.1,0.3c-0.2,0.3-0.3,0.6-0.5,0.8v0.1
	c-0.1,0.2-0.3,0.5-0.4,0.7c-0.2,0.4-0.5,0.8-0.8,1.2c-0.1,0.1-0.2,0.3-0.3,0.4c-0.2,0.2-0.4,0.5-0.6,0.7c-0.2,0.2-0.3,0.4-0.5,0.6
	c-0.2,0.2-0.3,0.4-0.5,0.6c-0.4,0.5-0.9,1-1.3,1.4c-0.2,0.2-0.5,0.5-0.7,0.7s-0.3,0.3-0.5,0.5s-0.5,0.4-0.7,0.6
	c-0.2,0.1-0.3,0.3-0.5,0.4c-0.3,0.2-0.5,0.4-0.8,0.6c-0.1,0.1-0.3,0.2-0.4,0.3c-0.4,0.3-0.8,0.5-1.2,0.8c-0.4,0.2-0.7,0.4-1.1,0.6
	c-0.1,0.1-0.2,0.1-0.3,0.2c-0.2,0.1-0.4,0.2-0.7,0.3s-0.6,0.2-0.9,0.3c-0.2,0-0.3,0.1-0.5,0.1c-0.1,0-0.3,0.1-0.4,0.1
	c-0.2,0-0.4,0.1-0.6,0.1c-0.1,0-0.2,0-0.3,0c-0.2,0-0.5,0-0.7,0c-0.1,0-0.1,0-0.2,0c-1-1.5-1.5-3.6-1.6-6.2l19.6-11.3
	C733.8,556.7,733.7,557,733.6,557.2z M736.6,536.8c-0.1,0-0.1,0-0.2,0c0,0,0,0,0.1,0C736.5,536.8,736.6,536.8,736.6,536.8z
	 M1284.8,660.8c-3.6,2-8.1,2.3-12.2,0.1l-147.4-82.6c-1.6-0.9-2.9-2.1-3.9-3.4l74.7,3.2l32.6,1.4c7,0.3,13.3,4.2,16.7,10.3
	L1284.8,660.8z M1371,414.1c-0.1-0.1-0.2-0.1-0.3-0.2l-0.3-0.2C1370.6,413.8,1370.8,413.9,1371,414.1z M1369.1,412.9l-1.2-0.7l0,0
	L1369.1,412.9z M1371.2,414.2c3.3,2.1,5.3,5.7,5.5,9.6C1376.4,419.9,1374.4,416.4,1371.2,414.2z M1376.7,424.4v0.4
	c0-0.2,0-0.5,0-0.7C1376.7,424.1,1376.7,424.2,1376.7,424.4z M1836.3,843.1v26.5c0,15-16.3,24.4-29.3,16.9l-430.3-248.4v-71.5
	l324.8,187.6c-2.9,2.7-4.9,6.7-4.9,11.2v36c0,5.5,2.9,10.6,7.7,13.3l31.1,18c10.3,5.9,23.1-1.5,23.1-13.3V787l13.8,8
	c-4,2.7-6.7,7.2-6.7,12.7v36c0,5.5,2.9,10.6,7.7,13.3l31.1,18c10.3,5.9,23.1-1.5,23.1-13.3V827
	C1833,830.5,1836.3,836.6,1836.3,843.1z M969.2,276.5L969.2,276.5L287.8,669.9v-47.7c0-14.8,7.9-28.4,20.6-35.8l510.8-294.9v32.3
	c0,10.1,10.9,16.4,19.7,11.3l35.7-20.6c4.1-2.3,6.6-6.7,6.6-11.3V262c0-2-0.4-3.8-1.2-5.5l9.2-5.3v34.1c0,10.1,10.9,16.4,19.7,11.3
	l35.7-20.6c4.1-2.3,6.6-6.7,6.6-11.3v-22.1C961.9,249.7,969.2,261.8,969.2,276.5z M1033.5,241.4v-1.1c0-9.3,10.1-15.1,18.2-10.5
	l48.3,27.9l-47.4-27.3C1044.1,225.4,1033.5,231.6,1033.5,241.4z M1325.4,387.8L1325.4,387.8l5.5,3.2l0,0L1325.4,387.8z
	 M1374.2,421.9V435c0,9.3-10.1,15.1-18.2,10.5l-319-184c-3.7-2.2-6.1-6.2-6.1-10.5v-13.2c0-9.3,10.1-15.1,18.2-10.5l239.1,137.9
	c-0.6,1.2-0.9,2.6-0.9,4.1v22.1c0,3.4,1.8,6.5,4.7,8.2l19.2,11.1c6.3,3.6,14.2-0.9,14.2-8.2v-15.8l5.9,3.4c-1,1.5-1.6,3.3-1.6,5.2
	v22.1c0,3.4,1.8,6.5,4.7,8.2l19.2,11.1c6.3,3.6,14.2-0.9,14.2-8.2v-17.4l0.3,0.1C1371.9,413.5,1374.2,417.5,1374.2,421.9z
	 M796.5,797.8l-0.2-0.1l-5.6-2.3l-6.1,6.5l24.4,10l4.3-6.9l13.1,3.9l5-5.5L806,793.1L796.5,797.8z M817.1,771.7l-11.8,5l26,9.4
	l10.9-4L817.1,771.7z M785.3,824.3l26.1,10.1l4-8.7l-26.1-9.6L785.3,824.3z M779.9,853.3l27.1,9.3l0.5-8.8l-9.4-4l0.7-10.4
	l-24.7-8.2v10.6l5.1,1.7L779.9,853.3z M774.1,875.5l24.7,8.1v-10.2l-25.9-8.2L774.1,875.5z M803.3,881l11.1,1.3l-3.5-5.7L803.3,881z
	"></path>
<path id="color_x5F_6" fill="#fdd4c5" d="M564.7,653.8L564.7,653.8c0-0.1,0-0.2,0-0.3C564.7,653.6,564.7,653.7,564.7,653.8z
	 M561.7,629.4L561.7,629.4c-0.1,0-0.2-0.1-0.3-0.1C561.5,629.3,561.6,629.3,561.7,629.4z M531,690c-0.1,0-0.2,0-0.4,0
	C530.8,690,530.9,690,531,690L531,690z M532.2,689.9c-0.2,0-0.3,0-0.5,0C531.9,690,532,689.9,532.2,689.9L532.2,689.9z M692.1,820.8
	L692.1,820.8c0,0,0.2-0.4,0.5-1C692.3,820.5,692.1,820.8,692.1,820.8z M287.8,669.9l681.4-393.4V680c0,15.9-8.4,30.6-22.1,38.7
	l-38.6,22.7V708c0-16.3-17.8-26.3-31.7-17.9L732.7,777c-6,3.6-9.8,10-10.1,16.9c-0.6-2.5-1.3-5.6-2.1-9.5
	c-4-17.6-29.5-17.4-29.5-17.4s-17.6-14.6-32.8-1.7c-15.2,12.9-3.4,29.7-3.4,29.7c-0.1,1.1,0.4,2.2,1.5,3.1c-1-1-1.6-2-1.5-3.1
	c0,0-3.6,11.5-6.2,23.7c-2.3-0.3-4.4,0.2-4.4,0.2s-2.5,4.7,0,9.4c0.9,1.6,1.7,2,2.4,1.8c-0.9,7-0.7,13,1.4,15.4
	c3.1,3.5,14.3,3.9,26.1,2.5c-0.3,1.4-0.6,2.9-1,4.3L699,848v-6c3.3-1.4,5.6-2.9,6.3-4.4c1.1-2.4,3.7-6.6,6.4-11.5l0,0
	c7.8-0.1,7.1-7.1,10.3-15c0.2-0.6,0.4-1.1,0.6-1.6v40.9l-2.3,1.3c-13-4-21.4,2.6-21.4,2.6V848l-25.9,4.3c-1.1,4.6-2.2,8.8-2.2,8.8
	s-13.6,4.6-18.8,13.7l-0.2-0.3c-0.7,0.3-13.1,5.8-21.1,29.9l-32.9,19.4v-35.7c0-16.3-17.8-26.3-31.7-17.9L422,952.7
	c-6.3,3.8-10.1,10.6-10.1,17.9v62.4l-56.6,33.3c-29.9,17.6-67.5-4-67.5-38.7L287.8,669.9L287.8,669.9z M757,592l-47.6,27.5
	l-166.7,96.3v29.5L709.4,647l47.6-27.5V592z M704.3,567.1c0,5.3,1.6,9.1,4.7,11.5c0.2,0.2,0.5,0.4,0.8,0.5l4.9,2.9c0,0,0,0-0.1,0
	c3.1,1.8,7.2,1.3,12.4-1.7c2.5-1.4,4.7-3.2,6.7-5.2s3.8-4.4,5.4-6.9c1.6-2.6,3-5.6,4.2-9l0.2-0.5l-4.9-2.9l-3.3-0.1l9.2-5.3V550
	c-0.1-5.3-1.3-9.1-3.8-11.2c-0.6-0.5-1.2-0.9-1.9-1.3c0.1,0.1,0.3,0.1,0.4,0.2l-4.9-2.9c0,0-0.1,0-0.1-0.1c-0.3-0.2-0.6-0.3-0.9-0.4
	c-0.1,0-0.1,0-0.2-0.1c-0.1,0-0.2-0.1-0.3-0.1s-0.3-0.1-0.4-0.1c-0.2-0.1-0.4-0.1-0.6-0.1c-0.1,0-0.1,0-0.2,0h-0.1
	c-0.3-0.1-0.6-0.1-1-0.1c-0.1,0-0.1,0-0.2,0c-0.1,0-0.2,0-0.4,0s-0.3,0-0.5,0s-0.4,0-0.5,0.1c-0.1,0-0.3,0-0.4,0c-0.1,0-0.2,0-0.2,0
	c-0.2,0-0.5,0.1-0.7,0.2c-0.2,0-0.4,0.1-0.6,0.1h-0.1c-0.4,0.1-0.9,0.3-1.3,0.4c-0.1,0-0.2,0.1-0.3,0.1c-0.2,0.1-0.3,0.1-0.5,0.2
	c-0.2,0.1-0.5,0.2-0.7,0.3s-0.3,0.1-0.5,0.2c-0.6,0.3-1.1,0.6-1.7,0.9c-0.6,0.4-1.3,0.8-1.9,1.2c-0.2,0.1-0.4,0.3-0.6,0.4
	c-0.4,0.3-0.8,0.6-1.3,1c-0.2,0.2-0.4,0.3-0.6,0.5c-0.4,0.4-0.8,0.7-1.2,1.1c-0.1,0.1-0.3,0.3-0.4,0.4l-0.1,0.1
	c-0.3,0.3-0.5,0.6-0.8,0.8c-0.3,0.3-0.6,0.6-0.8,0.9l-0.1,0.1c-0.4,0.5-0.8,1-1.3,1.5l-0.1,0.1c-0.1,0.1-0.2,0.2-0.2,0.3
	c-0.2,0.3-0.5,0.6-0.7,1c-0.2,0.2-0.3,0.5-0.5,0.7c-0.1,0.1-0.2,0.3-0.3,0.4c-0.1,0.1-0.1,0.2-0.2,0.3c-0.3,0.5-0.6,0.9-0.9,1.4
	c-0.1,0.1-0.1,0.2-0.2,0.3c-0.1,0.1-0.2,0.3-0.2,0.4c-0.1,0.3-0.3,0.5-0.4,0.8c-0.3,0.5-0.5,1-0.7,1.5c0,0.1-0.1,0.1-0.1,0.2
	c-0.3,0.6-0.5,1.1-0.8,1.7c0,0,0,0,0,0.1c-0.1,0.1-0.1,0.3-0.2,0.4c-0.2,0.4-0.3,0.8-0.5,1.2c0,0.1-0.1,0.2-0.1,0.2
	c-0.1,0.2-0.2,0.5-0.2,0.7c-0.1,0.3-0.2,0.5-0.3,0.8c0,0.1-0.1,0.2-0.1,0.4c-0.1,0.3-0.2,0.6-0.3,0.8s-0.1,0.4-0.2,0.6
	c0,0.1-0.1,0.3-0.1,0.4c-0.1,0.4-0.2,0.7-0.3,1.1c0,0.2-0.1,0.4-0.1,0.6c0,0.1,0,0.2,0,0.3c-0.2,0.7-0.3,1.5-0.4,2.2v0.1l0,0
	c-0.1,0.4-0.1,0.8-0.1,1.2c0,0.2,0,0.4-0.1,0.6C704.3,565.9,704.3,566.5,704.3,567.1z M692.6,539.3l0.2,54l4.9,2.9l5-2.9l-0.2-54
	l-4.9-2.9L692.6,539.3z M650.6,563.5l0.2,54l4.9,2.9l5-2.9v-6.1l1.4,0.8c0,0,0,0-0.1,0c1.2,0.7,2.6,1.1,4,1.2
	c2.3,0.1,4.8-0.7,7.6-2.3c4.8-2.8,9-7.2,12.4-13.2s5.1-11.9,5.1-17.5c0-5.7-1.8-9.6-5.2-11.7c-0.1,0-0.1-0.1-0.2-0.1h0.1l-4.9-2.9
	c0,0-0.1,0-0.1-0.1c-0.3-0.2-0.6-0.3-1-0.5c0,0-0.1,0-0.1-0.1c-0.1,0-0.2-0.1-0.3-0.1c-0.2-0.1-0.3-0.1-0.5-0.2
	c-0.2,0-0.3-0.1-0.5-0.1c-0.1,0-0.2-0.1-0.3-0.1s-0.1,0-0.2,0c-0.3-0.1-0.7-0.1-1-0.1h-0.1c-0.1,0-0.2,0-0.2,0c-0.3,0-0.5,0-0.8,0
	c-0.1,0-0.2,0-0.3,0c-0.2,0-0.3,0-0.5,0c-0.1,0-0.3,0-0.4,0c-0.2,0-0.3,0.1-0.5,0.1s-0.4,0.1-0.6,0.1c-0.1,0-0.2,0-0.3,0.1
	c-0.3,0.1-0.7,0.2-1.1,0.3c-0.1,0-0.1,0-0.2,0.1c-0.2,0.1-0.5,0.2-0.7,0.3s-0.4,0.2-0.6,0.3c-0.2,0.1-0.3,0.1-0.5,0.2
	c-0.5,0.2-1,0.5-1.6,0.8c-0.6,0.4-1.2,0.7-1.8,1.1c-0.2,0.1-0.4,0.3-0.5,0.4c-0.4,0.3-0.8,0.6-1.3,1c-0.2,0.1-0.4,0.3-0.5,0.4
	c-0.5,0.4-1,0.9-1.5,1.3c-0.1,0.1-0.1,0.1-0.2,0.2l0,0c-0.6,0.6-1.1,1.2-1.7,1.8c0,0,0,0-0.1,0.1c-0.2,0.2-0.4,0.5-0.6,0.7v-10.4
	l-4.9-2.9L650.6,563.5z M607.7,622.9c0,5.4,1.7,9.3,5,11.5c0.1,0.1,0.3,0.2,0.4,0.2l4.9,2.9c-0.1-0.1-0.3-0.2-0.4-0.2
	c3.3,2.2,7.6,1.7,12.8-1.3s9.5-7.5,12.8-13.5s4.9-11.8,4.9-17.2s-1.6-9.3-4.7-11.4c-0.2-0.1-0.4-0.3-0.6-0.4l0,0l-4.9-2.9
	c0,0-0.1,0-0.1-0.1c-0.3-0.2-0.6-0.3-0.9-0.5c-0.1,0-0.1,0-0.2-0.1c-0.1,0-0.2-0.1-0.3-0.1c-0.2-0.1-0.3-0.1-0.5-0.2
	c-0.2-0.1-0.4-0.1-0.6-0.1c-0.1,0-0.2,0-0.3-0.1h-0.1c-0.3-0.1-0.7-0.1-1-0.1c-0.1,0-0.1,0-0.2,0c-0.1,0-0.2,0-0.3,0
	c-0.2,0-0.4,0-0.6,0c-0.1,0-0.3,0-0.4,0c-0.2,0-0.3,0-0.5,0c-0.1,0-0.2,0-0.3,0c-0.2,0-0.4,0.1-0.6,0.1c-0.2,0-0.4,0.1-0.6,0.1
	c-0.1,0-0.1,0-0.2,0c-0.4,0.1-0.8,0.2-1.2,0.4c-0.1,0-0.2,0.1-0.3,0.1c-0.2,0.1-0.4,0.1-0.6,0.2c-0.2,0.1-0.4,0.2-0.6,0.3
	c-0.2,0.1-0.3,0.1-0.5,0.2c-0.5,0.3-1.1,0.5-1.6,0.9c-0.6,0.4-1.2,0.7-1.8,1.1c-0.2,0.1-0.4,0.3-0.6,0.4c-0.4,0.3-0.8,0.6-1.2,0.9
	c-0.2,0.2-0.4,0.3-0.6,0.5c-0.4,0.3-0.7,0.6-1.1,0.9c-0.2,0.2-0.4,0.4-0.6,0.6c-0.1,0.1-0.2,0.2-0.3,0.3c-0.2,0.2-0.3,0.3-0.5,0.5
	c-0.3,0.3-0.7,0.7-1,1c-0.1,0.1-0.2,0.2-0.3,0.4c-0.2,0.2-0.4,0.4-0.5,0.7c-0.2,0.2-0.4,0.4-0.5,0.6c-0.1,0.1-0.2,0.2-0.2,0.3
	c-0.3,0.4-0.7,0.9-1,1.4l-0.1,0.1l0,0c-0.3,0.5-0.7,1-1,1.5c-0.1,0.1-0.2,0.3-0.2,0.4c-0.1,0.2-0.2,0.3-0.3,0.5s-0.3,0.4-0.4,0.6
	c-0.3,0.5-0.5,0.9-0.8,1.4c0,0.1-0.1,0.2-0.1,0.2c-0.3,0.6-0.6,1.1-0.8,1.7c0,0,0,0.1-0.1,0.1c-0.1,0.1-0.1,0.3-0.2,0.4
	c-0.2,0.3-0.3,0.7-0.5,1c-0.1,0.2-0.1,0.3-0.2,0.5c-0.1,0.2-0.2,0.4-0.2,0.6c-0.1,0.2-0.1,0.3-0.2,0.5c-0.1,0.3-0.2,0.6-0.3,0.9
	c-0.1,0.2-0.1,0.4-0.2,0.5c0,0.1,0,0.1-0.1,0.2c-0.2,0.6-0.4,1.2-0.5,1.8l0,0c0,0.1,0,0.2-0.1,0.3c-0.2,0.6-0.3,1.1-0.4,1.7
	c0,0,0,0,0,0.1c-0.2,0.8-0.3,1.6-0.4,2.3v0.1c0,0.4-0.1,0.8-0.1,1.2c0,0.2,0,0.4-0.1,0.7C607.7,621.6,607.7,622.3,607.7,622.9z
	 M566.5,646.7c0,5.4,1.7,9.3,5,11.5c0.1,0.1,0.3,0.2,0.4,0.2l4.9,2.9c-0.1-0.1-0.3-0.2-0.4-0.2c3.3,2.2,7.6,1.7,12.8-1.3
	s9.5-7.5,12.8-13.5s4.9-11.8,4.9-17.2s-1.6-9.3-4.7-11.4c-0.2-0.1-0.4-0.3-0.6-0.4l0,0l-4.9-2.9c0,0-0.1,0-0.1-0.1
	c-0.3-0.2-0.6-0.3-0.9-0.4c-0.1,0-0.1,0-0.2-0.1c-0.1,0-0.2-0.1-0.3-0.1c-0.2-0.1-0.3-0.1-0.5-0.2c-0.2-0.1-0.4-0.1-0.6-0.1
	c-0.1,0-0.2,0-0.3-0.1h-0.1c-0.3-0.1-0.7-0.1-1-0.1c-0.1,0-0.1,0-0.2,0c-0.1,0-0.2,0-0.3,0c-0.2,0-0.4,0-0.6,0c-0.1,0-0.3,0-0.4,0
	c-0.2,0-0.3,0-0.5,0c-0.1,0-0.2,0-0.3,0c-0.2,0-0.4,0.1-0.6,0.1c-0.2,0-0.4,0.1-0.6,0.1c-0.1,0-0.1,0-0.2,0
	c-0.4,0.1-0.8,0.2-1.2,0.4c-0.1,0-0.2,0.1-0.3,0.1c-0.2,0.1-0.4,0.1-0.6,0.2c-0.2,0.1-0.4,0.2-0.6,0.3c-0.2,0.1-0.3,0.1-0.5,0.2
	c-0.5,0.3-1.1,0.5-1.6,0.9c-0.6,0.4-1.2,0.7-1.8,1.1c-0.2,0.1-0.4,0.3-0.6,0.4c-0.4,0.3-0.8,0.6-1.2,0.9c-0.2,0.2-0.4,0.3-0.6,0.5
	c-0.4,0.3-0.7,0.6-1.1,0.9c-0.2,0.2-0.4,0.4-0.6,0.6c-0.1,0.1-0.2,0.2-0.3,0.3c-0.2,0.2-0.3,0.3-0.5,0.5c-0.3,0.3-0.7,0.7-1,1
	c-0.1,0.1-0.2,0.2-0.3,0.4c-0.2,0.2-0.4,0.4-0.5,0.7c-0.2,0.2-0.4,0.4-0.5,0.6c-0.1,0.1-0.2,0.2-0.2,0.3c-0.3,0.4-0.7,0.9-1,1.4
	c0,0,0,0.1-0.1,0.1l0,0c-0.3,0.5-0.7,1-1,1.5c-0.1,0.1-0.2,0.3-0.2,0.4c-0.1,0.2-0.2,0.3-0.3,0.5s-0.3,0.4-0.4,0.6
	c-0.3,0.5-0.5,0.9-0.8,1.4c0,0.1-0.1,0.2-0.1,0.3c-0.3,0.6-0.6,1.1-0.8,1.7c0,0,0,0.1-0.1,0.1c-0.1,0.1-0.1,0.3-0.2,0.4
	c-0.2,0.4-0.3,0.7-0.5,1.1c-0.1,0.2-0.1,0.3-0.2,0.5c-0.1,0.2-0.2,0.4-0.2,0.6c-0.1,0.2-0.1,0.3-0.2,0.5c-0.1,0.3-0.2,0.6-0.3,0.9
	c-0.1,0.2-0.1,0.4-0.2,0.5c0,0.1,0,0.1-0.1,0.2c-0.2,0.6-0.4,1.2-0.5,1.8l0,0c0,0.1,0,0.2-0.1,0.2c-0.2,0.6-0.3,1.2-0.4,1.8
	c0,0,0,0,0,0.1c-0.2,0.8-0.3,1.6-0.4,2.3v0.1c0,0.4-0.1,0.8-0.1,1.1c0,0.2,0,0.4-0.1,0.7C566.5,645.4,566.5,646,566.5,646.7z
	 M512.1,671.2c0,6.7,2,11.5,5.8,14.4c0.4,0.3,0.8,0.6,1.3,0.8l4.9,2.9l-0.1-0.1c4.8,2.9,11.2,2.1,19-2.4c6.9-4,12.6-9.7,16.7-16.8
	c4.1-7.2,6.2-14.9,6.3-23v-0.4l-4.9-2.9l-20.2,11.6v5.8l4.9,2.9l7.7-4.5c-0.1,0.2-0.1,0.3-0.2,0.5c0,0.1,0,0.1-0.1,0.2
	c-0.2,0.5-0.4,1-0.6,1.4c-0.1,0.2-0.1,0.3-0.2,0.5c-0.2,0.4-0.4,0.8-0.6,1.2c-0.1,0.1-0.1,0.3-0.2,0.4c-0.3,0.5-0.6,1-0.9,1.6
	c-0.1,0.1-0.1,0.2-0.2,0.3c-0.3,0.5-0.6,1-0.9,1.4c-0.3,0.5-0.6,0.9-1,1.4c-0.2,0.2-0.3,0.4-0.5,0.7s-0.4,0.6-0.7,0.9
	c-0.2,0.3-0.4,0.5-0.7,0.8c-0.2,0.2-0.4,0.4-0.6,0.7c-0.4,0.5-0.8,0.9-1.2,1.3c-0.2,0.2-0.3,0.3-0.5,0.5c-0.3,0.3-0.6,0.5-0.9,0.8
	c-0.2,0.2-0.4,0.4-0.6,0.6c-0.3,0.3-0.6,0.5-1,0.8c-0.2,0.2-0.4,0.3-0.6,0.5c-0.4,0.3-0.7,0.5-1.1,0.8c-0.2,0.1-0.4,0.3-0.6,0.4
	c-0.6,0.4-1.1,0.7-1.7,1.1c-0.5,0.3-1,0.6-1.5,0.8c-0.2,0.1-0.3,0.2-0.5,0.2c-0.3,0.2-0.7,0.3-1,0.5c-0.2,0.1-0.4,0.2-0.7,0.3
	c-0.2,0.1-0.4,0.2-0.6,0.2c-0.2,0.1-0.5,0.2-0.7,0.2c-0.2,0.1-0.4,0.1-0.6,0.2c-0.4,0.1-0.7,0.2-1.1,0.3l0,0
	c-0.4,0.1-0.7,0.1-1.1,0.2c-0.5,0.1-1,0.1-1.4,0.1s-0.8,0-1.2,0c-0.3,0-0.5,0-0.7-0.1c-0.2,0-0.4,0-0.6-0.1c-0.2,0-0.4-0.1-0.6-0.1
	c-0.2-0.2-0.4-0.5-0.6-0.7c-1.8-2.4-2.7-5.6-2.7-9.4c0-3.7,0.8-7.8,2.6-12.1c1.7-4.3,4.2-8.4,7.3-12.2c3.1-3.7,6.4-6.6,9.8-8.6
	c2.8-1.6,5.8-2.6,8.8-2.9c2.9-0.3,5.7,0.3,8.2,1.7l0.2,0.1l4-6.7l-4.9-2.9l-0.3-0.1l0,0c-0.4-0.2-0.9-0.4-1.3-0.6h-0.1
	c-0.3-0.1-0.7-0.3-1-0.4c-0.1,0-0.1,0-0.2-0.1c-0.3-0.1-0.5-0.2-0.8-0.3h-0.1c-0.5-0.2-1.1-0.3-1.7-0.4h-0.1c-0.1,0-0.2,0-0.3,0
	c-0.4-0.1-0.9-0.1-1.3-0.2c-0.1,0-0.2,0-0.3,0h-0.1c-0.5,0-1.1,0-1.6,0H549c-0.4,0-0.7,0-1.1,0.1c-0.3,0-0.6,0.1-0.9,0.1
	c-0.1,0-0.1,0-0.2,0c-0.2,0-0.4,0.1-0.6,0.1c-0.2,0-0.5,0.1-0.7,0.1s-0.4,0.1-0.6,0.1c-0.1,0-0.3,0.1-0.4,0.1
	c-0.1,0-0.2,0.1-0.3,0.1c-0.3,0.1-0.7,0.2-1,0.3c-0.2,0.1-0.3,0.1-0.5,0.2c-0.5,0.2-1,0.3-1.4,0.5h-0.1l0,0
	c-0.6,0.3-1.2,0.5-1.9,0.9c-0.2,0.1-0.3,0.2-0.5,0.2c-0.6,0.3-1.3,0.7-1.9,1c-0.7,0.4-1.5,0.9-2.2,1.4c-0.2,0.1-0.4,0.3-0.6,0.4
	c-0.6,0.4-1.1,0.8-1.7,1.2c-0.2,0.1-0.3,0.2-0.5,0.4c-0.7,0.5-1.4,1.1-2,1.7c-0.1,0.1-0.3,0.3-0.4,0.4c-0.5,0.5-1.1,1-1.6,1.5
	c-0.1,0.1-0.2,0.2-0.3,0.3s-0.2,0.3-0.4,0.4c-0.2,0.2-0.4,0.4-0.6,0.6c-0.3,0.3-0.6,0.6-0.8,0.9c-0.2,0.2-0.4,0.4-0.6,0.6
	c-0.1,0.1-0.2,0.2-0.3,0.3c-0.3,0.4-0.6,0.8-1,1.1c-0.3,0.4-0.7,0.8-1,1.3c-0.1,0.1-0.1,0.1-0.2,0.2c-0.4,0.5-0.8,1.1-1.2,1.6
	c-0.1,0.1-0.2,0.2-0.2,0.3c0,0,0,0,0,0.1c-0.4,0.6-0.9,1.3-1.3,1.9l0,0c-0.1,0.2-0.2,0.4-0.4,0.6c-0.3,0.4-0.5,0.8-0.8,1.3
	c0,0,0,0,0,0.1c-0.2,0.3-0.3,0.6-0.5,0.9c-0.2,0.3-0.4,0.6-0.5,0.9c0,0,0,0,0,0.1c-0.2,0.3-0.3,0.7-0.5,1s-0.3,0.6-0.5,0.9l0,0
	c-0.1,0.3-0.3,0.6-0.4,0.8c-0.2,0.4-0.4,0.8-0.5,1.1c0,0,0,0,0,0.1c-0.3,0.6-0.5,1.3-0.8,1.9c0,0.1-0.1,0.2-0.1,0.3
	c-0.1,0.2-0.1,0.4-0.2,0.6c-0.2,0.5-0.4,1-0.5,1.5c0,0.1-0.1,0.2-0.1,0.2c-0.1,0.2-0.1,0.4-0.2,0.5c-0.2,0.5-0.3,1-0.5,1.5
	c0,0.1-0.1,0.3-0.1,0.4c0,0.1-0.1,0.3-0.1,0.4c-0.2,0.6-0.3,1.3-0.5,1.9c0,0.1-0.1,0.3-0.1,0.4c0,0.1,0,0.1,0,0.2
	c0,0.2-0.1,0.4-0.1,0.6c-0.1,0.4-0.2,0.8-0.2,1.2c0,0.2-0.1,0.5-0.1,0.7s-0.1,0.4-0.1,0.6c0,0.1,0,0.3,0,0.4c-0.1,0.5-0.1,1-0.1,1.5
	c0,0.2,0,0.5-0.1,0.7C512.1,669.8,512.1,670.5,512.1,671.2z M695.3,813.8c0.6-1.7,1.1-3.4,1.2-4.7
	C696.4,810.4,695.9,812.1,695.3,813.8z M694.7,815.4c0.1-0.2,0.2-0.4,0.3-0.6C694.8,814.9,694.8,815.2,694.7,815.4z M522.8,688.5
	L522.8,688.5L522.8,688.5c-0.9-0.7-1.7-1.5-2.4-2.5l0,0C521.1,687,521.9,687.8,522.8,688.5z M563.1,630l-2.5-1.4L563.1,630
	L563.1,630z M565.1,650.5c0,0.3-0.1,0.6-0.1,0.9l0,0C565,651.2,565,650.9,565.1,650.5L565.1,650.5z M662.2,604.6c0.1,0,0.1,0,0.2,0
	c0.3,0,0.5,0,0.8,0c0.1,0,0.2,0,0.3,0c0.2,0,0.5-0.1,0.7-0.1s0.3-0.1,0.5-0.1c0.3-0.1,0.7-0.2,1-0.3c0.1,0,0.1,0,0.2-0.1
	c0.3-0.1,0.6-0.2,0.9-0.4c0.1-0.1,0.2-0.1,0.4-0.2c0.4-0.2,0.8-0.4,1.2-0.6c0.5-0.3,1-0.6,1.5-1c0.1-0.1,0.2-0.2,0.4-0.3
	c0.5-0.4,1-0.7,1.4-1.2l0.1-0.1c0.4-0.4,0.8-0.8,1.2-1.2c0.2-0.2,0.4-0.4,0.6-0.6c0.4-0.4,0.8-0.9,1.2-1.4c0.5-0.6,0.9-1.2,1.3-1.8
	c0.1-0.1,0.1-0.2,0.2-0.3c0.4-0.6,0.7-1.2,1.1-1.8c0-0.1,0.1-0.2,0.1-0.2c0.3-0.6,0.7-1.2,1-1.9c0-0.1,0.1-0.2,0.1-0.3
	c0.3-0.7,0.6-1.4,0.9-2.1c0.3-0.7,0.5-1.3,0.7-2c0-0.1,0.1-0.3,0.1-0.4c0.2-0.6,0.3-1.3,0.5-1.9c0-0.2,0.1-0.4,0.1-0.7
	c0.1-0.5,0.2-0.9,0.2-1.4c0-0.1,0-0.3,0-0.4c0.1-0.6,0.1-1.2,0.1-1.8c0-2.6-0.6-4.9-1.8-6.6l0,0c-1.9-0.1-4,0.4-6.1,1.7
	c-2.3,1.3-4.5,3.3-6.5,5.8s-3.6,5.2-4.7,8.1c-1.1,2.9-1.6,5.8-1.6,8.6c0,2.9,0.6,5.1,1.7,6.7C662.1,604.6,662.1,604.6,662.2,604.6z
	 M684.4,568c-0.2-0.1-0.3-0.1-0.5-0.1c0.2,0.1,0.4,0.1,0.6,0.2C684.5,568,684.4,568,684.4,568z M683.1,567.6c-0.2,0-0.4-0.1-0.6-0.1
	C682.7,567.6,682.9,567.6,683.1,567.6L683.1,567.6z M716.1,573.9c0.2,0,0.5,0,0.7,0c0.1,0,0.2,0,0.3,0c0.2,0,0.4-0.1,0.6-0.1
	c0.1,0,0.3-0.1,0.4-0.1c0.2,0,0.3-0.1,0.5-0.1c0.3-0.1,0.6-0.2,0.9-0.3c0.2-0.1,0.4-0.2,0.7-0.3c0.1,0,0.2-0.1,0.3-0.2
	c0.4-0.2,0.7-0.4,1.1-0.6c0.4-0.2,0.8-0.5,1.2-0.8c0.1-0.1,0.3-0.2,0.4-0.3c0.3-0.2,0.5-0.4,0.8-0.6c0.2-0.1,0.3-0.3,0.5-0.4
	c0.2-0.2,0.5-0.4,0.7-0.6c0.2-0.1,0.3-0.3,0.5-0.5s0.5-0.5,0.7-0.7c0.5-0.5,0.9-0.9,1.3-1.4c0.2-0.2,0.3-0.4,0.5-0.6
	c0.2-0.2,0.4-0.4,0.5-0.6c0.2-0.2,0.4-0.5,0.6-0.7c0.1-0.1,0.2-0.3,0.3-0.4c0.3-0.4,0.5-0.8,0.8-1.2c0.1-0.2,0.3-0.5,0.4-0.7v-0.1
	c0.2-0.3,0.3-0.5,0.5-0.8c0-0.1,0.1-0.2,0.1-0.3c0.2-0.4,0.4-0.8,0.6-1.2l0,0c0.2-0.3,0.3-0.6,0.5-1c0-0.1,0.1-0.2,0.1-0.3
	c0.1-0.3,0.2-0.5,0.3-0.8c0.1-0.2,0.2-0.5,0.3-0.8c0-0.1,0.1-0.2,0.1-0.3c0.1-0.3,0.2-0.5,0.3-0.8L714,567.6
	c0.1,2.6,0.7,4.7,1.6,6.2C716,573.9,716.1,573.9,716.1,573.9z M732.8,542.9c-0.2,0-0.4,0-0.6,0c-1.8,0.1-3.6,0.7-5.5,1.8
	c-3.2,1.8-5.9,4.6-8.2,8.3c-0.4,0.7-0.8,1.4-1.2,2.2l16.6-9.6C733.6,544.6,733.3,543.7,732.8,542.9z M736.5,536.7
	C736.4,536.7,736.4,536.7,736.5,536.7c0,0,0.1,0,0.2,0C736.6,536.8,736.5,536.8,736.5,536.7z M573.7,658.3L573.7,658.3
	c0.5,0.7,1,1.3,1.6,1.8C574.7,659.6,574.2,658.9,573.7,658.3z M564.8,653.3c0,0.1,0,0.2,0,0.2C564.7,653.5,564.8,653.4,564.8,653.3
	L564.8,653.3z M681.3,819.2L681.3,819.2L681.3,819.2z M619.4,629.4c0.2,0,0.3,0,0.5,0c0.1,0,0.2,0,0.3,0c0.2,0,0.4,0,0.6-0.1
	c0.1,0,0.2,0,0.3,0c0.3,0,0.6-0.1,0.9-0.2c0.1,0,0.1,0,0.2,0c0.1,0,0.2-0.1,0.3-0.1c0.2-0.1,0.3-0.1,0.5-0.2c0.1,0,0.2-0.1,0.3-0.1
	c0.2-0.1,0.3-0.1,0.5-0.2c0.2-0.1,0.4-0.2,0.6-0.3c0.1,0,0.2-0.1,0.3-0.1c0.3-0.2,0.6-0.3,0.9-0.5c0.5-0.3,1-0.6,1.5-1
	c0.1-0.1,0.2-0.2,0.4-0.3c0.5-0.4,1-0.7,1.5-1.2l0,0c0.4-0.4,0.9-0.8,1.3-1.3c0.2-0.2,0.4-0.4,0.6-0.6c0.4-0.4,0.8-0.8,1.1-1.3
	c0.5-0.6,0.9-1.2,1.3-1.8c0.1-0.1,0.1-0.2,0.2-0.2c0.4-0.6,0.7-1.1,1.1-1.7c0-0.1,0.1-0.1,0.1-0.2c0.3-0.6,0.7-1.2,1-1.9
	c0-0.1,0.1-0.2,0.1-0.2c0.3-0.7,0.6-1.3,0.9-2c0.3-0.7,0.5-1.3,0.7-2c0-0.1,0.1-0.2,0.1-0.3c0.2-0.6,0.3-1.3,0.5-1.9
	c0-0.2,0.1-0.5,0.1-0.7c0.1-0.5,0.2-0.9,0.2-1.4c0-0.1,0-0.3,0-0.4c0.1-0.6,0.1-1.2,0.1-1.8c0-2.8-0.6-5-1.7-6.6
	c-1.8-0.2-3.9,0.4-6.1,1.7c-3.5,2-6.5,5.2-8.9,9.6c-2.5,4.4-3.7,8.7-3.7,12.9C617.7,625.6,618.2,627.7,619.4,629.4L619.4,629.4z
	 M578.3,653.2c0.2,0,0.3,0,0.5,0c0.1,0,0.2,0,0.3,0c0.2,0,0.4,0,0.6-0.1c0.1,0,0.2,0,0.3,0c0.3,0,0.6-0.1,0.9-0.2c0.1,0,0.1,0,0.2,0
	c0.1,0,0.2-0.1,0.3-0.1c0.2-0.1,0.3-0.1,0.5-0.2c0.1,0,0.2-0.1,0.3-0.1c0.2-0.1,0.3-0.1,0.5-0.2c0.2-0.1,0.4-0.2,0.6-0.3
	c0.1,0,0.2-0.1,0.3-0.1c0.3-0.2,0.6-0.3,0.9-0.5c0.5-0.3,1-0.6,1.5-1c0.1-0.1,0.2-0.2,0.4-0.3c0.5-0.4,1-0.7,1.5-1.2l0,0
	c0.4-0.4,0.9-0.8,1.3-1.3c0.2-0.2,0.4-0.4,0.6-0.6c0.4-0.4,0.8-0.8,1.1-1.3c0.5-0.6,0.9-1.2,1.3-1.8c0.1-0.1,0.1-0.2,0.2-0.2
	c0.4-0.6,0.7-1.1,1.1-1.7c0-0.1,0.1-0.1,0.1-0.2c0.3-0.6,0.7-1.2,1-1.9c0-0.1,0.1-0.2,0.1-0.2c0.3-0.7,0.6-1.3,0.9-2
	c0.3-0.7,0.5-1.3,0.7-2c0-0.1,0.1-0.2,0.1-0.3c0.2-0.6,0.3-1.3,0.5-1.9c0-0.2,0.1-0.5,0.1-0.7c0.1-0.5,0.2-0.9,0.2-1.4
	c0-0.1,0-0.3,0-0.4c0.1-0.6,0.1-1.2,0.1-1.8c0-2.8-0.6-5-1.7-6.6c-1.8-0.2-3.9,0.4-6.1,1.7c-3.5,2-6.5,5.2-8.9,9.6
	c-2.5,4.4-3.7,8.7-3.7,12.9C576.5,649.3,577.1,651.5,578.3,653.2C578.2,653.2,578.2,653.2,578.3,653.2z M614.9,634.5L614.9,634.5
	c0.2,0.3,0.4,0.5,0.6,0.8C615.2,635,615.1,634.8,614.9,634.5z M564.3,656.1c0,0.1,0,0.2,0,0.2C564.3,656.2,564.3,656.2,564.3,656.1
	L564.3,656.1z M650,829c-0.1,0-0.1-0.1-0.2-0.1C649.9,828.9,649.9,828.9,650,829z M650,829l0.1,0.1C650.1,829.1,650.1,829,650,829z
	 M650.8,829.8c-0.1-0.1-0.2-0.2-0.3-0.4c-0.1-0.1-0.1-0.2-0.2-0.2c0.1,0.1,0.1,0.1,0.2,0.2C650.5,829.6,650.7,829.7,650.8,829.8z
	 M649.6,828.8c0.1,0,0.1,0,0.2,0C649.7,828.9,649.6,828.8,649.6,828.8z M649.5,818.8C649.5,818.8,649.4,818.8,649.5,818.8
	C649.4,818.8,649.5,818.8,649.5,818.8z M648.9,829c0.1,0,0.1-0.1,0.2-0.1C649,828.9,648.9,828.9,648.9,829z M648.7,829.1
	c0,0,0.1,0,0.1-0.1C648.7,829,648.7,829,648.7,829.1z M650.4,819.1c0,0-0.1,0-0.1-0.1C650.3,819.1,650.3,819.1,650.4,819.1z
	 M646.9,830.1L646.9,830.1L646.9,830.1z M648.5,829.2C648.5,829.2,648.5,829.1,648.5,829.2C648.5,829.1,648.5,829.2,648.5,829.2z
	 M1376.7,424.7v455.1c0,9.8-10.6,15.9-19.1,11l-221.9-128.1c-0.7-4.1-2.8-8.5-7.5-12.5c-7.3-6.2-15.2-6-21.4-4.2l-67.1-38.7
	c-3.9-2.3-6.4-6.5-6.4-11v-438c1,1.2,2.2,2.3,3.6,3.1L1356,445.5c8.1,4.7,18.2-1.2,18.2-10.5v-13.2c0-2.6-0.8-5.1-2.3-7.1
	C1374.9,417.1,1376.7,420.8,1376.7,424.7z M1293.6,568.4c0.1-4.6-2.2-8.8-6.2-11.1l-150-86c-8.2-4.7-18.5,1.2-18.5,10.7v65.3l0,0
	v20.2c0,0.5,0,1,0.1,1.5c0,0.1,0,0.2,0,0.3c0.1,0.5,0.2,0.9,0.3,1.4c0,0.1,0.1,0.2,0.1,0.3c0.1,0.4,0.3,0.8,0.4,1.2
	c0,0.1,0.1,0.2,0.1,0.3c0.2,0.4,0.3,0.7,0.5,1.1c0.1,0.1,0.1,0.3,0.2,0.4c0.2,0.3,0.4,0.6,0.6,0.9c0,0,0,0.1,0.1,0.1
	c0.1,0.2,0.3,0.3,0.4,0.5c0.2,0.2,0.4,0.4,0.6,0.6c0.1,0.2,0.3,0.3,0.5,0.4c0.2,0.2,0.5,0.4,0.7,0.6c0.1,0.1,0.3,0.2,0.4,0.3
	c0.4,0.3,0.8,0.6,1.3,0.8l147.4,82.6c0.3,0.1,0.5,0.3,0.8,0.4c0,0,0.1,0,0.1,0.1c0.2,0.1,0.4,0.2,0.7,0.3c0.1,0,0.1,0,0.2,0.1
	c0.2,0.1,0.4,0.2,0.6,0.2c0.1,0,0.1,0,0.2,0.1c0.2,0.1,0.4,0.1,0.6,0.2c0.1,0,0.1,0,0.2,0c0.2,0,0.4,0.1,0.6,0.1c0.1,0,0.1,0,0.2,0
	c0.2,0,0.4,0.1,0.6,0.1h0.1c0.2,0,0.4,0,0.7,0h0.1c0.2,0,0.5,0,0.7,0h0.1c0.2,0,0.5,0,0.7,0c0,0,0,0,0.1,0c0.2,0,0.5,0,0.7-0.1l0,0
	c0.2,0,0.5-0.1,0.7-0.1l0,0c1.3-0.3,2.5-0.7,3.6-1.4l0,0l0,0c3.5-2,6.1-5.7,6.2-10.3L1293.6,568.4z M653.6,823.1
	c-0.1-0.4-0.2-0.7-0.3-1.1C653.5,822.3,653.6,822.7,653.6,823.1c0.2,1.2,0.3,2.2,0.2,3.1C653.9,825.3,653.8,824.2,653.6,823.1z
	 M651.2,819.5c-0.1,0-0.1-0.1-0.2-0.1C651.1,819.4,651.2,819.5,651.2,819.5z M649.1,828.9h0.1C649.2,828.9,649.2,828.9,649.1,828.9z
	 M653.2,821.7c-0.1-0.2-0.2-0.4-0.3-0.6C653,821.3,653.1,821.5,653.2,821.7z M693.8,824.6c-0.1-0.1-0.1-0.2-0.2-0.3
	C693.7,824.4,693.8,824.5,693.8,824.6z M678.2,809.5c-0.3-0.8-0.8-1.5-1.3-2.1C677.5,808,677.9,808.7,678.2,809.5z M678.8,818.4
	c0,0.1,0,0.1,0,0.2C678.8,818.5,678.8,818.5,678.8,818.4z M678.6,810.7c0.1,0.4,0.2,0.8,0.3,1.2C678.8,811.4,678.7,811,678.6,810.7z
	 M677.4,825.2C677.4,825.2,677.4,825.3,677.4,825.2C677.4,825.3,677.4,825.2,677.4,825.2z M679.1,814.4c0-0.5,0-1-0.1-1.5
	C679,813.3,679.1,813.8,679.1,814.4z M678.4,821.3c0,0.1,0,0.2-0.1,0.3C678.3,821.5,678.4,821.4,678.4,821.3z M678.1,822.6
	c0,0.1,0,0.2-0.1,0.3C678.1,822.8,678.1,822.7,678.1,822.6z M649.5,828.8h-0.1H649.5z M661,801c0.2,0.1,0.5,0.2,0.7,0.3
	C661.4,801.2,661.2,801.1,661,801z M651.7,819.8c0.1,0.1,0.2,0.2,0.3,0.2C651.9,820,651.8,819.9,651.7,819.8z M652.7,820.8
	c-0.1-0.1-0.2-0.3-0.3-0.4C652.5,820.5,652.6,820.6,652.7,820.8z M664.9,802.7c-0.5-0.2-1-0.4-1.5-0.6
	C663.9,802.3,664.4,802.5,664.9,802.7z M694,816.9c-0.2,0.5-0.4,0.9-0.6,1.3C693.6,817.8,693.8,817.4,694,816.9z M692.8,819.4
	c0.1-0.2,0.2-0.3,0.3-0.5C693,819,692.9,819.2,692.8,819.4z M679.1,814.4c0,0.8,0,1.7-0.1,2.6C679.1,816.1,679.1,815.2,679.1,814.4z
	 M1201.7,913.6c-0.1,0-0.1,0-0.2-0.1C1201.5,913.6,1201.6,913.6,1201.7,913.6z M1201.3,913.5c-0.1,0-0.1,0-0.2,0
	C1201.1,913.5,1201.2,913.5,1201.3,913.5z M1197.7,911.4c-0.1,0.7-0.1,1.4-0.1,2.1C1197.6,912.8,1197.6,912.1,1197.7,911.4z
	 M1200.9,913.4c-0.1,0-0.1,0-0.2,0C1200.8,913.4,1200.9,913.4,1200.9,913.4z M1200.5,913.3h0.1H1200.5z M1132.9,857.6
	c0.1,0.1,0.2,0.2,0.2,0.3C1133,857.8,1132.9,857.7,1132.9,857.6z M1197.6,913.4c0.1,0.8,0.2,1.5,0.4,2l0,0
	C1197.8,914.9,1197.7,914.2,1197.6,913.4z M1134.6,859.6l-0.2,0.3l0,0l0,0L1134.6,859.6z M1133.6,858.6c0.1,0.1,0.1,0.2,0.2,0.3
	C1133.7,858.8,1133.6,858.7,1133.6,858.6z M1132.1,856.7c0.1,0.1,0.2,0.2,0.2,0.3C1132.3,856.9,1132.2,856.8,1132.1,856.7z
	 M1200.3,913.3h0.1C1200.4,913.3,1200.4,913.3,1200.3,913.3z M1204.8,914.6c-0.1,0-0.2-0.1-0.3-0.1
	C1204.6,914.5,1204.7,914.5,1204.8,914.6z M1211.4,918.1c0.1,0.1,0.2,0.1,0.2,0.2C1211.5,918.2,1211.4,918.1,1211.4,918.1z
	 M1210.7,917.6c0.1,0.1,0.2,0.1,0.3,0.2C1210.8,917.7,1210.7,917.6,1210.7,917.6z M1209.5,916.8c-0.1-0.1-0.2-0.1-0.3-0.2
	C1209.3,916.7,1209.4,916.7,1209.5,916.8z M1209.9,917.1c0.1,0.1,0.2,0.1,0.3,0.2C1210.1,917.2,1210,917.1,1209.9,917.1z
	 M1200.3,913.3L1200.3,913.3L1200.3,913.3z M1207.8,915.9c0.1,0,0.1,0.1,0.2,0.1C1208,915.9,1207.9,915.9,1207.8,915.9z
	 M1208.8,916.4c-0.1-0.1-0.2-0.1-0.3-0.1C1208.6,916.3,1208.7,916.3,1208.8,916.4z M1202.9,913.9c-0.1,0-0.1,0-0.2-0.1
	C1202.8,913.9,1202.9,913.9,1202.9,913.9z M1202.1,913.7c-0.1,0-0.1,0-0.2-0.1C1202,913.7,1202,913.7,1202.1,913.7z M1203.5,914.1
	c-0.1,0-0.2-0.1-0.3-0.1C1203.3,914.1,1203.4,914.1,1203.5,914.1z M1131.2,855.8l0.1,0.1C1131.3,855.9,1131.3,855.8,1131.2,855.8z
	 M1204.1,914.3c-0.1,0-0.2-0.1-0.3-0.1C1204,914.3,1204,914.3,1204.1,914.3z M1200.2,906.6c0.3-0.3,0.6-0.5,0.9-0.8
	C1200.8,906.1,1200.5,906.4,1200.2,906.6z M1205.9,915c0.1,0,0.2,0.1,0.2,0.1S1206,915,1205.9,915z M1115.5,846.2L1115.5,846.2
	L1115.5,846.2c0,0-0.1-0.2-0.2-0.6C1115.5,846,1115.5,846.2,1115.5,846.2z M1197.8,910.8c0.3-1.4,1-2.8,2.4-4.2
	C1198.8,908,1198.1,909.5,1197.8,910.8z M1071.7,1286.1L1071.7,1286.1L1071.7,1286.1z M1118.4,847.3L1118.4,847.3L1118.4,847.3
	L1118.4,847.3z M1203.1,904.5c0.5-0.3,1-0.5,1.6-0.8C1204.1,904,1203.6,904.2,1203.1,904.5z M1071.8,1285.9L1071.8,1285.9
	L1071.8,1285.9z M1071.9,1283.3L1071.9,1283.3L1071.9,1283.3z M1071.9,1284.2L1071.9,1284.2L1071.9,1284.2z M1071.8,1284.9
	L1071.8,1284.9L1071.8,1284.9z M1071.8,1285.5L1071.8,1285.5L1071.8,1285.5z M1126.8,852c-0.1-0.1-0.3-0.2-0.4-0.3
	C1126.5,851.8,1126.6,851.9,1126.8,852z M1125.5,851.1c0.1,0.1,0.3,0.2,0.4,0.3C1125.7,851.3,1125.6,851.2,1125.5,851.1z
	 M1124.6,850.5c0.1,0.1,0.2,0.2,0.4,0.2C1124.8,850.7,1124.7,850.6,1124.6,850.5z M1120,848.1c0,0-0.1,0-0.1-0.1h-0.1
	C1119.9,848,1120,848.1,1120,848.1L1120,848.1z M1122.9,849.5c-0.1-0.1-0.3-0.2-0.4-0.2C1122.6,849.4,1122.7,849.5,1122.9,849.5z
	 M1122,849.1c-0.1-0.1-0.3-0.1-0.4-0.2C1121.7,848.9,1121.9,849,1122,849.1z M1123.7,850c-0.1-0.1-0.3-0.2-0.4-0.2
	C1123.5,849.9,1123.6,850,1123.7,850z M1121.1,848.6c-0.1-0.1-0.2-0.1-0.3-0.2C1120.9,848.5,1121,848.6,1121.1,848.6z M1129.7,854.3
	c-0.1-0.1-0.2-0.2-0.3-0.3C1129.5,854.1,1129.6,854.2,1129.7,854.3z M1130.6,855.1c-0.1-0.1-0.2-0.2-0.3-0.3
	C1130.4,854.9,1130.5,855,1130.6,855.1z M1128.8,853.6c-0.1-0.1-0.2-0.2-0.3-0.3C1128.6,853.4,1128.7,853.5,1128.8,853.6z
	 M1127.4,852.4c0.1,0.1,0.2,0.1,0.3,0.2C1127.6,852.6,1127.5,852.5,1127.4,852.4z M752.3,907.3c0-0.5-0.1-0.9-0.1-1.4
	C752.3,906.3,752.3,906.8,752.3,907.3z M752.7,913c0,0.5,0.1,1.1,0.1,1.6C752.8,914,752.7,913.5,752.7,913z M753,916.8
	c0-0.4,0-0.7-0.1-1.1C752.9,916,752.9,916.4,753,916.8z M753.1,919c0-0.3,0-0.6-0.1-1C753.1,918.3,753.1,918.7,753.1,919z
	 M753.4,924c0,0.3,0,0.7,0.1,1C753.5,924.6,753.4,924.3,753.4,924z M753.7,927.8c0-0.5-0.1-0.9-0.1-1.4
	C753.6,926.9,753.6,927.3,753.7,927.8z M753.3,921.4c0,0.4,0,0.8,0.1,1.1C753.3,922.2,753.3,921.8,753.3,921.4z M752.6,910.7
	c0,0.6,0.1,1.2,0.1,1.8C752.6,911.9,752.6,911.3,752.6,910.7z M499.3,1024.1L499.3,1024.1L499.3,1024.1z M751.9,901.3
	c0,0.6,0.1,1.3,0.1,2C752,902.6,752,902,751.9,901.3z M752.1,903.7c0,0.5,0.1,1.1,0.1,1.7C752.2,904.8,752.1,904.2,752.1,903.7z
	 M752.5,909.5c0-0.5-0.1-1-0.1-1.5C752.4,908.6,752.5,909.1,752.5,909.5z M798.8,883.6l-24.7-8.1l9.8,3.2L798.8,883.6z M755.1,950.4
	c0,0.2,0,0.4,0,0.6C755.1,950.8,755.1,950.6,755.1,950.4z M753.8,930.7c0-0.6-0.1-1.3-0.1-1.9C753.8,929.4,753.8,930.1,753.8,930.7z
	 M755.2,953.1L755.2,953.1L755.2,953.1z M520.2,1011.8l-1.2,0.7c-0.8,0.8-1.6,1.5-2.5,2.2c-2.7,2.2-5.2,4-7.8,5.5
	c-2.5,1.5-5.1,2.6-7.6,3.4c-0.2,0.1-0.3,0.1-0.5,0.1l0.3,0.2c0,0.1,0,0.1,0,0.2c-0.1,0.5-0.1,0.9-0.1,1.2c0,1.6,0.4,2.9,1.1,3.9
	l2.9,1.7l0.2,53.4c0,0.7,0.2,1.2,0.6,1.5c0.5,0.4,1.2,0.4,2.1,0l2.6-1.5c1.5-0.8,2.6-2.9,2.6-4.6l-0.2-53.4
	c2.3-2.9,3.9-6.8,3.9-10.1c0-0.4,0-0.7-0.1-1.1l0,0C517.9,1014,519,1012.9,520.2,1011.8z M510.3,1083.9l-2.6,1.5
	c-1.3,0.7-2.3,0.1-2.3-1.3l-0.2-53.2c1.1,0,2.3-0.3,3.6-1.1c1.3-0.7,2.5-1.8,3.6-3.1l0.2,53.2
	C512.6,1081.4,511.6,1083.2,510.3,1083.9z M516.3,1017.3c0-0.3,0-0.6,0-0.9c0,2.7-1.1,5.7-2.7,8.3l0,0l0,0c-0.3,0.5-0.7,1-1.1,1.5
	l0,0l0,0l0,0c-1.1,1.3-2.3,2.5-3.7,3.2c-4.1,2.4-7.5,0.5-7.6-4.3c0-0.3,0-0.7,0.1-1.1c2.5-0.8,5-1.9,7.5-3.4c2.5-1.4,5-3.2,7.5-5.2
	c0,0.4,0.1,0.7,0.1,1.1c0-0.3,0-0.6-0.1-1c0,0.3,0.1,0.7,0.1,1C516.4,1016.7,516.4,1017,516.3,1017.3z M1139.9,1002
	c0-0.2,0-0.3,0-0.5c0.3,30,0.4,53.2,0.4,54.7v0.1l0,0l0,0L1128,1319v-0.7c1,0.9,1.7,1.6,1.7,1.6s44.6,0.4,32.1,15.2
	s-54.3,10.6-57.1,9.4c-2.4-1-0.7-17.1-0.2-22.8c0,0.3,0,0.4,0,0.4s-18.8-233.5-22.4-237.7c-3.3-3.8-8.7,164.8-10.1,196.6
	c7.2-0.2,20.4,0,19,4.1c-2,5.5-16,29.7-27,31.7c-10.9,2-17.6-0.8-18-2.7c-0.2-1.2,1.1-13.1,2.2-22.3v0.2l-13-240.3l1.4,26.6
	c-5.4-3.6-12-9.7-12.9-14.4c-1.2-6.6,2.7-18.1,4.9-24.5l-3.4-1.2c0,0,6.3-108.4,9.2-151.7c2.9-43.3,19-42.8,22-44.9l0,0
	c18.3-11.9,30.9-2,30.9-2v-6.3l25.9,4.3l0,0l-25.9-4.3v-6c-3.3-1.4-5.6-2.9-6.3-4.4c-0.8-1.8-2.4-4.5-4.3-7.7l-107.9-62.3
	l-60.4,34.9v85.8c0,7.5-4,14.4-10.4,18.1l-141.6,81.8c2.4,40.6,4.7,79.7,4.7,79.7l-3.4,1.2c2.3,6.4,6.2,18,4.9,24.5
	c-0.9,4.7-7.5,10.8-12.9,14.4l1.4-26.6l-13,240.3v-0.2c1.1,9.2,2.4,21.1,2.2,22.3c-0.4,2-7,4.7-18,2.7c-10.9-2-25-26.2-27-31.7
	c-1.4-4,11.8-4.2,19-4.1c-1.4-31.8-6.8-200.4-10.1-196.6c-3.6,4.2-22.4,237.7-22.4,237.7s0-0.1,0-0.4c0.6,5.7,2.2,21.8-0.2,22.8
	c-2.7,1.2-44.6,5.5-57.1-9.4s32.1-15.2,32.1-15.2s0.7-0.7,1.7-1.6v0.7L646,1071.3l0,0l0,0l0,0c0-0.5,0.1-26.3,0.5-59.1
	c-5.2,3.4-12.1,5.1-20.8,2.1c-8.6-3-18.7-13.9-28-26.2v65.6c0,7.5-4,14.4-10.4,18.1l-144,83.2c-13.9,8-31.3-2-31.3-18.1v-62.6
	l-248.3,143.4l867.2,500.7l674.9-389.6L1139.9,1002z M755.7,960.6L755.7,960.6L755.7,960.6z M753.9,932.1c0,0.6,0.1,1.3,0.1,1.9
	C754,933.4,754,932.8,753.9,932.1z M754.9,947.8c0,0.2,0,0.4,0,0.7C754.9,948.2,754.9,948,754.9,947.8z M754.2,936.4
	c0-0.5-0.1-0.9-0.1-1.4C754.1,935.5,754.2,936,754.2,936.4z M754.3,938.1c0,0.3,0,0.6,0.1,1C754.3,938.7,754.3,938.4,754.3,938.1z
	 M1115.1,844.7c-0.1-0.2-0.1-0.4-0.2-0.6C1115,844.3,1115.1,844.5,1115.1,844.7z M1213.3,919.8c-0.1-0.1-0.1-0.1-0.2-0.2
	C1213.1,919.7,1213.2,919.7,1213.3,919.8z M1113.7,838.8c0.2,0.8,0.4,1.5,0.5,2.2C1114,840.3,1113.8,839.5,1113.7,838.8z
	 M1213.9,920.5c-0.1-0.1-0.2-0.2-0.2-0.3C1213.7,920.3,1213.8,920.4,1213.9,920.5z M1214.9,921.9c-0.1-0.1-0.1-0.2-0.2-0.3
	C1214.8,921.7,1214.8,921.8,1214.9,921.9z M1214.2,920.9c0.1,0.1,0.2,0.2,0.2,0.3C1214.3,921.1,1214.2,921,1214.2,920.9z
	 M1215.1,922.4c0.1,0.1,0.1,0.2,0.2,0.4C1215.3,922.6,1215.2,922.5,1215.1,922.4z M1114.2,841.2c0.1,0.3,0.2,0.7,0.2,1
	C1114.4,841.8,1114.3,841.5,1114.2,841.2z M1115.2,845c0,0.1,0,0.2,0.1,0.2C1115.2,845.2,1115.2,845.1,1115.2,845z M1113.3,837.4
	c0.1,0.4,0.2,0.8,0.3,1.1C1113.5,838.1,1113.4,837.8,1113.3,837.4z M1115,844c-0.1-0.2-0.1-0.5-0.2-0.8
	C1114.8,843.5,1114.9,843.8,1115,844z M1114.5,842.2c0.1,0.3,0.2,0.6,0.2,0.9C1114.6,842.8,1114.6,842.5,1114.5,842.2z
	 M1205.2,914.7c0.1,0,0.2,0.1,0.3,0.1C1205.4,914.8,1205.3,914.7,1205.2,914.7z M1215.6,923.2c0.1,0.1,0.1,0.2,0.1,0.4
	C1215.7,923.5,1215.6,923.3,1215.6,923.2z M714.6,1299.9L714.6,1299.9L714.6,1299.9z M714.6,1299.2L714.6,1299.2L714.6,1299.2z
	 M615.5,956.8l8.7,8.5c-0.2-4.7-0.3-9.2-0.2-13.4L615.5,956.8z M714.7,1300.5L714.7,1300.5L714.7,1300.5z M714.5,1298.3
	L714.5,1298.3L714.5,1298.3z M714.7,1300.9L714.7,1300.9L714.7,1300.9z M1216.5,927.1C1216.5,927,1216.5,927,1216.5,927.1
	C1216.5,927,1216.5,927,1216.5,927.1z M1216.5,928.2v-0.1C1216.5,928.1,1216.5,928.2,1216.5,928.2z M714.7,1301.1L714.7,1301.1
	L714.7,1301.1z"></path>
<path id="color_x5F_5" fill="#fcbd9a" d="M1132.9,808.1c-1,6.2,1.4,8.7,3.2,6.3c1.2-1.5,2.4,0.4,3.8,0.7c0.9,7,0.7,13-1.4,15.4
	c-3.1,3.5-14.3,3.9-26.1,2.5c0.3,1.4,0.6,2.9,1,4.3l-25.9-4.3v-6c-3.3-1.4-5.6-2.9-6.3-4.4c-1.1-2.4-3.7-6.6-6.4-11.5
	c7.8,0.1,17,4.5,19.7-5.4c0,0-10.7-19.3,1-13.4c11.7,6,9.6,12.2,9.6,12.2l0.1,5.7h3.9c0,0-5-16.2,2.2-19s20.9-6.2,20.4-11.3
	c0,0,3.6,11.5,6.2,23.7C1135.7,803.9,1133.4,805,1132.9,808.1z M1223.1,889.5c-3.9,2,0.4,9-14.5,12.9c-12,3.2-11.5,10.1-10.7,13.1
	l2.3-2.2c0,0,13.5,2.4,15.9,11.7c6.3-2.7,14.6-8,17.9-16.3C1239.5,894.9,1227,887.5,1223.1,889.5z M1035.2,1051.6l0.4,7
	L1035.2,1051.6c0,0-0.1-3.7-0.2-10.1l-6.3-2.3c-2.3,6.4-6.2,18-4.9,24.5c0.9,4.7,7.5,10.8,12.9,14.4L1035.2,1051.6z M648.6,818.7
	c2.6-12.2,6.2-23.7,6.2-23.7c-0.5,5.2,13.2,8.5,20.4,11.3s2.2,19,2.2,19h3.9l0.1-5.7c0,0-2-6.2,9.6-12.2c11.7-6,1,13.4,1,13.4
	c2.7,9.9,11.9,5.5,19.7,5.4c-2.6,4.9-5.2,9.1-6.4,11.5c-0.7,1.5-3,3-6.3,4.4v6l-25.9,4.3c0.3-1.4,0.7-2.9,1-4.3
	c-11.8,1.4-23,1.1-26.1-2.5c-2.1-2.5-2.3-8.4-1.4-15.4c1.4-0.3,2.7-2.3,3.8-0.7c1.8,2.4,4.2-0.1,3.2-6.3
	C653.1,820,650.8,818.9,648.6,818.7z M552.4,923.6c3.3,8.3,11.6,13.6,17.9,16.3c2.4-9.3,15.9-11.7,15.9-11.7l2.3,2.2
	c0.8-3,1.3-10-10.7-13.1c-14.9-3.9-10.6-10.9-14.5-12.9S546.9,909.9,552.4,923.6z M749.8,1093.2c5.4-3.6,12-9.7,12.9-14.4
	c1.2-6.6-2.7-18.1-4.9-24.5l-6.3,2.3c-0.1,6.4-0.2,10-0.2,10l-0.4,7.1l0.4-7L749.8,1093.2z"></path>
<path id="color_x5F_4" fill="#fbc7ad" d="M518.3,937.3c-0.3,0.1-0.6,0.1-0.9,0.2l0,0C517.7,937.4,518,937.3,518.3,937.3L518.3,937.3
	z M484.5,1014.8L484.5,1014.8L484.5,1014.8L484.5,1014.8z M521.9,936.7c-0.3,0-0.7,0.1-1,0.1C521.2,936.7,521.5,936.7,521.9,936.7
	L521.9,936.7z M520.4,936.8c0.1,0,0.3,0,0.4-0.1C520.7,936.8,520.6,936.8,520.4,936.8L520.4,936.8z M517.5,943.2
	c0.3-0.1,0.7-0.1,1-0.2l0,0C518.2,943,517.8,943.1,517.5,943.2L517.5,943.2z M520.1,936.9c-0.1,0-0.2,0-0.2,0
	C519.9,936.9,520,936.9,520.1,936.9L520.1,936.9z M520,942.8c-0.4,0-0.8,0.1-1.2,0.2l0,0C519.2,942.9,519.6,942.8,520,942.8
	L520,942.8z M518.9,937.1L518.9,937.1c0.3-0.1,0.6-0.1,1-0.2C519.5,937,519.2,937,518.9,937.1z M516.4,1016.4c0,0.6,0,1.2-0.1,1.8
	C516.3,1017.6,516.4,1017,516.4,1016.4c0-0.3,0-0.6-0.1-1C516.3,1015.8,516.4,1016.1,516.4,1016.4z M484.5,1014.8L484.5,1014.8
	L484.5,1014.8L484.5,1014.8z M532.1,996.4c0.2-0.4,0.4-0.7,0.7-1.1l0,0C532.5,995.7,532.3,996,532.1,996.4z M512.6,1026.1
	c0.4-0.5,0.8-1,1.1-1.5C513.3,1025.2,512.9,1025.7,512.6,1026.1L512.6,1026.1z M494.2,1024.8h0.1
	C494.3,1024.8,494.3,1024.8,494.2,1024.8C494.3,1024.8,494.2,1024.8,494.2,1024.8z M488.1,1024.1L488.1,1024.1L488.1,1024.1
	L488.1,1024.1z M488.2,1024.1c0.1,0,0.2,0,0.3,0.1C488.4,1024.2,488.3,1024.2,488.2,1024.1L488.2,1024.1z M475.4,1009.3
	c0,0.2,0.1,0.3,0.1,0.5l0,0C475.5,1009.6,475.4,1009.4,475.4,1009.3L475.4,1009.3z M477.7,1015.5c0,0,0,0.1,0.1,0.1
	c0,0.1,0.1,0.1,0.1,0.2c-0.1-0.2-0.2-0.3-0.3-0.5C477.7,1015.4,477.7,1015.4,477.7,1015.5z M477.1,1014.2c0,0,0,0.1,0.1,0.1
	c0,0.1,0.1,0.2,0.1,0.3C477.2,1014.4,477.1,1014.2,477.1,1014.2C477,1014.1,477.1,1014.1,477.1,1014.2z M475.9,1011.2L475.9,1011.2
	c0,0.1,0,0.1,0,0.1c0-0.1-0.1-0.3-0.1-0.4C475.9,1011,475.9,1011.1,475.9,1011.2z M478.5,1016.8L478.5,1016.8
	c0.1,0.1,0.1,0.2,0.2,0.2c-0.1-0.1-0.2-0.3-0.3-0.5C478.4,1016.6,478.5,1016.7,478.5,1016.8z M474.8,1006.5
	C474.8,1006.5,474.9,1006.6,474.8,1006.5C474.9,1006.6,474.9,1006.6,474.8,1006.5C474.9,1006.6,474.8,1006.6,474.8,1006.5
	L474.8,1006.5z M523.3,936.6c-0.3,0-0.6,0-1,0.1l0,0C522.7,936.6,523,936.6,523.3,936.6L523.3,936.6z M532.7,995.2
	c0.3-0.5,0.5-1,0.8-1.5C533.3,994.3,533,994.8,532.7,995.2L532.7,995.2z M475,1007.6c0,0.2,0.1,0.4,0.1,0.6l0,0
	C475.1,1008,475.1,1007.8,475,1007.6L475,1007.6z M535.7,950.2c-0.1-0.2-0.2-0.3-0.3-0.5l0,0C535.5,949.9,535.6,950.1,535.7,950.2z
	 M530.6,937.2L530.6,937.2c-0.1,0-0.2-0.1-0.3-0.1c-0.3-0.1-0.5-0.2-0.8-0.2c0,0,0,0-0.1,0l0,0l0,0
	C529.9,936.9,530.2,937,530.6,937.2z M535,949.2c-0.1-0.1-0.2-0.2-0.2-0.3C534.9,948.9,534.9,949.1,535,949.2L535,949.2z
	 M525.6,936.6c-0.1,0-0.2,0-0.3,0l0,0C525.4,936.6,525.5,936.6,525.6,936.6L525.6,936.6z M524.7,936.6c-0.3,0-0.6,0-0.9,0l0,0
	C524.2,936.6,524.4,936.6,524.7,936.6L524.7,936.6z M527.5,936.9c-0.1,0-0.3,0-0.4-0.1l0,0C527.2,936.8,527.3,936.8,527.5,936.9
	L527.5,936.9z M534.1,939.5c-0.2-0.1-0.3-0.2-0.5-0.3l0,0C533.7,939.3,533.9,939.4,534.1,939.5z M533,938.3
	c-0.2-0.1-0.4-0.2-0.6-0.3c-0.1,0-0.1-0.1-0.2-0.1h-0.1c0.3,0.2,0.7,0.3,1,0.5C533.1,938.3,533,938.3,533,938.3z M531.4,937.5
	c-0.1,0-0.1,0-0.2-0.1c-0.1,0-0.2-0.1-0.4-0.1c0.3,0.1,0.6,0.2,0.9,0.4C531.6,937.6,531.5,937.5,531.4,937.5z M570.9,938.2
	c-0.1,0.1-0.1,0.2-0.1,0.4C570.8,938.5,570.9,938.3,570.9,938.2z M578,931.2c-0.1,0-0.2,0.1-0.3,0.1
	C577.8,931.3,577.9,931.3,578,931.2z M580.6,930c-0.1,0-0.2,0.1-0.2,0.1C580.4,930.1,580.5,930,580.6,930z M578.7,930.9
	c-0.1,0-0.1,0.1-0.2,0.1C578.5,930.9,578.6,930.9,578.7,930.9z M576.3,932.3c0.1-0.1,0.2-0.1,0.3-0.2
	C576.4,932.1,576.4,932.2,576.3,932.3z M577.3,931.6c-0.1,0.1-0.2,0.1-0.3,0.2C577.1,931.7,577.2,931.7,577.3,931.6z M582.6,929.2
	c-0.1,0-0.2,0.1-0.3,0.1C582.4,929.3,582.5,929.3,582.6,929.2z M581,929.8c0.1,0,0.2-0.1,0.3-0.1C581.2,929.7,581.1,929.8,581,929.8
	z M582,929.5c-0.1,0-0.2,0.1-0.3,0.1C581.8,929.5,581.9,929.5,582,929.5z M583.2,929c-0.1,0-0.2,0.1-0.3,0.1
	C583,929.1,583.1,929.1,583.2,929z M572.1,936.2c0.1-0.1,0.1-0.2,0.2-0.3C572.2,936,572.2,936.1,572.1,936.2z M571.6,936.9
	c0.1-0.1,0.1-0.2,0.2-0.3C571.7,936.7,571.7,936.8,571.6,936.9z M571.3,937.4c-0.1,0.1-0.1,0.2-0.2,0.4
	C571.2,937.6,571.3,937.5,571.3,937.4z M572.6,935.5c0.1-0.1,0.2-0.2,0.2-0.3C572.8,935.3,572.7,935.4,572.6,935.5z M575.6,932.8
	c0.1-0.1,0.2-0.1,0.3-0.2C575.7,932.6,575.6,932.7,575.6,932.8z M575.1,933.1c-0.1,0.1-0.2,0.1-0.2,0.2
	C575,933.2,575,933.1,575.1,933.1z M573.2,934.8c0.1-0.1,0.1-0.1,0.2-0.2C573.4,934.7,573.3,934.7,573.2,934.8z M523,942.7h0.1H523
	L523,942.7z M583.8,928.9c-0.1,0-0.1,0-0.2,0.1C583.6,928.9,583.7,928.9,583.8,928.9z M534.2,992.6c-0.2,0.4-0.4,0.8-0.7,1.2
	C533.8,993.4,534,993,534.2,992.6L534.2,992.6z M524.7,942.9c0.1,0,0.1,0,0.2,0l0,0c-0.1,0-0.2,0-0.3-0.1l0,0
	c-0.5-0.1-0.9-0.1-1.4-0.2l0,0l0,0c-0.7,0-1.4-0.1-2.1,0c-0.2,0-0.4,0-0.6,0l0,0c0.1,0,0.2,0,0.3,0c-1.4,0.1-2.8,0.3-4.2,0.7
	c-0.1,0-0.1,0-0.2,0l0,0c-1.1,0.3-2.3,0.7-3.5,1.2l0,0c-0.1,0.1-0.3,0.1-0.4,0.2l0,0c-0.5,0.2-0.9,0.4-1.4,0.6l0,0l0,0
	c-0.8,0.4-1.6,0.8-2.4,1.3c-16.3,9.4-29.5,32.3-29.5,51c0.1,18.7,13.4,26.3,29.7,16.9c16.3-9.4,29.5-32.3,29.5-51
	C538.3,951.7,532.8,944.3,524.7,942.9z M597.8,988.1v65.6c0,7.5-4,14.4-10.4,18.1L443.3,1155c-13.9,8-31.3-2-31.3-18.1V970.6
	c0-7.3,3.8-14.1,10.1-17.9l144.1-82.5c13.9-8.4,31.7,1.6,31.7,17.9v51.4l-9.3-9.1c0.8-3,1.3-10-10.7-13.1
	c-14.9-3.9-10.6-10.9-14.5-12.9s-16.4,5.5-10.9,19.2c3.3,8.3,11.6,13.6,17.9,16.3c-0.3,1.3-0.5,2.8-0.3,4.5
	C570.1,944.4,582.8,968.1,597.8,988.1z M543.4,960.7c0-11-3.9-18.7-10.2-22.3h0.1l0,0l-2-1.2l-4.5-2.6l0,0c-0.1,0-0.1-0.1-0.2-0.1
	c0,0-0.1,0-0.1-0.1c-0.2-0.1-0.4-0.2-0.6-0.3c-0.1,0-0.1-0.1-0.2-0.1c-0.3-0.1-0.5-0.2-0.8-0.4l0,0h-0.1c-0.2-0.1-0.4-0.2-0.7-0.3
	c-0.1,0-0.2-0.1-0.2-0.1c-0.3-0.1-0.5-0.2-0.8-0.2c0,0,0,0-0.1,0l0,0c-0.3-0.1-0.6-0.2-0.9-0.2c-0.1,0-0.2,0-0.2-0.1
	c-0.2-0.1-0.5-0.1-0.7-0.1h-0.1c0,0,0,0-0.1,0c-0.3-0.1-0.6-0.1-0.9-0.1c-0.1,0-0.1,0-0.2,0c-0.3,0-0.5-0.1-0.8-0.1H519h-0.1
	c-0.3,0-0.7,0-1,0c-0.1,0-0.1,0-0.2,0c-0.3,0-0.6,0-0.9,0h-0.1c0,0,0,0-0.1,0c-0.4,0-0.7,0-1.1,0.1c-0.1,0-0.2,0-0.2,0
	c-0.4,0-0.8,0.1-1.2,0.1l0,0l0,0c-0.5,0.1-0.9,0.2-1.4,0.3h-0.1c-0.5,0.1-0.9,0.2-1.4,0.3h-0.1H511c-0.3,0.1-0.5,0.1-0.8,0.2h-0.1
	c-0.3,0.1-0.6,0.2-0.9,0.3c-0.1,0-0.2,0.1-0.3,0.1c-0.2,0.1-0.4,0.2-0.7,0.2c-0.1,0-0.2,0.1-0.4,0.1c-0.2,0.1-0.4,0.2-0.6,0.2
	c-0.1,0-0.1,0.1-0.2,0.1c0,0-0.1,0-0.1,0.1c-0.3,0.1-0.6,0.3-0.9,0.4c-0.1,0-0.1,0-0.2,0.1c-0.4,0.2-0.7,0.3-1.1,0.5
	c-0.1,0-0.2,0.1-0.3,0.1c-0.3,0.1-0.6,0.3-0.8,0.4c-0.1,0.1-0.2,0.1-0.3,0.2c-0.4,0.2-0.7,0.4-1.1,0.6c-0.6,0.3-1.1,0.7-1.7,1
	c-0.2,0.1-0.4,0.2-0.5,0.3c-0.4,0.2-0.7,0.5-1.1,0.7c-0.2,0.1-0.4,0.3-0.6,0.4c-0.3,0.2-0.7,0.5-1,0.7c-0.2,0.2-0.4,0.3-0.6,0.5
	c-0.3,0.3-0.7,0.5-1,0.8c-0.2,0.2-0.4,0.3-0.6,0.5c-0.4,0.3-0.8,0.6-1.2,1c-0.1,0.1-0.3,0.2-0.4,0.3c-0.5,0.5-1,0.9-1.5,1.4
	c-0.1,0.1-0.2,0.2-0.3,0.3c-0.3,0.3-0.6,0.6-1,0.9c-0.1,0.1-0.1,0.1-0.2,0.2c-0.6,0.6-1.2,1.2-1.8,1.8l0,0c-0.6,0.6-1.1,1.3-1.7,1.9
	c0,0.1-0.1,0.1-0.1,0.2c-0.2,0.2-0.4,0.5-0.6,0.7c-0.2,0.3-0.4,0.5-0.7,0.8c-0.3,0.3-0.5,0.7-0.8,1c-0.2,0.3-0.4,0.5-0.6,0.8
	l-0.1,0.1c-0.4,0.5-0.8,1-1.2,1.6l-0.1,0.1c-0.3,0.5-0.7,0.9-1,1.4c0,0.1-0.1,0.1-0.1,0.2c-0.1,0.2-0.2,0.3-0.3,0.5
	c-0.3,0.4-0.6,0.9-0.9,1.3c-0.1,0.2-0.3,0.4-0.4,0.6c-0.1,0.1-0.2,0.3-0.3,0.4c-0.2,0.3-0.4,0.7-0.6,1c-0.1,0.1-0.1,0.2-0.2,0.4
	c-0.3,0.5-0.6,1.1-1,1.6c0,0.1-0.1,0.1-0.1,0.2c-0.1,0.1-0.2,0.3-0.2,0.4c-0.3,0.5-0.5,1-0.8,1.5c-0.1,0.2-0.2,0.3-0.3,0.5
	c-0.1,0.1-0.1,0.2-0.2,0.3c-0.3,0.5-0.5,1-0.8,1.5c0,0,0,0.1-0.1,0.1c-0.2,0.4-0.4,0.9-0.7,1.3c-0.1,0.1-0.1,0.3-0.2,0.4
	c-0.1,0.2-0.2,0.4-0.2,0.5c-0.2,0.5-0.5,1-0.7,1.6c-0.1,0.1-0.1,0.2-0.2,0.4c0,0,0,0.1-0.1,0.1c-0.3,0.6-0.5,1.2-0.7,1.8
	c-0.1,0.2-0.1,0.3-0.2,0.5c-0.1,0.3-0.2,0.6-0.3,0.9c-0.1,0.2-0.1,0.4-0.2,0.6c-0.1,0.2-0.2,0.4-0.2,0.6c-0.2,0.5-0.4,1.1-0.6,1.6
	c0,0.1-0.1,0.2-0.1,0.4v0.1c-0.2,0.6-0.4,1.3-0.6,1.9c-0.1,0.2-0.1,0.3-0.2,0.5c-0.1,0.4-0.2,0.7-0.3,1.1c0,0.1-0.1,0.2-0.1,0.3
	c-0.1,0.3-0.2,0.6-0.2,0.9c-0.1,0.4-0.2,0.8-0.3,1.2c-0.1,0.3-0.1,0.6-0.2,0.9c0,0.2-0.1,0.4-0.1,0.7c0,0.1-0.1,0.3-0.1,0.4
	c-0.1,0.5-0.2,0.9-0.3,1.4c-0.1,0.3-0.1,0.6-0.2,0.9c-0.1,0.5-0.1,0.9-0.2,1.4c0,0.2-0.1,0.4-0.1,0.7c0,0.1,0,0.2,0,0.3
	c0,0.2,0,0.4-0.1,0.6c-0.1,0.4-0.1,0.9-0.1,1.3c0,0.2,0,0.5-0.1,0.7c0,0.4-0.1,0.9-0.1,1.3c0,0.2,0,0.4,0,0.6c0,0.6,0,1.3,0,1.9
	c0,10.8,3.8,18.5,10,22.1l6.5,3.8c-0.1,0-0.1-0.1-0.1-0.1c3.2,1.9,7.1,2.7,11.3,2.2c0.2,0.3,0.4,0.6,0.6,0.8c0.3,0.3,0.6,0.6,1,0.8
	l1.7,1l0.2,53c0,0.4,0.1,0.8,0.2,1.1c0.1,0.3,0.3,0.5,0.6,0.6l6.5,3.8c-0.1,0-0.1-0.1-0.2-0.1c0.5,0.4,1.2,0.4,2.1,0l2.6-1.5
	c1.5-0.8,2.6-2.9,2.6-4.6l-0.2-53.4c2.3-2.9,3.9-6.8,3.9-10.1c0-0.4,0-0.7-0.1-1.1l0,0C532,1002.1,543.5,979.6,543.4,960.7z
	 M534.5,992.1c0.1-0.1,0.1-0.2,0.2-0.3C534.6,991.9,534.5,992,534.5,992.1L534.5,992.1z M510.5,945.7L510.5,945.7L510.5,945.7
	L510.5,945.7z M511,945.5L511,945.5c-0.2,0.1-0.3,0.2-0.5,0.2C510.7,945.6,510.9,945.5,511,945.5L511,945.5z M517,943.3L517,943.3
	c-0.2,0-0.4,0.1-0.6,0.1c0.1,0,0.1,0,0.2,0C516.7,943.4,516.8,943.3,517,943.3z M585,928.5c-0.1,0-0.1,0-0.2,0.1
	C584.9,928.6,584.9,928.6,585,928.5z M584.4,928.7c0.1,0,0.1,0,0.2-0.1C584.5,928.7,584.4,928.7,584.4,928.7z M585.4,928.4
	c-0.1,0-0.1,0-0.2,0C585.3,928.5,585.3,928.5,585.4,928.4z M586,928.3h0.1C586.1,928.3,586.1,928.3,586,928.3z M586.2,928.3
	L586.2,928.3L586.2,928.3z M585.8,928.3h0.1C585.9,928.3,585.9,928.3,585.8,928.3z M585.6,928.4c0.1,0,0.1,0,0.2,0
	C585.7,928.4,585.6,928.4,585.6,928.4z M709.4,619.5l-166.7,96.3v29.5L709.4,647V619.5z M838.9,335.2l35.7-20.6
	c4.1-2.3,6.6-6.7,6.6-11.3V262c0-10.1-10.9-16.4-19.7-11.3l-35.7,20.6c-4.1,2.3-6.6,6.7-6.6,11.3v41.3
	C819.3,334,830.2,340.3,838.9,335.2z M1751,770l-31.1-18c-10.3-5.9-23.1,1.5-23.1,13.3v36c0,5.5,2.9,10.6,7.7,13.3l31.1,18
	c10.3,5.9,23.1-1.5,23.1-13.3v-36C1758.7,777.8,1755.7,772.7,1751,770z M876.8,690l-144.1,86.9c-6,3.6-9.8,10-10.1,16.9
	c1.8,8.2,1.9,10.7,0,15.7v43.1c2.3,0.9,4.7,2.1,7.3,3.8l0,0c3,2.1,19.1,1.6,22,44.9c1.2,17.3,2.9,45,4.5,72L898,891.5
	c6.5-3.7,10.4-10.6,10.4-18.1V707.9C908.5,691.7,890.8,681.7,876.8,690z M876.4,835.5v10.9l-14.6,2.7l-2.5,10.2l6.2,12.9l-6.2,7.7
	l-9.2-4.2l-6.2,6l-1.7,13.9l-7.9,3.2l-13.1-4.1l-2.7,5.1l-6.9-1.7l-27.6-8.8v-10.5l-9.8-3.2l-1.2-10.2l7.1-11.9l-0.8-9.9l-5.1-1.7
	v-10.6l11.3-6.9l4-8.2l-4.7-14.2l6.1-6.5l5.6,2.3l0.2,0.1l9.5-4.7l-0.7-16.4l11.8-5l12.1,5l3.7-4.6l25.7,7.7l7.1,8.4l-4.6,6.6
	l11.6,4.6l3.7,10.2l-11.2,9.2V829L876.4,835.5z M1320.7,372.2l-19.2-11.1c-6.3-3.6-14.2,0.9-14.2,8.2v22.1c0,3.4,1.8,6.5,4.7,8.2
	l19.2,11.1c6.3,3.6,14.2-0.9,14.2-8.2v-22.1C1325.4,377,1323.6,373.8,1320.7,372.2z M1287.3,557.3l-150-86
	c-8.2-4.7-18.5,1.2-18.5,10.7v65.3l29.1-7.8c5.8-1.5,12,0.2,16.1,4.6l19.4,20.6c3.4-6.1,9.4-10.1,16.3-10.1
	c10.7,0,19.3,9.8,19.3,21.9c0,0.8,0,1.7-0.1,2.5l9.7,0.4c7,0.3,13.3,4.2,16.7,10.3l39.6,71.1c3.5-2,6.1-5.7,6.2-10.3l2.6-82
	C1293.7,563.9,1291.3,559.6,1287.3,557.3z"></path>
<path id="color_x5F_3" fill="#e08573" d="M842.2,782.1l-13-5.4l3.7-4.6l25.7,7.7l-8.9,14.4l-7.4,0.5v-12.6H842.2z M821.1,894.6
	l13.1,4.1l-1.7-11.2l-7.9,0.5L821.1,894.6z M831.3,803.5v-17.4l-26-9.4l0.7,16.4L831.3,803.5z M1140.3,1056.2
	C1140.3,1056.2,1140.3,1056.3,1140.3,1056.2C1140.3,1056.3,1140.3,1056.2,1140.3,1056.2z M815.4,825.8l-6.4-13.9l-24.4-10l4.7,14.2
	L815.4,825.8z M1071.7,1286.1c0.5,1.6,6.8-205.9,10.4-201.7c3.6,4.2,22.4,237.7,22.4,237.7c14.1,8.9,23.5-3.1,23.5-3.1l12.3-262.7
	l-0.1,2.7c-36.1,8.2-77.7,4.3-104.6-0.3l-0.4-7l13,240.3C1057.1,1303.3,1071.2,1284.6,1071.7,1286.1z M863.8,805.4l8.9-6l-11.6-4.6
	l-2.5,3.6L863.8,805.4z M646.1,1071.2C646.1,1071.2,646.1,1071.3,646.1,1071.2C646.1,1071.3,646.1,1071.2,646.1,1071.2z
	 M681.9,1337.1c0,0,18.8-233.5,22.4-237.7c3.6-4.2,9.9,203.3,10.4,201.7c0.5-1.6,14.6,17.2,23.5,5.7l13-240.3l-0.4,7
	c-26.8,4.6-68.5,8.6-104.6,0.3l-0.1-2.7l12.3,262.7C658.5,1334,667.8,1346,681.9,1337.1z M1705.8,1328.7l-674.9,389.6l-867.2-500.7
	v71.5l867.2,500.7l736.8-425.4L1705.8,1328.7z M811.5,834.5l-26.1-10.1l-11.3,6.9l24.7,8.2L811.5,834.5z M798.8,883.6l-15-4.9v10.5
	l27.6,8.8l3-15.6l-11.1-1.3L798.8,883.6z M807,862.6l-27.1-9.3l-7.1,11.9l25.9,8.2L807,862.6z"></path>
<path id="color_x5F_2" fill="#e08573" d="M876.4,809.7l-11.2,9.2V829l11.2,6.4v10.9l-14.6,2.7l-2.5,10.2l6.2,12.9l-6.2,7.7l-9.2-4.2
	l-6.2,6l-1.7,13.9l-7.9,3.2l-1.7-11.2l-7.9,0.5l-6.2,11.7l-6.9-1.7l3-15.6l-3.5-5.7l-12.2,6.9v-10.2l8.2-10.8l0.5-8.8l-9.4-4
	l0.7-10.4l12.6-4.9l4-8.7l-6.4-13.9l4.5-7.2l12.9,4.2l5-5.5V786l10.9-4v12.6l7.4-0.5l8.9-14.4l7.1,8.4l-7.1,10.2l5.2,6.9l8.9-6
	L876.4,809.7z M1200.3,913.3l-38.1,37c3.1-77.1-26.6-90.2-27.6-90.7l-0.2,0.3c-5.2-9.1-18.8-13.7-18.8-13.7s-1.1-4.2-2.2-8.8
	l-25.9-4.3v6.3c0,0-12.6-9.9-30.9,2l0,0c-3,2.1-19.1,1.6-22,44.9c-2.9,43.3-9.2,151.7-9.2,151.7l9.7,3.5c0.1,6.4,0.2,10,0.2,10
	l0.4,7.1c26.8,4.6,68.5,8.6,104.6,0.3l0.1-2.7c0,0-0.1-26-0.5-59.1c5.2,3.4,12.1,5.1,20.8,2.1c22.4-7.8,55.8-69.8,55.8-69.8
	C1218,916.4,1200.3,913.3,1200.3,913.3z M586.2,928.3l38.1,37c-3.1-77.1,26.6-90.2,27.6-90.7l0.2,0.3c5.2-9.1,18.8-13.7,18.8-13.7
	s1.1-4.2,2.2-8.8l25.9-4.3v6.3c0,0,12.6-9.9,30.9,2l0,0c3,2.1,19.1,1.6,22,44.9c2.9,43.3,9.2,151.7,9.2,151.7l-9.7,3.5
	c-0.1,6.4-0.2,10-0.2,10l-0.4,7.1c-26.8,4.6-68.5,8.6-104.6,0.3l-0.1-2.7c0,0,0.1-26,0.5-59.1c-5.2,3.4-12.1,5.1-20.8,2.1
	c-22.4-7.8-55.8-69.8-55.8-69.8C568.5,931.4,586.2,928.3,586.2,928.3z"></path>
<path id="color_x5F_1" fill="#e08573" d="M1091,1285.1c-2,5.5-16,29.7-27,31.7c-10.9,2-17.6-0.8-18-2.7c-0.2-1.2,1.1-13.1,2.2-22.3
	v0.2c8.9,11.5,22.9-7.3,23.5-5.7c0.1,0.2,0.2-1.7,0.3-5.1C1079.2,1280.9,1092.5,1281.1,1091,1285.1z M1129.7,1319.9
	c0,0-0.7-0.7-1.7-1.6v0.7c0,0-9.4,12-23.5,3.1c0,0,0-0.1,0-0.4c-0.6,5.7-2.2,21.8,0.2,22.8c2.7,1.2,44.6,5.5,57.1-9.4
	S1129.7,1319.9,1129.7,1319.9z M1094.4,805.8c0,0-10.7-19.3,1-13.4c11.7,6,9.6,12.2,9.6,12.2l0.1,5.7h3.9c0,0-5-16.2,2.2-19
	s20.9-6.2,20.4-11.3c0,0,11.8-16.8-3.4-29.7c-15.2-12.9-32.8,1.7-32.8,1.7s-25.5-0.2-29.5,17.4s-4.7,18.8-1.5,26.8s2.5,15,10.3,15
	S1091.7,815.8,1094.4,805.8z M1142.3,803.9c0,0-8.4-2-9.4,4.2s1.4,8.7,3.2,6.3c1.8-2.4,3.8,3.6,6.2-1.1
	C1144.8,808.6,1142.3,803.9,1142.3,803.9z M714.4,1296c0.2,3.4,0.3,5.3,0.3,5.1c0.5-1.6,14.6,17.2,23.5,5.7v-0.2
	c1.1,9.2,2.4,21.1,2.2,22.3c-0.4,2-7,4.7-18,2.7c-10.9-2-25-26.2-27-31.7C694,1296.1,707.2,1295.9,714.4,1296z M624.7,1350.1
	c12.5,14.9,54.3,10.6,57.1,9.4c2.4-1,0.7-17.1,0.2-22.8c0,0.3,0,0.4,0,0.4c-14.1,8.9-23.5-3.1-23.5-3.1v-0.7c-1,0.9-1.7,1.6-1.7,1.6
	S612.2,1335.3,624.7,1350.1z M711.7,826.2c7.8-0.1,7.1-7.1,10.3-15s2.5-9.2-1.5-26.8S691,767,691,767s-17.6-14.6-32.8-1.7
	c-15.2,12.9-3.4,29.7-3.4,29.7c-0.5,5.2,13.2,8.5,20.4,11.3s2.2,19,2.2,19h3.9l0.1-5.7c0,0-2-6.2,9.6-12.2c11.7-6,1,13.4,1,13.4
	C694.8,830.8,704,826.3,711.7,826.2z M644.2,828.3c2.5,4.7,4.5-1.2,6.2,1.1c1.8,2.4,4.2-0.1,3.2-6.3s-9.4-4.2-9.4-4.2
	S641.7,823.6,644.2,828.3z"></path>
</svg>