<?xml version="1.0" standalone="no"?>
<svg version="1.1" id="Layer_2" xmlns="http://www.w3.org/2000/svg" xmlns:xlink="http://www.w3.org/1999/xlink" x="0px" y="0px" viewBox="0 0 2000 2000" enable-background="new 0 0 2000 2000" xml:space="preserve">
<path id="color_x5F_7" fill="#fbb79a" d="M1253.9,1395.2l-45.9-26.5l-6.1-38.6c7.2-2.4,11.4-4,11.4-4c-2.9-14-1.7-85.8-0.7-126.4
	l4.2,2.4v-32.9l37.3-26.3v252.3H1253.9z M1299.6,703.3L1299.6,703.3c3.3-3.5,5.3-10.1,5.3-17.2V547.2c0-15.3-8.8-24.8-15.8-17.2
	l-0.1,0.2c-3.3,3.6-5.3,10.1-5.3,17.2l0.1,138.7C1283.9,701.4,1292.6,710.9,1299.6,703.3z M1216.6,972.7c4.1,6.4,8.6,15.5,9.4,25.5
	c0.6,7.5-3.8,15.1-9.4,21.6v61.4l33.6,1.4l0,0c1.2,0,2.5-0.1,3.7-0.1v-705L813.5,123.2l-0.2,591.2l37.2,21.5l0.2-505.2L1216.6,442
	V972.7z M845.6,1173.5v270.4c0,23-24.9,37.3-44.7,25.8l-381-220c-9.2-5.3-14.9-15.2-14.9-25.8V953.2c0-23,24.9-37.3,44.8-25.8
	l381,220.3C840,1153,845.6,1162.8,845.6,1173.5z M513.4,1010.4c0-4.6-2.5-8.9-6.4-11.2l-26-15c-8.6-5-19.3,1.2-19.3,11.2v30
	c0,4.6,2.5,8.9,6.5,11.2l26,15c8.6,5,19.3-1.2,19.3-11.2v-30H513.4z M585.2,1053.7c0-4.6-2.5-8.9-6.4-11.2l-26-15
	c-8.6-5-19.3,1.2-19.3,11.2v30c0,4.6,2.5,8.9,6.5,11.2l26,15c8.6,5,19.3-1.2,19.3-11.2v-30H585.2z M656.9,1097.6
	c0-4.6-2.5-8.9-6.4-11.2l-26-15c-8.6-5-19.3,1.2-19.3,11.2v30c0,4.6,2.5,8.9,6.5,11.2l26,15c8.6,5,19.3-1.2,19.3-11.2v-30H656.9z
	 M728.6,1137.9c0-4.6-2.5-8.9-6.4-11.2l-26-15c-8.6-5-19.3,1.2-19.3,11.2v30c0,4.6,2.5,8.9,6.5,11.2l26,15c8.6,5,19.3-1.2,19.3-11.2
	v-30H728.6z M800.4,1181.7c0-4.6-2.5-8.9-6.4-11.2l-26-15c-8.6-5-19.3,1.2-19.3,11.2v30c0,4.6,2.5,8.9,6.5,11.2l26,15
	c8.6,5,19.3-1.2,19.3-11.2v-30H800.4z M1044.2,1244.1c-3.3,2.3-6.9,3.5-10.6,3.5c-17.9,0-32.3-28.9-32.3-64.5s14.5-64.5,32.3-64.5
	c9.9,0,18.7,8.9,24.7,22.8l3.9-28.6l-143.1-82.6v171.7l121.2,70L1044.2,1244.1z"></path>
<path id="color_x5F_6" fill="#e08573" d="M1216.6,1202l-4-7.9c0.3-13.6,0.6-22.5,0.6-22.5l3.4-2.4V1202z M1197,1036.5
	c-3.9,6.9-8.4,13.1-13,16.5c-0.8,0.6-1.6,1.1-2.4,1.7l6.1,25.2l28.9,1.2v-61.4C1208.1,1029.5,1197.1,1036.5,1197,1036.5z
	 M1063.2,1105.5c0,0-42.8-25.2-45.1-40.2c-0.4-2.7,0.4-6.2,1.9-10.1c-15-17.7-28.4-33.8-29.5-36.1c-1.7-3.9-23.7-52.2-35.4-77.8H955
	c0,0-7.4-12.3-9.4-13.9c-2-1.6-6.6-26.1-6.6-26.1s-9.4-26.1-7.2-30.4s9.5,12.6,9.5,12.6s-5.3-16-2.2-18.6c3.2-2.6,7.5,16.2,8.1,16.2
	s-5.1-19-1-19.8s8.8,22.1,8.8,22.1s-0.5-17.8,1.5-21.2s8.2,20.7,8.2,20.7l10,22.1l0.8-8.9c0,0,6.7-19.4,6.8-10.3
	c0.1,9.1,3.5,19.4,3.5,22.5c0,2.3-3.5,13.9-5.6,20.2l50.2,72.5l18.6,12.5l0,0c0,0,0.9,0.5,2.5,1.5L850.6,568.7l-0.1,167.2l50.4,29.1
	c11.3,6.5,18.2,18.5,18.2,31.6v63.8V966l42.8,89.1l100.3,57.9L1063.2,1105.5z M1136.7,1001.7c0-3.2,0.1-5.8,0.3-7.9l0,0
	c-5-0.1-18.1-15.3-2.7-49.1s75.3,18.8,75.3,18.8s3.3,3.5,7,9.2v-23.1L850.7,230.7v253.2l280.7,550.9
	C1131.8,1023.1,1136.7,1013.3,1136.7,1001.7z M1033.6,1130.1c-14.7,0-26.6,23.8-26.6,53.1s11.9,53.1,26.6,53.1
	c4.5,0,8.8-2.3,12.5-6.2l10.2-74.4C1051.7,1140.3,1043.2,1130.1,1033.6,1130.1z"></path>
<path id="color_x5F_5" fill="#fbccb4" d="M1373.2,964.4c0,0-4.7,24.5-6.6,26.1c-2,1.6-9.4,13.9-9.4,13.9l0,0c0,0-25,81.5-43.4,97.6
	c-9.6,8.3-35.2,24.8-58.3,39.7l-5.3-59.1c9.1-0.2,17.6-0.8,23.7-2l59.5-84.5c0,0-6.9-21.3-6.9-24.5s3.4-13.4,3.5-22.5
	s6.8,10.3,6.8,10.3l0.8,8.9l10-22.1c0,0,6.2-24,8.2-20.7s1.5,21.2,1.5,21.2s4.7-22.9,8.8-22.1s-1.6,19.8-1,19.8s4.9-18.8,8.1-16.2
	s-2.2,18.6-2.2,18.6s7.3-17,9.5-12.6S1373.2,964.4,1373.2,964.4z M1030.5,1001.4l-50.2-72.5c2-6.4,5.6-18,5.6-20.2
	c0-3.2-3.4-13.4-3.5-22.5s-6.8,10.3-6.8,10.3l-0.8,8.9l-10-22.1c0,0-6.2-24-8.2-20.7s-1.5,21.2-1.5,21.2s-4.7-22.9-8.8-22.1
	s1.6,19.8,1,19.8s-4.9-18.8-8.1-16.2c-3.2,2.6,2.2,18.6,2.2,18.6s-7.3-17-9.5-12.6s7.2,30.4,7.2,30.4s4.7,24.5,6.6,26.1
	c2,1.6,9.4,13.9,9.4,13.9h0.1c11.6,25.5,33.6,73.8,35.4,77.8c1,2.3,14.4,18.4,29.5,36.1c6.9-17,29-41.5,29-41.5L1030.5,1001.4z
	 M1184,1053c4.6-3.4,9-9.6,13-16.5l0,0c0,0,4-11.3-2-18.6c-5.9-7.3-4.9,10.1-4.9,10.1l-6.3,1.2c0,0,5.5-22.7-5.3-23.1
	c-21.2-0.8-36.4-12.3-41.4-12.3l0,0c-0.2,2.1-0.3,4.7-0.3,7.9c0,15.2-8.5,27.2-4,44.6c1.1,4.3,2.4,7.7,3.8,10.5l-3.8,12.6l-1.1-0.6
	l0,0c0.4,0.4,0.7,0.8,0.9,1.1l0,0l0,0l0,0v0.1l0,0c-0.1,0.3-0.4,1.2-0.7,2.3c-2.2,8.8-5.3,36.8,55.8,7.5l-6.1-25.2
	C1182.4,1054.2,1183.2,1053.6,1184,1053z"></path>
<path id="color_x5F_4" fill="#fdd4c5" d="M1216.6,949.6L850.7,230.7L1216.6,442v530.7l0,0V949.6z M1216.6,1169.2v32.9V1169.2
	L1216.6,1169.2z M1216.6,1019.8v61.4l0,0V1019.8L1216.6,1019.8z M1033.6,1247.7c3.7,0,7.2-1.3,10.6-3.5l1.9-14.1
	c-3.7,4-8,6.2-12.5,6.2c-14.7,0-26.6-23.8-26.6-53.1s11.9-53.1,26.6-53.1c9.6,0,18.1,10.2,22.7,25.5l1.9-14.1
	c-5.9-14-14.8-22.8-24.7-22.8c-17.9,0-32.3,28.9-32.3,64.5C1001.3,1218.8,1015.7,1247.7,1033.6,1247.7z M1212.6,1194.1
	c0,1.8-0.1,3.6-0.1,5.5l4.2,2.4L1212.6,1194.1z M919.1,1030.3l42.8,24.7l-42.8-89.1V1030.3z M533.6,721.1l-73.7-42.6
	c-24.4-14.1-54.9,3.5-54.9,31.7l-0.1,85.1c0,13.1,7,25.2,18.3,31.7l73.8,42.5c24.4,14.1,54.9-3.5,54.9-31.7v-85.1
	C551.9,739.7,545,727.6,533.6,721.1z M793.9,1170.6l-26-15c-8.6-5-19.3,1.2-19.3,11.2v30c0,4.6,2.5,8.9,6.5,11.2l26,15
	c8.6,5,19.3-1.2,19.3-11.2v-30C800.4,1177.1,797.9,1172.9,793.9,1170.6z M919.1,796.5c0-13-6.9-25-18.2-31.6L532.3,552.3
	c-24.1-13.9-54.3,3.3-54.6,31.1l-0.3,22.4l441.7,254.5V796.5z M1051.5,1015.4c12.6,7.7,69.7,42.8,80.1,53.5l1.1,0.6l3.8-12.6
	c-1.4-2.8-2.7-6.2-3.8-10.5c-1.1-4.1-1.4-7.9-1.3-11.5l-280.7-551V230.7l-0.2,498.1l0.1-160.2L1051.5,1015.4z M1832.3,1448.6
	L1024.4,1915l-661-381.6L563.2,1418l355.9,205.5v-410.9l9.3-5.3l112,64.6l-7.5,54.2c1.7,1.7,3.6,3.3,5.5,4.8l-5.5,260.8l-49.4,44.6
	c0,0-17.9,14.9,4.8,14.3s57.7-22,57.7-22s13.1,1.2,23.8-7.4c7.2-5.8,3.4-17,0.2-23.8l31.4-134.2l22-76.8l57.6,149.9
	c0,0,17.9,106.7,19.6,120.1c0-0.2-0.1-0.5-0.1-0.7l-2.5,1.6c0,0,30.4,33.5,51.8,50.2c21.3,16.7,36.9,2.4,35.6-7.3
	c-1-7.7-32-39.4-45-52.4l0,0c5.8-33.2-8.7-129.9-8.7-129.9l-23.7-149.2l45.9,26.5l73.9-42v-195.8L1832.3,1448.6z"></path>
<path id="color_x5F_3" fill="#e08573" d="M363.4,1533.4l661,381.6l807.9-466.5v84.9l-808,466.5l-660.9-381.6L363.4,1533.4
	L363.4,1533.4z M1201.8,1330.1c-31.3,10.5-119.3,35.2-163.4,0.8l-5.5,260.8c0,0,16.7,17.3,36.3,8.9l32.1-137.4l22-76.8l57.6,149.9
	c0,0,19.8,117.8,19.8,121.4s21.4,13.1,35.7,0c14.3-13.1-4.8-139.8-4.8-139.8L1201.8,1330.1z M1253.9,377.5l73.9-41.9v628.5
	c-0.7,3.3-1.3,6-1.3,7.3c0,0.9,0.5,3.2,1.3,6.1v26.3l-53.9,76.6c-5.3,1.1-12.3,1.6-20,1.9V377.5z M1283.7,547.4l0.1,138.7
	c0,15.3,8.8,24.8,15.8,17.2l0,0c3.3-3.5,5.3-10.1,5.3-17.2V547.2c0-15.3-8.8-24.8-15.8-17.2l-0.1,0.2
	C1285.7,533.8,1283.7,540.3,1283.7,547.4z M478.4,606.3l440.7,254v763.3l-440.7-254.4v-85.6l322.5,186.2
	c19.9,11.5,44.7-2.9,44.7-25.8v-270.4c0-10.6-5.7-20.5-14.9-25.8L478.4,944v-85l18.6,10.7c24.4,14.1,54.9-3.5,54.9-31.7v-85.1
	c0-13.1-7-25.2-18.3-31.7l-55.2-31.9L478.4,606.3L478.4,606.3z M1327.8,1081v272.2l-73.9,42v-252.4l1.6-1.1l0,0
	c23-14.9,48.7-31.4,58.3-39.7C1318.2,1098.1,1323,1090.4,1327.8,1081z M1253.9,377.5L813.5,123.2l73.2-42.5l441.1,255L1253.9,377.5z
	"></path>
<path id="color_x5F_2" fill="#e08573" d="M481,984.2l26,15c4,2.3,6.4,6.6,6.4,11.2v30c0,9.9-10.7,16.1-19.3,11.2l-26-15
	c-4-2.3-6.5-6.6-6.5-11.2v-30C461.7,985.5,472.4,979.3,481,984.2z M533.4,1038.7v30c0,4.6,2.5,8.9,6.5,11.2l26,15
	c8.6,5,19.3-1.2,19.3-11.2v-30c0-4.6-2.5-8.9-6.4-11.2l-26-15C544.2,1022.6,533.4,1028.8,533.4,1038.7z M605.1,1082.6v30
	c0,4.6,2.5,8.9,6.5,11.2l26,15c8.6,5,19.3-1.2,19.3-11.2v-30c0-4.6-2.5-8.9-6.4-11.2l-26-15C615.9,1066.4,605.1,1072.6,605.1,1082.6
	z M676.9,1122.9v30c0,4.6,2.5,8.9,6.5,11.2l26,15c8.6,5,19.3-1.2,19.3-11.2v-30c0-4.6-2.5-8.9-6.4-11.2l-26-15
	C687.6,1106.7,676.9,1112.9,676.9,1122.9z M1049.1,1013.9c0,0-33.2,36.7-30.9,51.5c2.3,14.9,45.1,40.2,45.1,40.2l-30.3,220.5
	c51.1,50.6,180.3,0,180.3,0c-4.2-19.8,0-154.5,0-154.5l42.2-29.9l-5.3-59.1l-62.5-2.7c-71.7,34.3-55.1-10-55.1-10
	C1124.7,1059.6,1049.1,1013.9,1049.1,1013.9z"></path>
<path id="color_x5F_1" fill="#e08573" d="M1249.7,1707.5c-21.3-16.7-51.8-50.2-51.8-50.2l2.5-1.6c0.1,1.1,0.2,1.8,0.2,2
	c0,3.6,21.4,13.1,35.7,0c1.8-1.7,3.1-5.1,3.9-9.9c13,13,44,44.7,45,52.4C1286.7,1709.9,1271.1,1724.2,1249.7,1707.5z M1069.2,1600.6
	c-19.6,8.3-36.3-8.9-36.3-8.9l-49.4,44.6c0,0-17.9,14.9,4.8,14.3s57.7-22,57.7-22s13.1,1.2,23.8-7.4c7.2-5.8,3.4-17,0.2-23.8
	L1069.2,1600.6z M1209.7,963.5c0,0-59.9-52.6-75.3-18.8s-2.4,49,2.7,49.1c5,0.1,20.2,11.6,41.4,12.3c10.9,0.4,5.3,23.1,5.3,23.1
	l6.3-1.2c0,0-1-17.4,4.9-10.1s2,18.6,2,18.6s30.6-19.4,29.1-38.3S1209.7,963.5,1209.7,963.5z"></path>
</svg>