<?xml version="1.0" standalone="no"?>
<svg version="1.1" id="color_x5F_1" xmlns="http://www.w3.org/2000/svg" xmlns:xlink="http://www.w3.org/1999/xlink" x="0px" y="0px" width="600px" height="600px" viewBox="0 0 600 600" enable-background="new 0 0 600 600" xml:space="preserve">
<path id="color_x5F_10" fill="#D0E7DF" d="M328.574,298.639l-26.911,15.522l62.893,36.284l26.911-15.521L328.574,298.639z
	 M380.682,331.496l-2.923,1.613l-4.938-2.822l2.923-1.713L380.682,331.496z M362.137,328.574l-4.938-2.822l2.923-1.714l4.938,2.822
	L362.137,328.574z M365.967,327.465l4.938,2.924L367.982,332l-4.938-2.821L365.967,327.465z M346.515,324.038l-4.938-2.821
	l2.923-1.714l4.938,2.821L346.515,324.038z M350.345,322.828l4.938,2.924l-2.923,1.612l-4.938-2.821L350.345,322.828z
	 M340.567,320.611l-4.938-2.923l2.923-1.612l4.938,2.822L340.567,320.611z M334.722,317.185l-4.938-2.822l2.923-1.612l4.938,2.822
	L334.722,317.185z M333.714,317.688l-2.923,1.714l-4.938-2.822l2.923-1.713L333.714,317.688z M334.722,318.293l4.939,2.924
	l-2.923,1.611l-4.939-2.821L334.722,318.293z M340.567,321.721l4.939,2.822l-2.923,1.611l-4.939-2.821L340.567,321.721z
	 M346.515,325.146l4.938,2.822l-2.923,1.714l-4.938-2.923L346.515,325.146z M352.461,328.473l4.938,2.822l-2.923,1.714l-4.938-2.923
	L352.461,328.473z M358.307,331.9l4.938,2.922l-2.923,1.613l-4.938-2.822L358.307,331.9z M353.368,327.969l2.923-1.612l4.938,2.822
	l-2.923,1.612L353.368,327.969z M356.291,325.146l-4.938-2.922l2.923-1.613l4.938,2.822L356.291,325.146z M350.345,321.721
	l-4.939-2.822l2.923-1.613l4.939,2.822L350.345,321.721z M344.499,318.395l-4.939-2.822l2.923-1.714l4.939,2.923L344.499,318.395z
	 M338.552,314.967l-4.938-2.822l2.923-1.713l4.938,2.822L338.552,314.967z M332.605,311.541l-4.938-2.924l2.923-1.612l4.938,2.822
	L332.605,311.541z M331.698,312.145l-2.923,1.613l-4.938-2.822l2.923-1.713L331.698,312.145z M327.868,314.362l-2.923,1.714
	l-4.938-2.924l2.923-1.611L327.868,314.362z M323.938,316.58l-2.923,1.612l-4.938-2.821l2.923-1.714L323.938,316.58z
	 M324.945,317.084l4.938,2.923l-2.923,1.612l-4.938-2.822L324.945,317.084z M330.892,320.511l4.939,2.822l-2.923,1.612l-4.939-2.822
	L330.892,320.511z M336.738,323.938l4.938,2.822l-2.923,1.713l-4.939-2.922L336.738,323.938z M342.685,327.364l4.938,2.822
	L344.7,331.9l-4.938-2.822L342.685,327.364z M348.53,330.69l4.938,2.923l-2.923,1.613l-4.938-2.822L348.53,330.69z M354.477,334.117
	l4.938,2.822l-2.923,1.612l-4.938-2.821L354.477,334.117z M360.322,337.544l4.939,2.822l-2.924,1.714l-4.938-2.924L360.322,337.544z
	 M361.33,337.04l2.923-1.714l4.939,2.924l-2.923,1.612L361.33,337.04z M365.16,334.822l-1.008-0.504l-4.938-2.922l2.923-1.613
	l4.133,2.419l1.813,1.008l4.939,2.822l-2.923,1.714L365.16,334.822z M368.99,332.505l2.923-1.612l4.938,2.821l-2.923,1.612
	L368.99,332.505z M374.836,328.07l-2.923,1.713l-4.938-2.923l2.923-1.612L374.836,328.07z M368.89,324.643l-2.923,1.714
	l-4.938-2.923l2.923-1.613L368.89,324.643z M363.044,321.316l-2.923,1.613l-4.938-2.822l2.923-1.612L363.044,321.316z
	 M357.098,317.891l-2.923,1.612l-4.939-2.822l2.923-1.714L357.098,317.891z M351.15,314.463l-2.923,1.714l-4.938-2.822l2.923-1.714
	L351.15,314.463z M345.305,311.037l-2.923,1.713l-4.938-2.923l2.923-1.612L345.305,311.037z M339.358,307.609l-2.923,1.613
	l-4.938-2.822l2.923-1.613L339.358,307.609z M328.473,301.361l4.939,2.922l-2.923,1.613l-4.939-2.822L328.473,301.361z
	 M324.643,303.578l4.939,2.822l-2.923,1.713l-4.939-2.922L324.643,303.578z M320.813,305.795l4.938,2.822l-2.923,1.714l-4.938-2.822
	L320.813,305.795z M316.983,308.113l4.938,2.822l-2.923,1.613l-4.938-2.822L316.983,308.113z M313.153,310.331l4.938,2.821
	l-2.923,1.714l-4.938-2.923L313.153,310.331z M306.4,314.161l2.923-1.714l4.938,2.924l-2.923,1.611L306.4,314.161z M312.246,317.588
	l2.923-1.613l4.938,2.822l-2.923,1.613L312.246,317.588z M318.192,321.015l2.923-1.612l4.938,2.822l-2.923,1.713L318.192,321.015z
	 M335.932,331.194l-1.008-0.504l-4.938-2.822l-0.907-0.504l-4.939-2.821l2.924-1.714l0.504,0.302l3.829,2.218l0.505,0.302
	l5.946,3.428l0.907,0.504l0.402,0.201l1.714,1.008l2.722,1.613l-2.923,1.612L335.932,331.194z M341.777,334.621l2.923-1.612
	l4.938,2.821l-2.923,1.714L341.777,334.621z M347.724,338.048l2.923-1.714l4.938,2.822l-2.923,1.714L347.724,338.048z
	 M353.569,341.475l2.923-1.713l4.939,2.923l-2.924,1.612L353.569,341.475z M364.455,347.724l-4.938-2.821l2.923-1.613l4.938,2.822
	L364.455,347.724z M368.285,345.506l-4.938-2.821l2.923-1.714l4.938,2.822L368.285,345.506z M372.115,343.289l-4.939-2.822
	l2.924-1.612l4.938,2.821L372.115,343.289z M376.046,341.072l-4.938-2.822l2.923-1.714l4.938,2.923L376.046,341.072z
	 M379.876,338.854l-4.938-2.923l2.923-1.613l4.938,2.822L379.876,338.854z M378.767,333.714l2.923-1.714l4.939,2.924l-2.923,1.612
	L378.767,333.714z M404.973,349.639c0,0.102-0.102,0.303-0.202,0.303c-1.411,0.807-3.427,0-4.838,0.807
	c-3.124,1.813-5.745,6.752-8.869,8.566c-0.303,0.102-0.604,0.102-0.907,0l-9.071-5.24c-0.302-0.202-0.302-0.605,0-0.706
	c2.923-1.714,5.645-6.753,8.668-8.466c1.612-0.908,3.427,0,5.04-0.908c0.302-0.101,0.604-0.101,0.906,0l9.071,5.242
	C404.973,349.336,404.973,349.438,404.973,349.639z"></path>
<path id="color_x5F_9" fill="#e08573" d="M404.973,349.639v1.411c0,0.202-0.102,0.302-0.202,0.403l-13.707,7.861
	c3.124-1.814,5.745-6.753,8.869-8.566c1.411-0.807,3.427,0,4.838-0.807C404.973,349.84,404.973,349.74,404.973,349.639z
	 M391.365,334.924l-26.91,15.521l-62.893-36.284v2.317l62.893,36.285l26.91-17.336V334.924z M307.408,398.421l-0.403-0.101
	l-0.403-0.101l-0.504-0.102h-0.402c0,0.102-0.102,0.303-0.102,0.403c-0.201,0.605-0.504,1.109-0.807,1.714l-0.101,0.101
	c-0.101,0.101-0.101,0.303-0.201,0.403c-0.101,0.201-0.303,0.403-0.403,0.604c-0.101,0.202-0.201,0.303-0.403,0.504
	c-0.202,0.202-0.302,0.403-0.504,0.604c-0.101,0.202-0.302,0.303-0.504,0.504c-0.202,0.202-0.403,0.403-0.604,0.505
	c-0.201,0.201-0.303,0.302-0.504,0.402c-0.201,0.202-0.403,0.303-0.605,0.504c-0.201,0.102-0.402,0.303-0.604,0.403
	c-0.201,0.202-0.504,0.303-0.705,0.504c-0.202,0.101-0.403,0.303-0.706,0.403c-0.403,0.201-0.807,0.403-1.209,0.706
	c-0.303,0.101-0.605,0.302-0.907,0.402c-0.202,0.102-0.504,0.202-0.807,0.303c-0.302,0.101-0.604,0.201-0.907,0.303
	c-0.302,0.101-0.504,0.201-0.806,0.302c-0.303,0.101-0.605,0.202-0.907,0.303c-0.303,0.101-0.504,0.101-0.807,0.201h-0.101
	c-0.302,0.101-0.604,0.101-0.907,0.202c-0.302,0.101-0.504,0.101-0.806,0.201c-0.403,0.101-0.706,0.101-1.109,0.202
	c-0.302,0-0.504,0.101-0.806,0.101c-0.403,0.101-0.907,0.101-1.31,0.101c-0.202,0-0.403,0-0.706,0.101
	c-0.706,0-1.311,0.101-2.016,0.101s-1.31,0-2.016-0.101c-0.202,0-0.403,0-0.604-0.101c-0.403,0-0.907-0.101-1.311-0.101
	c-0.202,0-0.504-0.101-0.706-0.101c-0.403-0.102-0.806-0.102-1.209-0.202c-0.202,0-0.504-0.101-0.706-0.101
	c-0.403-0.101-0.806-0.202-1.108-0.303c-0.202-0.101-0.403-0.101-0.706-0.201c-0.403-0.101-0.807-0.202-1.109-0.303
	c-0.202-0.101-0.403-0.101-0.604-0.201c-0.403-0.101-0.807-0.303-1.209-0.504c-0.101-0.101-0.303-0.101-0.403-0.202
	c-0.504-0.201-1.008-0.504-1.512-0.705c-0.101,0-0.202-0.101-0.202-0.101c-0.403-0.202-0.807-0.403-1.109-0.706
	c-0.202-0.101-0.302-0.201-0.504-0.302c-0.302-0.202-0.504-0.403-0.806-0.605c-0.202-0.101-0.302-0.302-0.504-0.403
	c-0.202-0.201-0.403-0.402-0.605-0.504c-0.202-0.201-0.302-0.302-0.504-0.504c-0.202-0.201-0.403-0.402-0.504-0.504
	c-0.202-0.201-0.302-0.302-0.403-0.504c-0.101-0.201-0.302-0.403-0.403-0.604c-0.101-0.201-0.303-0.403-0.403-0.604
	c-0.101-0.202-0.202-0.403-0.302-0.504c-0.302-0.604-0.605-1.109-0.807-1.714l0,0l4.233,25.803c0,5.846,7.357,10.481,16.328,10.481
	c8.365,0,15.219-4.031,16.228-9.172c0.1-0.403,0.1-0.806,0.1-1.31l0.404-2.419c0.504-0.504,1.107-1.009,1.612-1.613l0.201-0.201
	l0.303-0.403l0.302-0.403l0.303-0.403c0,0,0,0,0.101-0.101l0.303-0.403l0.302-0.302c0.202-0.303,0.404-0.706,0.605-1.008l0,0
	l0.302-0.504c0.102-0.202,0.202-0.403,0.303-0.605l0.201-0.403l0.202-0.504l0.201-0.302c0.101-0.101,0.101-0.202,0.202-0.403
	l0.101-0.303l0.201-0.504v-0.101c0.102-0.302,0.202-0.604,0.303-0.807v-0.101l0.101-0.504l0.101-0.504l0.102-0.403v-0.101
	l0.101-0.403l0.101-0.403l0.101-0.402v-0.202c0-0.201,0-0.302,0.101-0.504v-0.201v-0.101c0-0.202,0-0.403,0-0.605l0,0v-0.101
	c0-1.814-0.504-3.226-1.41-4.031c-0.202-0.102-0.505-0.202-0.706-0.202v0.101l0.101,0.303l0.101,0.303l0.102,0.302l0.101,0.403
	v0.403v0.403v0.403v0.402v0.403l-0.101,0.403l-0.102,0.403l-0.101,0.403l-0.101,0.403l-0.101,0.504l-0.101,0.504l-0.102,0.504
	l-0.201,0.504l-0.202,0.504l-0.201,0.504l-0.201,0.504l-0.202,0.504l-0.201,0.504l-0.202,0.504l-0.201,0.504l-0.303,0.504
	l-0.303,0.504l-0.302,0.504l-0.302,0.303l-0.303,0.504l-0.303,0.403l-0.303,0.403l0,0l2.218-13.809l0.604-3.628
	c0.303-0.102,0.605-0.202,0.907-0.202h0.303h0.201c0.202,0,0.403,0,0.605,0h0.101h0.201c0.504,0,1.008,0.101,1.512,0.202h0.102
	l0.402,0.101l-1.813-1.814H307.408z M284.932,388.543c9.272,0,16.933,3.528,17.739,7.963c0-0.201,0.101-0.504,0.101-0.705
	c0-5.645-7.962-10.18-17.739-10.18c-9.776,0-17.739,4.636-17.739,10.18c0,0.201,0,0.504,0.101,0.705
	C268,392.071,275.659,388.543,284.932,388.543z M206.215,196.943l-0.302-0.101l-0.302-0.101h-0.403h-0.403h-0.403l-0.403,0.101
	l-0.403,0.101l-0.403,0.101l-0.403,0.202l-0.403,0.202l-0.403,0.202l-0.101,0.101l-0.101,0.101l-0.101,0.101l-0.101,0.101
	l-0.101,0.101l-0.101,0.101l-0.101,0.101l-0.101,0.101l-0.101,0.101l-0.101,0.101l-0.101,0.101l-0.101,0.101l-0.101,0.101
	l-0.101,0.101l-0.101,0.101h-0.101l-6.451-3.729l-0.403-0.101l-0.403-0.101l-0.403-0.101h-0.403h-0.403H191.5h-0.403l-0.403,0.101
	l-0.504,0.101l-0.403,0.101l-0.504,0.101l-0.504,0.202l-0.504,0.202l-0.504,0.202l-0.504,0.302l-0.605,0.302l-0.504,0.403
	l-0.504,0.403l-0.504,0.403l-0.504,0.504l-0.504,0.504l-0.504,0.504l-0.504,0.504l-0.504,0.504l-0.504,0.605l-0.403,0.604
	l-0.504,0.605l-0.403,0.605l-0.403,0.705l-0.403,0.706l-0.403,0.706l-0.403,0.706l-0.403,0.706l-0.403,0.706l-0.302,0.706
	l-0.302,0.706l-0.303,0.706l-0.302,0.806l-0.202,0.806l-0.202,0.807l-0.201,0.806l-0.202,0.806l-0.202,0.807l-0.101,0.806
	l-0.101,0.806l-0.101,0.807l-0.101,0.806l-0.202,0.202l-0.201,0.202l-0.202,0.202l-0.202,0.201l-0.202,0.202l-0.202,0.202
	l-0.202,0.202l-0.201,0.202l-0.202,0.202l-0.202,0.201l-0.202,0.202l-0.202,0.303l-0.202,0.201l-0.201,0.303l-0.202,0.302
	l-0.202,0.302l-0.202,0.302l-0.202,0.303l-0.101,0.302l-0.202,0.302l-0.101,0.302l-0.101,0.303l-0.101,0.302l-0.101,0.302
	l-0.101,0.302l-0.101,0.303l-0.101,0.302l-0.101,0.302l-0.101,0.302l-0.101,0.303l-0.101,0.302l-0.101,0.302h-0.101h-0.101h-0.101
	h-0.101h-0.101h-0.101h-0.101h-0.101h-0.101h-0.101h-0.101h-0.101h-0.101h-0.101l-0.101,0.101h-0.101l-0.202,0.101l-0.202,0.101
	l-0.201,0.201l-0.202,0.202l-0.202,0.202l-0.202,0.202l-0.202,0.202l-0.202,0.201l-0.201,0.202l-0.202,0.202l-0.202,0.202
	l-0.202,0.202l-0.202,0.302l-0.202,0.302L166,228.994l-0.202,0.302l-0.101,0.302l-0.101,0.302l-0.101,0.303l-0.101,0.302
	l-0.101,0.302l-0.101,0.302l-0.101,0.303l-0.101,0.302l-0.101,0.302l-0.101,0.302l-0.101,0.303v0.302l-0.101,0.302v0.302v0.303
	v0.302v0.302v0.302v0.303l0.101,0.202v0.302l0.101,0.202l0.101,0.201l0.101,0.202l0.101,0.202l0.101,0.202l0.101,0.202l0.101,0.202
	l0.101,0.201l0.101,0.101l0.101,0.101l0.101,0.101l6.854,3.931c0.807,0.604,1.915,0.706,3.024,0
	c-2.419,1.411-4.334-0.202-4.334-3.427c0-3.326,1.915-7.055,4.334-8.466c0.302-0.202,0.706-0.303,1.008-0.403
	c0.806-3.628,2.822-7.055,5.241-8.87c0.604-8.365,5.543-17.437,11.49-20.863c5.241-3.023,9.776-0.806,11.188,5.04
	c1.209-1.613,2.52-2.923,4.032-3.83c1.613-0.907,3.225-1.108,4.435-0.706l-6.854-3.931V196.943z M454.763,218.713L331.9,147.858
	c-1.311-0.807-2.924-0.706-4.032,0.101l0,0l-2.822,1.713c0.504-0.302,1.008-0.403,1.613-0.403c0,0,0,0,0.101,0s0.201,0,0.403,0
	c0.101,0,0.101,0,0.201,0s0.202,0,0.303,0s0.201,0,0.201,0c0.101,0,0.101,0,0.202,0.101c0.101,0,0.201,0.101,0.302,0.101
	c0.202,0.101,0.303,0.101,0.504,0.202l122.862,70.956c2.419,1.411,3.932,4.031,3.932,6.753v94.037c0,0.201,0,0.402,0,0.504
	c0,0.101,0,0.101,0,0.201c0,0.102,0,0.202-0.102,0.303c0,0.101-0.101,0.201-0.101,0.201c0,0.102-0.101,0.202-0.101,0.202
	c0,0.101-0.101,0.201-0.101,0.201c0,0.101-0.102,0.101-0.102,0.202c0,0.101-0.101,0.101-0.101,0.201
	c0,0.102-0.101,0.102-0.101,0.201c0,0.102-0.101,0.102-0.201,0.202c-0.102,0.101-0.102,0.101-0.202,0.202l-0.101,0.1
	c-0.101,0.102-0.201,0.102-0.201,0.202c0,0-0.102,0-0.102,0.101l-0.101,0.102l2.923-1.814c1.108-0.706,1.915-1.915,1.915-3.428
	v-85.066v-8.869C458.693,222.644,457.182,220.125,454.763,218.713z M522.594,282.614v-0.302v-0.302l-0.101-0.303v-0.302
	l-0.101-0.302l-0.102-0.302l-0.101-0.303l-0.101-0.302l-0.101-0.302l-0.101-0.302l-0.102-0.302l-0.101-0.303l-0.101-0.302
	l-0.101-0.302l-0.101-0.302l-0.202-0.302l-0.201-0.303l-0.202-0.302l-0.201-0.302l-0.201-0.202l-0.202-0.202l-0.201-0.202
	l-0.202-0.202l-0.201-0.201l-0.202-0.202l-0.201-0.202l-0.201-0.202l-0.202-0.202l-0.201-0.202l-0.202-0.101l-0.201-0.101
	l-0.101-0.101h-0.102h-0.101h-0.101h-0.101h-0.101h-0.101h-0.102h-0.101h-0.101h-0.101h-0.101h-0.101h-0.102h-0.101h-0.101
	l-0.101-0.302l-0.101-0.302l0.704-0.807l-0.101-0.302l-0.101-0.303l-0.101-0.302l-0.101-0.302l-0.101-0.302l-0.102-0.302
	l-0.101-0.303l-0.101-0.302l-0.101-0.302l-0.202-0.302l-0.101-0.303l-0.201-0.302l-0.202-0.302l-0.201-0.302l-0.202-0.302
	l-0.201-0.303L514.632,268l-0.202-0.202l-0.201-0.302l-0.202-0.403l-0.201-0.202l-0.202-0.202l-0.201-0.202l-0.201-0.202
	l-0.202-0.201l0,0l-0.201-0.202l-0.202-0.202l-0.201-0.202l-0.202-0.202l-0.101-0.806l-0.101-0.806l-0.101-0.807l-0.101-0.806
	l-0.202-0.806l-0.201-0.807l-0.202-0.806l-0.201-0.806l-0.202-0.806l-0.302-0.807l-0.303-0.706l-0.302-0.806l-0.303-0.706
	l-0.403-0.706l-0.403-0.706l-0.403-0.706l-0.402-0.706l-0.403-0.706l-0.403-0.705l-0.403-0.706l-0.504-0.605l-0.403-0.604
	l-0.504-0.605l-0.504-0.604l-0.504-0.504l-0.504-0.504l-0.504-0.504l-0.504-0.504l-0.504-0.403l-0.504-0.403l-0.504-0.403
	l-0.504-0.403l-0.504-0.202l-0.504-0.202l-0.504-0.202l-0.504-0.202l-0.504-0.101l-0.403-0.101l-0.504-0.101l-0.403-0.101h-0.403
	h-0.403h-0.403l-0.402,0.101l-0.403,0.101l-0.403,0.101l-0.403,0.101l-6.45,3.729l0,0l-0.101-0.101l-0.102-0.101l-0.101-0.101
	l-0.101-0.101l-0.101-0.101l-0.101-0.101l-0.102-0.101l-0.101-0.101l-0.101-0.101l-0.101-0.101l-0.102-0.101l-0.806,0.101
	l-0.101-0.101l-0.102-0.101l-0.101-0.101l-0.403-0.202l-0.402-0.202l-0.403-0.201l-0.504-0.101l-0.403-0.101l-0.403-0.101h-0.403
	h-0.403h-0.402h-0.303l-0.303,0.101l-0.302,0.101l-2.117,1.209l-4.736,2.721c0,0-0.102,0-0.102,0.101
	c1.311-0.504,2.822-0.302,4.536,0.604c1.512,0.907,2.821,2.218,4.031,3.83c1.411-5.846,5.846-8.063,11.188-5.04
	c5.946,3.427,10.886,12.498,11.49,20.864c2.419,1.814,4.435,5.342,5.241,8.869c0.302,0.101,0.604,0.202,1.008,0.403
	c2.419,1.411,4.334,5.14,4.334,8.466c0,1.713-0.504,2.923-1.311,3.528l0,0l6.854-3.931l0.102-0.101l0.101-0.101l0.101-0.101
	l0.101-0.202l0.101-0.202l0.101-0.201l0.102-0.202l0.101-0.202l0.101-0.202l0.101-0.202l0.101-0.202v-0.302l0.101-0.302v-0.302
	v-0.303v-0.302L522.594,282.614z M375.945,288.359L375.945,288.359l0.101,0.202l0.101,0.101l0.101,0.101l0.101,0.101l0.102,0.101
	l0.101,0.101l0.101,0.101l0.101,0.101l10.482,6.047l0.101,0.101l0.101,0.101h0.102l0.101,0.101h0.101l0.101,0.101h0.102h0.101h0.101
	h0.101h0.101h0.102h0.101h0.101h0.101h0.101h0.102h0.101h0.201h0.101h0.102h0.101h0.101h0.101l0.202-0.101h0.101l0.101-0.101
	l0.101-0.101l0.102-0.101l0.101-0.101l0.101-0.101l0.101-0.101l3.226-1.915l-18.646-10.785v5.846v0.101v0.101v0.101L375.945,288.359
	L375.945,288.359z M388.947,306.703l-0.303,0.201l-0.303,0.101l-0.302,0.101l-0.303,0.102l-0.303,0.1l-0.302,0.102l-0.303,0.101
	l-0.302,0.101l-0.303,0.102l-0.303,0.1l-0.302,0.102l-0.303,0.101h-0.302l-0.303,0.101h-0.303h-0.201c-0.101,0-0.202,0-0.403,0
	h-0.101h-0.303H383h-0.201c-0.101,0-0.303,0-0.403,0h-0.101h-0.303h-0.303l-0.302-0.101l-0.303-0.101l-0.302-0.102l-0.303-0.1
	h-0.101c-0.101,0-0.101,0-0.202-0.102l-0.201-0.101l-0.201-0.101l-0.202-0.102l-0.201-0.1L355.585,293.6l-0.201-0.101l-0.201-0.101
	l-0.202-0.202l-0.201-0.101l-0.101-0.101l-0.102-0.101l-0.101-0.101l-0.101-0.202l-0.101-0.202l0,0l0,0l-0.102-0.201l-0.101-0.202
	v-0.101v-0.101l-0.101-0.202v-0.202v-0.101l-0.201,6.753v0.202v0.202v0.202v0.201l0.101,0.202l0.101,0.202l0.101,0.202l0.101,0.202
	l0.102,0.202l0.101,0.202l0.201,0.101l0.202,0.202l0.201,0.101l0.202,0.101l0.201,0.101l23.786,13.506l0.202,0.101l0.201,0.102
	l0.202,0.1l0.201,0.102l0.303,0.101l0.302,0.101l0.303,0.102l0.302,0.1l0.303,0.102l0.303,0.101h0.302h0.303h0.302H383h0.303h0.302
	h0.303h0.303h0.302l0.303-0.101l0.302-0.102l0.303-0.1l0.303-0.102l0.302-0.101l0.303-0.101l0.302-0.102l0.303-0.1l0.303-0.102
	l0.302-0.101l0.303-0.101l0.303-0.201l0.302-0.102l20.863-12.095l-5.946-3.427L388.947,306.703z"></path>
<path id="color_x5F_8" fill="#e08573" d="M578.129,303.981v17.638L281.304,493.466L46.968,357.198v-13.405l234.336,135.058
	L578.129,303.981z M160.659,398.824c24.189,13.909,63.094,14.01,87.082,0.201c10.482-6.047,16.328-13.707,17.537-21.67
	c-4.334,4.436-9.272,8.164-14.715,11.188c-0.504,0.303-1.008,0.605-1.512,0.908c-14.816,8.566-38.401,8.869-54.124,1.108
	c-17.235-7.761-30.237-23.182-34.873-41.827C136.368,362.54,136.67,384.915,160.659,398.824z M248.749,290.576
	c0.605,0.302,1.109,0.706,1.613,1.008c4.132,2.722,7.055,5.846,8.668,9.071c3.628-7.358,0.806-15.623-8.668-21.771
	c-0.504-0.303-1.109-0.706-1.613-1.008c-0.605-0.403-1.209-0.706-1.915-1.008c-0.504-0.202-1.008-0.504-1.512-0.706l-10.18,5.947
	l-1.613,3.023c4.737,1.008,9.272,2.419,13.304,4.536C247.539,289.871,248.144,290.274,248.749,290.576z M192.307,290.476
	c1.915-1.109,4.031-2.117,6.35-2.923v-12.7c-2.217,0.806-4.334,1.814-6.35,2.923c-10.583,6.047-13.909,14.715-10.079,22.577
	C184.042,296.624,187.368,293.297,192.307,290.476z"></path>
<path id="color_x5F_7" fill="#fdd4c5" d="M320.107,222.846c0.303-3.326,1.411-5.947,2.923-8.265v24.794
	c-0.403-0.504-0.806-1.108-1.209-1.713c0-0.101-0.202-0.504-0.605-1.209c-0.302-0.706-0.604-1.411-0.806-2.217
	c-0.706-2.923-0.504-6.652-0.303-10.684V222.846z M245.322,360.726c-0.605-0.403-1.512,0.202-1.512,0.202s1.209-2.621,0.504-4.133
	c-0.605-1.512-1.613-1.209-1.713-2.016c0-0.201,0.101-0.504,0.302-0.807c0.202-0.402,0.604-0.906,0.706-1.411
	c0.101-0.403,0.202-1.008,0.202-1.612c0-1.109-0.101-2.419-0.807-3.83c-1.713-3.427-3.628-1.512-4.132-0.604
	c-0.504,1.008-0.504,3.829-0.504,3.829s-2.318-0.504-3.326,1.21l0,0c-0.907,1.714,1.311,5.544,3.125,5.846
	c0,0-1.108-0.201-1.31,0.403c-0.202,0.605,1.008,3.527,0.806,4.535c0,0-1.814-2.418-3.931-1.914s-1.209,3.124-1.209,3.124
	s-0.403,0-0.403,0.504c-0.101,0.504,0.101,1.21,1.008,1.714c0.907,0.504,1.008-0.403,1.915,0.604
	c0.907,1.008,0.907,1.512,0.807,2.722c0,0.504,0.201,1.108,0.504,1.713c0.504,1.008,1.31,2.016,2.016,1.915
	c-1.008-1.612-1.915-3.024-1.411-5.14c0.504-3.428-1.612-4.738-3.527-5.04c2.318,0.101,3.931,1.512,4.031,3.931
	c0.303-0.604,0.807-1.108,1.311-1.713c0.101-0.102,0.202-0.202,0.302-0.404c1.109-1.209,2.217-2.62,2.419-4.232
	c0.202-1.311-0.504-2.318-1.209-3.326c-0.302-0.403-0.604-0.807-0.806-1.209c-1.814-0.706-2.722-1.916-2.419-3.83
	c0.504,1.512,0.504,2.418,2.116,3.225c-0.201-0.504-0.201-1.209,0.101-1.814c0.302-0.806,0.706-1.31,1.008-1.713
	c1.411-1.915,0.907-3.023,0.403-4.637c1.008,2.016,1.31,2.924-0.101,4.939c-0.302,0.402-0.706,0.906-1.008,1.612
	c-0.504,1.21,0.202,2.218,0.907,3.326c0.706,1.008,1.512,2.116,1.31,3.527c-0.202,1.21-0.706,2.218-1.512,3.124
	c1.814-0.906,2.721-0.806,4.435-0.504c-2.116,0.202-4.031,0.102-5.644,1.814l-0.101,0.102c-0.706,0.806-1.411,1.612-1.714,2.318
	c-0.101,0.201-0.201,0.402-0.201,0.604c0,0.202-0.101,0.404-0.101,0.404c-0.202,1.512,0.605,3.225,1.109,4.736
	c0-0.101-0.202-0.705-0.101-1.209c0.101-0.605,0.504-1.311,0.706-1.714c0.101-0.202,0.101-0.302,0.101-0.302
	c0.202-0.303,0.403-0.706,0.604-1.008c0.907-1.109,2.52-1.512,2.822-2.218c0.302-0.807,0.202-1.009,0.202-1.009
	s1.612,0.404,2.822-1.107C246.33,362.742,245.926,361.129,245.322,360.726z M316.882,188.779L316.882,188.779
	c-5.24-3.024-7.458,0.302-9.474-1.713c-1.613-1.613-0.907-5.342-2.318-8.668c-0.705-1.512-1.613-3.326-3.023-5.241
	c-2.318-3.125-5.846-6.551-10.986-8.97c-12.599-6.047-14.01,3.83-13.405,7.761c0.706,3.931,7.357,12.196,7.357,12.196
	s-8.164,4.132-6.955,11.188c0.706,3.931,5.645,7.458,10.986,9.272c4.233,1.512,8.668,1.814,11.389,0.403
	c0,0-3.628,1.814-2.822,4.132c0.807,2.318,10.684,7.761,12.8,11.188c0,0-10.885-2.923-15.622,3.527
	c-4.838,6.451,3.628,11.792,3.628,11.792s-1.109,0.706-0.101,2.419s3.024,3.125,6.552,2.621c3.628-0.504,2.016-3.326,6.954-2.52
	c4.938,0.706,5.846,2.318,8.467,5.846c0.604,0.806,1.612,1.612,2.721,2.419v-4.536c-1.209-1.311-2.318-2.923-3.226-4.838
	c-6.248-11.087-15.42-10.079-21.77-6.451c6.955-5.04,14.715-4.636,20.561,2.117c-0.303-2.419-0.201-5.241-0.101-8.164
	c0-0.605,0-1.209,0.101-1.814c0.303-6.148,0.504-12.7-2.62-17.941c-2.419-4.031-6.854-5.342-10.986-6.652
	c-1.814-0.504-3.628-1.109-5.241-1.814c-6.854,2.016-12.195,0.706-15.723-5.442c4.938,3.326,7.055,5.543,13.708,4.334
	c-1.814-1.209-3.326-2.923-4.032-5.543c-0.907-3.024-1.008-5.342-1.109-7.458c-0.504-8.87-4.233-10.684-9.474-14.211
	c7.458,3.628,10.482,5.241,10.986,14.111c0.101,1.915,0.202,4.132,1.008,7.055c1.411,4.737,5.746,6.047,10.281,7.357
	c4.435,1.31,9.172,2.721,11.993,7.257c2.218,3.729,2.923,8.063,3.024,12.397c0.907-2.016,1.813-3.527,2.721-4.838v-14.614
	C321.72,193.919,319.604,190.392,316.882,188.779z"></path>
<path id="color_x5F_6" fill="#e08573" d="M247.337,275.055l-2.016,1.108c0.504,0.202,1.008,0.403,1.512,0.706
	c0.605,0.303,1.31,0.706,1.915,1.008c0.605,0.302,1.109,0.705,1.613,1.008c9.373,6.148,12.296,14.413,8.668,21.771l0,0
	c0,0.101-0.101,0.202-0.202,0.302c-0.101,0.202-0.202,0.504-0.403,0.706c-0.101,0.202-0.202,0.302-0.302,0.504
	c-0.202,0.403-0.504,0.806-0.807,1.108c-0.101,0.102-0.101,0.202-0.201,0.202c-0.202,0.302-0.504,0.604-0.807,0.907
	c-0.101,0.101-0.202,0.201-0.302,0.302c-0.302,0.303-0.604,0.604-0.907,0.907c-0.101,0.102-0.202,0.201-0.202,0.201
	c-0.403,0.404-0.806,0.807-1.209,1.109l-0.101,0.101c-0.403,0.302-0.806,0.706-1.209,1.008c-0.101,0.101-0.302,0.202-0.403,0.303
	c-0.302,0.302-0.706,0.504-1.108,0.705c-0.202,0.101-0.302,0.202-0.504,0.303c-0.504,0.302-1.008,0.706-1.613,1.008
	c-15.521,8.97-40.82,8.869-56.442-0.101c-0.605-0.403-1.209-0.706-1.814-1.109l-0.101-0.101c-4.032-2.62-6.854-5.745-8.366-8.869
	l0,0l0,0c-3.83-7.761-0.504-16.429,10.079-22.577c1.915-1.108,4.031-2.116,6.35-2.923v-1.108
	c-29.531,7.66-40.518,31.648-40.518,59.97c0,5.241,0.605,10.28,1.915,15.22c4.636,18.646,17.739,33.965,34.874,41.827
	c15.723,7.761,39.409,7.458,54.124-1.108c0.504-0.303,1.008-0.605,1.512-0.908c5.442-3.023,10.381-6.752,14.715-11.188
	c11.087-11.288,17.84-26.709,17.84-43.742C283.219,306.803,273.442,283.924,247.337,275.055z M213.17,332.202
	c2.52-1.31,4.636-2.923,4.636-2.923c-2.318,4.133-7.357,13.506-9.877,18.344c0,0-1.209-0.303-1.209-1.008
	S210.65,333.513,213.17,332.202z M210.247,352.058l0.403-0.907c0.403-0.201,0.907-0.402,1.411-0.604l0,0
	c-2.217,1.008-3.931,1.612-3.931,1.612s-0.605,5.04-3.225,6.652c-1.915,1.209-2.52,2.318-2.722,2.822
	c0,0.201-0.101,0.303-0.101,0.303s0-0.102,0.101-0.303c0-0.303-0.101-1.008-0.907-2.52c-1.311-2.419,0.504-2.621,0.504-2.621
	s-2.217,0.102-4.032-0.402c-1.209-0.303-3.225-0.102-4.334,0.1c-0.504,0.102-0.806,0.202-0.806,0.202s0.706-1.915,2.52-3.023
	c1.814-1.008,11.188-2.722,11.188-2.722s10.784-20.359,12.498-23.08c1.713-2.722,6.854-6.048,6.854-6.048
	c3.124,1.512,3.527,5.241,2.62,9.374c0.605,1.31,1.008,2.62,0.907,3.326c-0.202,1.713-0.907,1.914-1.512,2.115
	c-0.302,0-0.706,0-1.109-0.201c-1.008,2.419-2.217,4.637-3.427,6.451c-1.613,2.418-4.435,4.434-7.055,6.047
	c0.806-0.504,1.613-0.907,2.318-1.512c0,0-0.706,1.713-2.218,3.225C214.883,351.453,212.868,352.562,210.247,352.058z
	 M248.849,375.441v3.83v0.201l-0.101,0.201l-0.101,0.102l-0.101,0.101l-0.101,0.101l-0.202,0.101l-0.202,0.101l-0.202,0.102
	l-0.302,0.101l-0.302,0.101l-0.303,0.101l-0.302,0.101l-0.403,0.202l-0.403,0.101l-0.403,0.102l-0.403,0.201l-0.403,0.201
	l-0.403,0.102l-0.403,0.201l-0.403,0.101l-0.403,0.202l-0.403,0.201l-0.403,0.101l-0.403,0.202l-0.403,0.101l-0.403,0.201
	L240.584,383l-0.403,0.202l-0.303,0.101l-0.302,0.102l-0.302,0.1l-0.302,0.102l-0.202,0.101l-0.202,0.101l-0.202,0.102l-0.202,0.1
	l-0.201,0.102l-0.202,0.101l-0.202,0.101l-0.202,0.102l-0.202,0.1l-0.202,0.102l-0.101,0.402l-0.202,0.102h-0.302l-0.202,0.101
	h-0.302h-0.303h-0.201h-0.303h-0.302h-0.302h-0.202h-0.302h-0.202l-0.302-0.101l-0.202-0.102l-0.202-0.101l-0.202-0.101
	l-0.202-0.102l-0.202-0.1l-0.201-0.102l-0.202-0.101l-0.202-0.101l-0.202-0.102l-0.202-0.1l-0.604-0.102l-0.302-0.201l-0.303-0.201
	l-0.202-0.303L229.8,383l-0.202-0.201l-0.101-0.303l-0.101-0.303l-0.101-0.302v-0.202v-3.83v0.202
	c-0.201-0.706,0.101-1.31,0.807-1.813c2.621-1.814,3.023-1.715,4.435-3.73c0.403-0.504,0.907-1.008,1.512-1.512
	c-0.302-0.604-0.504-1.209-0.504-1.713c0.101-1.209,0.101-1.613-0.806-2.722c-0.907-1.008-1.008-0.101-1.915-0.604
	s-1.008-1.109-1.008-1.713c0.101-0.504,0.403-0.504,0.403-0.504s-0.907-2.521,1.209-3.125c2.116-0.504,3.931,1.915,3.931,1.915
	c0.101-1.008-1.008-3.931-0.807-4.536c0.202-0.604,1.311-0.402,1.311-0.402c-1.814-0.303-4.032-4.133-3.125-5.846l0,0
	c1.008-1.613,3.326-1.21,3.326-1.21s0-2.923,0.504-3.83s2.52-2.821,4.132,0.604c0.706,1.412,0.806,2.722,0.806,3.83
	c0,0.605-0.101,1.21-0.202,1.613c-0.101,0.504-0.504,1.008-0.705,1.41c-0.202,0.303-0.303,0.605-0.303,0.807
	c0.101,0.807,1.109,0.504,1.713,2.016c0.605,1.512-0.504,4.133-0.504,4.133s0.907-0.605,1.512-0.201
	c0.604,0.402,1.008,2.016-0.101,3.527c-1.209,1.512-2.822,1.108-2.822,1.108s0.101,0.202-0.201,1.008
	c-0.303,0.706-1.915,1.108-2.822,2.218c-0.202,0.303-0.403,0.604-0.605,1.008c0,0-0.101,0.101-0.101,0.303
	c2.016,0.1,3.83,1.914,6.35,1.914c2.923,0,4.132,2.722,3.729,3.83L248.849,375.441z"></path>
<path id="color_x5F_5" fill="#fdd4c5" d="M390.66,243.003l-18.545-10.684l-37.191-21.468v27.415l36.184,21.065l4.938,9.474
	l4.031-4.334l1.411,0.806l9.172,5.342V243.003z M353.872,237.057c-0.504,1.713-1.814,2.116-3.023,1.008
	c-0.102-0.101-0.102-0.101-0.102-0.101c-0.101-0.101-0.101-0.101-0.101-0.201c-1.209-1.311-1.813-3.629-1.31-5.342
	s1.915-2.116,3.225-0.806C353.569,232.824,354.275,235.344,353.872,237.057z M363.648,242.701c-0.403,1.713-1.814,2.117-3.023,1.008
	c-0.101-0.101-0.101-0.101-0.101-0.101c-0.102-0.101-0.102-0.101-0.202-0.101c-1.209-1.31-1.814-3.628-1.31-5.342
	c0.504-1.713,1.915-2.117,3.225-0.806C363.447,238.569,364.152,240.988,363.648,242.701z M373.526,248.446
	c-0.403,1.713-1.814,2.116-3.024,1.008c0-0.101-0.101-0.101-0.101-0.101c-0.101-0.101-0.101-0.101-0.101-0.101
	c-1.21-1.31-1.814-3.628-1.311-5.342c0.403-1.713,1.915-2.117,3.125-0.806C373.324,244.314,373.929,246.733,373.526,248.446z
	 M225.668,321.418c0,0-5.141,3.326-6.854,6.047c-1.713,2.722-12.498,23.081-12.498,23.081l-0.201,1.008l0.504-0.101l-0.303,1.209
	l1.209-0.705v0.705l0.605-0.402c0,0,1.613-0.504,3.931-1.613c0.202-0.101,0.403-0.201,0.605-0.303
	c0.202-0.1,0.302-0.201,0.504-0.201c0.101,0,0.101-0.101,0.202-0.101c0.302-0.101,0.604-0.302,0.907-0.403c0,0,0.101,0,0.101-0.101
	c0.302-0.101,0.504-0.302,0.806-0.403c0.101,0,0.101-0.101,0.202-0.101c0.202-0.101,0.504-0.302,0.706-0.403
	c2.721-1.612,5.442-3.629,7.055-6.047c1.209-1.814,2.419-4.032,3.427-6.451c0.706-1.713,1.311-3.527,1.713-5.24
	C229.195,326.559,228.792,322.93,225.668,321.418z M222.241,326.256c0.202-0.303,0.504-0.504,0.907-0.605c0.101,0,0.202,0,0.302,0
	c0.202,0,0.403,0.102,0.605,0.202c0.604,0.403,0.806,1.108,0.504,1.814c-0.403,0.604-1.109,0.806-1.814,0.504
	C222.14,327.667,221.938,326.86,222.241,326.256z M224.055,339.862c-1.008,1.411-1.814,1.21-2.419,1.008
	c-0.605-0.202-1.613-1.612-1.613-1.612c2.016-1.512,3.125-6.955,3.125-6.955l2.117,0.102
	C225.265,332.404,225.164,338.451,224.055,339.862z M248.849,375.643l-0.101,0.101c-0.101,0.202-0.302,0.303-0.706,0.504
	c-0.403,0.202-1.008,0.505-1.713,0.807c-0.101,0.101-0.302,0.101-0.504,0.202c-0.202,0.1-0.302,0.1-0.504,0.201
	c-0.101,0-0.202,0.101-0.403,0.101c-0.604,0.202-1.108,0.403-1.713,0.706c-0.101,0-0.202,0.1-0.202,0.1
	c-0.604,0.202-1.209,0.404-1.713,0.706c-0.101,0-0.101,0-0.202,0.101c-0.201,0.102-0.504,0.202-0.706,0.303
	c-0.201,0.101-0.302,0.101-0.504,0.201c-0.201,0.102-0.403,0.202-0.504,0.303c-0.202,0.101-0.403,0.201-0.604,0.303
	c-1.109,0.807-2.923,1.108-4.636,0.906c-0.202,0-0.303,0-0.504-0.1c-0.101,0-0.201,0-0.302-0.102l0,0
	c-0.504-0.101-1.008-0.201-1.411-0.403c-0.101,0-0.201-0.101-0.302-0.101c-0.202-0.101-0.403-0.201-0.604-0.303
	c-0.202-0.101-0.403-0.302-0.605-0.402c0,0-0.101,0-0.101-0.102c-0.101-0.101-0.202-0.201-0.403-0.302
	c-0.101-0.101-0.202-0.202-0.302-0.303c-0.101-0.101-0.101-0.202-0.202-0.302c-0.202-0.303-0.302-0.504-0.302-0.807
	c-0.202-0.705,0.101-1.311,0.806-1.814c2.621-1.814,3.024-1.713,4.435-3.729c0.403-0.504,0.907-1.008,1.512-1.512
	c0.504,1.008,1.31,2.016,2.016,1.914c0,0,0,0,0,0.102c0,0,0,0,0-0.102c0-0.101-0.202-0.705-0.101-1.209
	c0.101-0.605,0.504-1.311,0.705-1.714c2.016,0.101,3.83,1.915,6.35,1.915C247.942,371.813,249.152,374.635,248.849,375.643z
	 M205.51,257.315v41.828l13.909-8.063l2.116-1.209l6.047,6.652l5.947-11.389l1.613-3.024l10.18-5.947l2.016-1.108l42.937-24.996
	v-41.626l-56.442,32.555L205.51,257.315z M247.237,252.276l13.304-14.313c0.604-0.604,1.612-0.705,2.217-0.101
	s0.706,1.613,0.101,2.217l-10.986,11.792l9.776-0.806c0.907-0.101,1.613,0.504,1.613,1.411c0.101,0.907-0.504,1.613-1.411,1.714
	l-13.203,1.108l-13.405,14.413c-0.604,0.604-1.612,0.706-2.217,0.101c-0.604-0.604-0.706-1.613-0.101-2.217l11.087-11.893
	l-9.777,0.806c-0.907,0.101-1.613-0.504-1.713-1.411c-0.101-0.907,0.504-1.612,1.411-1.713L247.237,252.276z"></path>
<path id="color_x5F_4" fill="#0f1014" d="M513.019,266.084l0.202,0.202l0.201,0.201l0.201,0.202l0.202,0.202l0.201,0.202
	l0.202,0.202l0.201,0.302l0.202,0.202l0.201,0.302l0.201,0.302l0.202,0.303l0.201,0.302l0.202,0.302l0.201,0.302l0.101,0.303
	l0.202,0.302l0.101,0.302l0.101,0.302l0.101,0.302l0.102,0.303l0.101,0.302l0.101,0.302l0.101,0.302l0.101,0.303l0.101,0.302
	l0.102,0.302l0.101,0.302l0.101,0.302h0.101h0.101h0.101h0.102h0.101h0.101h0.101h0.101h0.102h0.101h0.101h0.101h0.101h0.102h0.101
	l0.101,0.101l0.201,0.101l0.202,0.101l0.201,0.202l0.202,0.202l0.201,0.201l0.201,0.202l0.202,0.202l0.201,0.202l0.202,0.202
	l0.201,0.202l0.202,0.202l0.201,0.201l0.201,0.303l0.202,0.302l0.201,0.302l0.202,0.302l0.101,0.302l0.101,0.303l0.101,0.302
	l0.102,0.302l0.101,0.302l0.101,0.303l0.101,0.302l0.101,0.302l0.101,0.302l0.102,0.303l0.101,0.302v0.302l0.101,0.302v0.302v0.303
	v0.302v0.302v0.302v0.303l-0.101,0.302v0.302l-0.101,0.202l-0.102,0.202l-0.101,0.202l-0.101,0.201l-0.101,0.202l-0.101,0.202
	l-0.101,0.202l-0.102,0.202l-0.101,0.101l-0.101,0.101l-0.101,0.101l-6.854,3.931l0,0c-0.605,0.403-1.311,0.605-2.117,0.303
	c-0.302-0.101-0.604-0.202-0.907-0.403l-7.055-4.032l-10.684-6.148l-15.119-8.769c-4.435-2.52-7.962-9.475-7.962-15.522
	c0-0.403,0-0.806,0.101-1.209c0-0.101,0-0.202,0-0.403c0-0.303,0.101-0.504,0.101-0.807c0-0.101,0-0.201,0.102-0.302
	c0.101-0.302,0.101-0.504,0.201-0.706c0-0.101,0.101-0.202,0.101-0.302c0.202-0.605,0.504-1.209,0.807-1.613
	c0-0.101,0.101-0.101,0.101-0.202c0.101-0.201,0.303-0.302,0.403-0.403c0.101-0.101,0.101-0.101,0.201-0.202
	c0.102-0.101,0.303-0.202,0.403-0.302c0.101-0.101,0.101-0.101,0.202-0.101c0.201-0.101,0.402-0.202,0.604-0.302
	c0,0,0.101,0,0.101-0.101l4.737-2.722l-20.158-11.691v85.873c0,1.512-0.806,2.722-1.915,3.427l-2.923,1.814
	c0.101,0,0.101-0.102,0.101-0.102c-1.209,0.908-2.821,1.109-4.232,0.202l-40.114-23.182l-20.864,12.095l-0.302,0.101l-0.303,0.202
	l-0.302,0.101l-0.303,0.101l-0.303,0.101l-1.007,0.101l-0.303,0.102l-0.303,0.101l-0.302,0.101l-0.303,0.102l-0.303,0.1
	l-0.302,0.102l-0.303,0.101h-0.302h-0.303h-0.303h-0.302h-0.303h-0.302h-0.303h-0.303h-0.302l-0.303-0.101l-0.302-0.102l-0.303-0.1
	l-0.303-0.102l-0.302-0.101l-0.303-0.101l-0.201-0.102l-0.202-0.101l-0.201-0.101l-0.202-0.101l-23.786-13.506l-0.201-0.101
	l-0.202-0.101l-0.201-0.101l-0.202-0.201l-0.201-0.101l-0.101-0.202l-0.101-0.202l-0.102-0.201l-0.101-0.202l-0.101-0.202
	l-0.101-0.202v-0.202v-0.202v-0.101v-0.202v-0.101l0.201-6.753v-0.202v-0.202l0.101-0.202v-0.202l0.102-0.201l0.101-0.202
	l0.101-0.202l0.101-0.101c0,0,0,0,0-0.101l0.101-0.202l0.202-0.202l0.101-0.202l0.201-0.201c0.102-0.101,0.202-0.202,0.303-0.303
	l0.101-0.101l0.202-0.202l0.201-0.202l0.202-0.202l0.302-0.201l14.816-8.567l-44.348-25.601c-2.419-1.411-3.931-4.031-3.931-6.753
	v-0.604c-1.108-0.706-2.016-1.512-2.722-2.419c-2.62-3.528-3.527-5.04-8.466-5.846c-4.938-0.807-3.427,2.016-6.954,2.52
	c-3.629,0.504-5.544-0.907-6.552-2.621s0.101-2.419,0.101-2.419s-8.365-5.342-3.628-11.792c4.737-6.45,15.623-3.527,15.623-3.527
	c-2.116-3.326-11.994-8.87-12.8-11.188c-0.806-2.318,2.822-4.133,2.822-4.133c-2.62,1.411-7.156,1.008-11.389-0.403l-2.52,1.512
	l3.729,2.217v41.626l-42.936,24.996c26.104,8.869,35.881,31.749,35.881,58.559c0,17.033-6.854,32.454-17.839,43.743
	c-1.21,7.962-7.056,15.622-17.538,21.669c-23.887,13.809-62.893,13.708-87.082-0.201c-23.988-13.909-24.291-36.284-0.706-50.093
	c-1.209-4.838-1.915-9.979-1.915-15.219c0-28.322,10.885-52.31,40.518-59.97v-16.933L46.968,343.793l234.336,135.058
	l296.825-174.869L513.019,266.084z M115.404,367.479c-1.814,0-3.628-1.008-3.628-2.318v-0.101c0-0.504,0.303-1.108,1.008-1.512
	c1.411-0.806,3.527-0.806,5.039-0.101c0.101,0,0.101,0.101,0.202,0.101c0.101,0,0.101,0.101,0.202,0.101
	c0.605,0.403,0.907,0.907,0.907,1.512C118.932,366.571,117.218,367.479,115.404,367.479z M137.578,333.412L137.578,333.412
	c0-0.807,0.504-1.512,1.411-2.016c1.814-1.008,4.737-1.109,6.652-0.102c0.101,0.102,0.202,0.102,0.202,0.102
	c0.101,0,0.101,0.1,0.202,0.1c0.907,0.504,1.311,1.21,1.209,1.916c-0.101,1.814-2.419,3.023-4.737,3.023
	C140.098,336.536,137.679,335.227,137.578,333.412z M233.025,431.984c-4.938,0-9.877-2.722-10.079-6.351c0-0.101,0-0.101,0-0.101
	c0-1.512,1.008-2.923,2.923-4.031c3.729-2.117,9.676-2.218,13.607-0.202c0.101,0.102,0.302,0.202,0.504,0.202
	c0.101,0.101,0.302,0.201,0.403,0.201c1.713,1.109,2.621,2.621,2.52,4.032C242.701,429.363,237.863,431.984,233.025,431.984z
	 M393.986,319.402c0-0.706,0.403-1.311,1.311-1.814c1.713-1.008,4.435-1.008,6.249-0.102c0.101,0,0.201,0.102,0.201,0.102
	c0.101,0.101,0.101,0.101,0.201,0.101c0.807,0.504,1.21,1.21,1.21,1.814l0,0c-0.101,1.612-2.318,2.923-4.535,2.923
	C396.305,322.324,393.986,321.115,393.986,319.402L393.986,319.402z M328.574,298.639l62.893,36.285v0.504l-27.012,17.336
	l-62.893-36.285v-2.317L328.574,298.639z M304.283,355.787c-0.101,1.209-1.713,2.117-3.326,2.117c-1.612,0-3.326-0.908-3.326-2.117
	l0,0c0-0.504,0.302-1.008,1.008-1.311c1.209-0.705,3.226-0.705,4.536-0.101c0.101,0,0.101,0.101,0.202,0.101
	c0.101,0,0.101,0.102,0.101,0.102C303.981,354.88,304.283,355.384,304.283,355.787z M295.112,259.432c0-1.31,0.806-2.52,2.52-3.527
	c3.226-1.814,8.366-1.915,11.692-0.202c0.101,0.101,0.302,0.101,0.403,0.202c0.101,0.101,0.201,0.101,0.402,0.201
	c1.513,1.008,2.218,2.218,2.218,3.427c-0.101,3.125-4.334,5.442-8.466,5.442c-4.233,0-8.467-2.318-8.668-5.543
	C295.112,259.533,295.112,259.432,295.112,259.432z M288.157,295.716c0-0.706,0.403-1.31,1.31-1.814
	c1.714-1.008,4.435-1.008,6.249-0.101c0.101,0.101,0.101,0.101,0.202,0.101c0.101,0.101,0.101,0.101,0.202,0.101
	c0.806,0.504,1.209,1.209,1.209,1.814c-0.101,1.612-2.318,2.923-4.536,2.923C290.476,298.639,288.258,297.43,288.157,295.716
	L288.157,295.716z M274.349,449.723c-3.628,0-7.257-1.915-7.458-4.636c0-0.102,0-0.102,0-0.102c0-1.108,0.706-2.217,2.117-3.023
	c2.721-1.612,7.156-1.612,10.079-0.201c0.101,0.101,0.201,0.101,0.302,0.201c0.101,0.101,0.202,0.101,0.302,0.202
	c1.31,0.906,1.915,1.915,1.915,2.923C281.505,447.808,277.877,449.723,274.349,449.723z M307.912,417.772
	c-1.915,3.427-4.334,6.148-6.753,7.963c-1.008,5.14-7.862,9.172-16.227,9.172c-8.97,0-16.328-4.637-16.328-10.482l-4.233-25.802
	c-0.303-0.907-0.504-1.814-0.504-2.822c0-7.459,9.474-13.506,21.065-13.506c11.691,0,21.065,6.047,21.065,13.506
	c0,0.806-0.101,1.612-0.403,2.419h0.403l0.504,0.101l0.403,0.101l0.403,0.101l0.402,0.202l1.814,1.813
	C312.75,402.956,312.044,410.516,307.912,417.772z M362.842,382.094c-2.217,0-4.535-1.21-4.636-2.924c0,0,0,0,0-0.101
	c0-0.706,0.403-1.31,1.311-1.813c1.713-1.009,4.435-1.009,6.249-0.102c0.101,0,0.101,0.102,0.201,0.102
	c0.101,0.1,0.101,0.1,0.201,0.1c0.807,0.504,1.21,1.21,1.21,1.814C367.277,380.884,365.06,382.094,362.842,382.094z M404.973,351.05
	c0,0.202-0.102,0.302-0.202,0.403l-13.707,7.861c-0.303,0.102-0.604,0.102-0.907,0l-9.071-5.24c-0.302-0.202-0.302-0.605,0-0.706
	c2.923-1.714,5.645-6.753,8.668-8.466c1.612-0.908,3.427,0,5.04-0.908c0.302-0.101,0.604-0.101,0.906,0l9.071,5.242
	c0.202,0.1,0.202,0.201,0.202,0.402V351.05z M445.591,343.188c-3.326,0-6.652-1.814-6.753-4.334v-0.101
	c0-1.008,0.705-2.016,1.915-2.722c2.52-1.411,6.551-1.512,9.172-0.101c0.101,0.101,0.201,0.101,0.302,0.201
	c0.101,0.102,0.202,0.102,0.303,0.201c1.209,0.706,1.713,1.714,1.713,2.723C452.142,341.475,448.917,343.188,445.591,343.188z
	 M471.09,312.347c-2.419,0-4.736-1.31-4.838-3.124v-0.102c0-0.705,0.403-1.41,1.411-1.914c1.814-1.008,4.737-1.109,6.652-0.102
	c0.101,0.102,0.202,0.102,0.202,0.102c0.101,0,0.101,0.1,0.201,0.1c0.907,0.504,1.209,1.21,1.209,1.916
	C475.827,311.037,473.408,312.347,471.09,312.347z M316.882,188.779l6.148-3.528v11.692
	C321.72,193.919,319.604,190.392,316.882,188.779z M423.215,257.517l3.427-3.83l1.311,0.706l8.063,4.637V234.84l-16.328-9.475
	l-32.655-18.747v24.088l31.748,18.445L423.215,257.517z M403.562,229.699c-0.403,1.512-1.512,1.814-2.621,0.807l-0.101-0.101
	c-0.101-0.101-0.101-0.101-0.101-0.101c-1.008-1.209-1.612-3.226-1.21-4.636c0.403-1.512,1.613-1.814,2.722-0.706
	C403.359,225.97,403.965,228.087,403.562,229.699z M412.229,234.638c-0.403,1.512-1.512,1.814-2.621,0.907
	c0-0.101-0.101-0.101-0.101-0.101c-0.101,0-0.101-0.101-0.101-0.101c-1.008-1.21-1.512-3.226-1.21-4.637
	c0.403-1.512,1.613-1.814,2.722-0.706C412.027,231.01,412.632,233.126,412.229,234.638z M418.075,240.484l-0.101-0.101
	c-1.009-1.209-1.513-3.225-1.21-4.636c0.403-1.512,1.612-1.814,2.822-0.706c1.108,1.109,1.713,3.326,1.311,4.838
	c-0.403,1.512-1.613,1.814-2.621,0.807C418.176,240.484,418.075,240.484,418.075,240.484z"></path>
<path id="color_x5F_3" fill="#fdd4c5" d="M447.304,227.583l-116.009-67.025v85.671l116.009,67.428V227.583z M341.878,179.103
	c6.35,3.628,12.699,7.357,18.948,10.986v4.233c-6.35-3.628-12.699-7.257-18.948-10.986V179.103z M341.878,185.654
	c6.35,3.628,12.699,7.357,18.948,10.986v4.233c-6.35-3.729-12.699-7.358-18.948-10.986V185.654z M341.878,192.206
	c6.35,3.628,12.699,7.257,18.948,10.986v4.233c-6.35-3.628-12.699-7.257-18.948-10.986V192.206z M395.195,267.898l-4.535,2.621
	l-9.172-5.342l-0.807,0.907l-4.636,2.621l-4.938-9.475l-36.184-21.065v-27.415l4.636-2.621l37.091,21.468l18.545,10.684V267.898z
	 M435.915,298.035c-10.785-6.249-21.368-12.397-32.152-18.545v-7.156c10.684,6.148,21.469,12.397,32.152,18.545V298.035z
	 M435.915,286.948c-10.785-6.249-21.368-12.397-32.152-18.646v-7.156c10.684,6.148,21.469,12.397,32.152,18.545V286.948z
	 M435.915,275.962c-10.785-6.249-21.368-12.296-32.152-18.545v-7.156c10.684,6.148,21.469,12.397,32.152,18.545V275.962z
	 M439.946,256.812l-4.031,2.318l-8.063-4.636l-0.705,0.806l-4.032,2.318l-4.435-8.366l-31.647-18.545v-24.088l4.031-2.318
	l32.555,18.848l16.328,9.474V256.812z M206.719,346.615c0-0.705,4.032-13.103,6.451-14.413c2.52-1.31,4.636-2.923,4.636-2.923
	c-2.318,4.133-7.357,13.506-9.877,18.344C207.929,347.522,206.719,347.32,206.719,346.615z M222.241,326.256
	c0.202-0.303,0.504-0.504,0.907-0.605c-0.202,0-0.302,0.202-0.403,0.303c-0.201,0.303-0.101,0.807,0.202,1.008
	c0.303,0.201,0.706,0.102,0.907-0.303c0.202-0.302,0.101-0.705-0.202-0.906c-0.101,0-0.101-0.102-0.202-0.102
	c0.202,0,0.403,0.102,0.605,0.202c0.604,0.403,0.806,1.108,0.504,1.814c-0.403,0.604-1.109,0.806-1.814,0.504
	C222.14,327.667,221.938,326.86,222.241,326.256z M207.525,352.562l0.605-0.403c0,0-0.605,5.04-3.225,6.652
	c-1.915,1.209-2.52,2.318-2.722,2.822c0-0.303-0.101-1.008-0.907-2.52c-1.311-2.419,0.504-2.621,0.504-2.621
	s-2.217,0.102-4.032-0.402c-1.209-0.303-3.225-0.102-4.334,0.1c-0.504,0.102-0.806,0.202-0.806,0.202s0.706-1.915,2.52-3.023
	c1.814-1.008,11.188-2.722,11.188-2.722l-0.202,1.008l0.504-0.101l-0.302,1.21l1.209-0.706V352.562L207.525,352.562z
	 M248.849,375.643l0.101-0.201v3.83v0.201l-0.101,0.201l-0.101,0.102l-0.101,0.101l-0.101,0.101l-0.202,0.101l-0.202,0.101
	l-0.201,0.102l-0.303,0.101l-0.302,0.101l-0.302,0.101l-0.302,0.101l-0.403,0.202l-0.403,0.101l-0.403,0.102l-0.403,0.201
	l-0.403,0.201l-0.403,0.102l-0.403,0.201l-0.403,0.101l-0.403,0.202l-0.403,0.201l-0.403,0.101l-0.403,0.202l-0.403,0.101
	l-0.403,0.201L240.686,383l-0.403,0.202l-0.302,0.101l-0.302,0.102l-0.303,0.1l-0.302,0.102l-0.202,0.101l-0.202,0.101l-0.201,0.102
	l-0.202,0.1l-0.202,0.102l-0.202,0.101l-0.202,0.101l-0.202,0.102l-0.201,0.1l-0.202,0.102l-0.202,0.402l-0.202,0.102h-0.302
	l-0.202,0.101h-0.302h-0.303h-0.201h-0.303h-0.302h-0.302h-0.202h-0.302h-0.202l-0.302-0.101l-0.202-0.102l-0.202-0.101
	l-0.202-0.101l-0.202-0.102l-0.202-0.1l-0.201-0.102l-0.202-0.101l-0.202-0.101l-0.202-0.102l-0.202-0.1l-0.604-0.102l-0.302-0.201
	l-0.303-0.201l-0.202-0.303L229.8,383l-0.202-0.201l-0.101-0.303l-0.101-0.303l-0.101-0.302v-0.202v-3.83v0.202
	c0.101,0.302,0.202,0.504,0.303,0.806l0.101,0.102l0.101,0.101c0.101,0.101,0.201,0.202,0.302,0.302l0.101,0.102l0.303,0.201
	c0,0,0.101,0,0.101,0.102l0.202,0.201l0.403,0.201l0.202,0.102l0.202,0.101l0.202,0.101c0.101,0,0.202,0.102,0.302,0.102l0.202,0.1
	l0.202,0.102l0.202,0.101l0.202,0.101l0.201,0.102h0.202l0,0h0.302h0.101c0.202,0,0.302,0,0.504,0.1h0.202h0.302h0.302h0.303h0.201
	h0.303h0.302h0.202l0.302-0.1h0.202l0.202-0.102l0.201-0.101l0.202-0.101l0.202-0.102l0.202-0.1l0.202-0.102l0.202-0.101
	l0.201-0.101l0.202-0.102c0.202-0.101,0.403-0.201,0.605-0.302h0.101l0.302-0.101l0.202-0.102c0.101-0.101,0.303-0.101,0.504-0.201
	l0,0l0.403-0.101l0.302-0.101c0.101,0,0.101,0,0.202-0.102l0.202-0.101l0.403-0.202l0.403-0.1l0.403-0.202l0.302-0.101
	c0.101,0,0.202-0.102,0.202-0.102l0.302-0.1l0.403-0.202l0.403-0.101l0.403-0.201l0.202-0.102c0.101,0,0.202-0.101,0.403-0.101
	l0.202-0.101l0.201-0.102c0.202-0.101,0.303-0.101,0.504-0.201h0.101l0.403-0.101l0.302-0.101l0.302-0.102l0.302-0.101l0.303-0.101
	l0.101-0.102c0.302-0.201,0.604-0.402,0.706-0.504L248.849,375.643L248.849,375.643z M229.296,334.017
	c-0.202,1.714-0.907,1.915-1.512,2.116c-0.302,0-0.706,0-1.108-0.201c0.706-1.713,1.31-3.527,1.713-5.241
	C228.893,332,229.296,333.311,229.296,334.017z M216.093,348.43c0.806-0.504,1.613-0.907,2.318-1.512c0,0-0.706,1.713-2.218,3.225
	c-1.31,1.311-3.326,2.419-6.047,1.915l0.403-0.907c0.403-0.201,0.907-0.402,1.411-0.604c0.202-0.101,0.403-0.202,0.604-0.302
	c0.202-0.102,0.303-0.202,0.504-0.202c0.101,0,0.101-0.101,0.202-0.101c0.303-0.102,0.605-0.303,0.907-0.403
	c0,0,0.101,0,0.101-0.101c0.303-0.102,0.504-0.303,0.807-0.403c0.101,0,0.101-0.101,0.202-0.101
	C215.589,348.732,215.891,348.53,216.093,348.43z M223.148,332.303l2.117,0.102c0,0-0.101,6.047-1.209,7.458
	c-1.008,1.411-1.814,1.21-2.419,1.008c-0.605-0.202-1.613-1.612-1.613-1.612C222.04,337.746,223.148,332.303,223.148,332.303z"></path>
<path id="color_x5F_2" fill="#e08573" d="M427.952,254.494l-0.705,0.806l-4.032,2.318l3.427-3.83L427.952,254.494z M343.39,313.254
	l4.938,2.822l2.924-1.714l-4.939-2.821L343.39,313.254z M329.884,320.007l-4.938-2.923l-2.923,1.713l4.938,2.822L329.884,320.007z
	 M337.443,309.827l4.938,2.923l2.923-1.713l-4.938-2.822L337.443,309.827z M335.831,323.333l-4.939-2.822l-2.923,1.612l4.939,2.822
	L335.831,323.333z M341.677,326.76l-4.938-2.822l-2.924,1.613l4.939,2.922L341.677,326.76z M320.007,313.152l4.938,2.924
	l2.923-1.714l-4.938-2.821L320.007,313.152z M327.667,308.719l4.938,2.922l2.923-1.713l-4.938-2.822L327.667,308.719z
	 M333.613,312.145l4.938,2.822l2.923-1.713l-4.938-2.822L333.613,312.145z M323.837,310.936l4.938,2.822l2.923-1.613l-4.938-2.922
	L323.837,310.936z M347.623,330.187l-4.938-2.822l-2.923,1.714l4.938,2.822L347.623,330.187z M316.177,315.371l4.938,2.821
	l2.923-1.612l-4.938-2.923L316.177,315.371z M369.091,338.148l-4.938-2.922l-2.923,1.713l4.938,2.822L369.091,338.148z
	 M373.022,335.932l-4.939-2.822l-1.813-1.008l-4.133-2.419l-2.923,1.612l4.938,2.924l1.008,0.504l4.939,2.821L373.022,335.932z
	 M376.852,333.714l-4.938-2.821l-2.923,1.612l4.938,2.821L376.852,333.714z M380.682,331.496l-4.938-2.922l-2.923,1.713l4.938,2.822
	L380.682,331.496z M366.975,326.86l4.938,2.923l2.923-1.713l-4.938-2.822L366.975,326.86z M361.028,323.534l4.938,2.923l2.923-1.713
	l-4.938-2.822L361.028,323.534z M359.415,337.04l-4.938-2.821l-2.923,1.611l4.938,2.822L359.415,337.04z M355.183,320.107
	l4.938,2.822l2.923-1.613l-4.938-2.821L355.183,320.107z M349.235,316.681l4.939,2.822l2.923-1.612l-4.939-2.924L349.235,316.681z
	 M353.469,333.613l-4.938-2.923l-2.923,1.714l4.938,2.822L353.469,333.613z M365.262,340.366l-4.939-2.822l-2.923,1.612l4.938,2.924
	L365.262,340.366z M146.044,331.598c-0.101,0-0.101-0.102-0.202-0.102c-0.101-0.1-0.101-0.1-0.202-0.1
	c-1.915-1.008-4.838-0.908-6.652,0.1c-0.907,0.504-1.411,1.311-1.411,2.017c0,0,0,0,0,0.101c0.101,1.814,2.52,3.125,4.939,3.125
	c2.318,0,4.737-1.311,4.737-3.024C147.354,332.807,146.951,332.102,146.044,331.598z M355.283,325.752l-4.938-2.923l-2.923,1.714
	l4.938,2.821L355.283,325.752z M250.361,291.584c-0.504-0.302-1.109-0.706-1.613-1.008c-0.605-0.302-1.209-0.706-1.915-1.008
	c-4.032-2.016-8.466-3.528-13.304-4.536l-5.947,11.389l-6.047-6.652l-2.116,1.209l-13.909,8.063v-41.828l28.221-16.328
	l56.442-32.555l-3.729-2.217l-3.225-1.814l-56.442,32.555l-28.221,16.328v3.427v16.933v1.108v12.7
	c-2.217,0.806-4.334,1.814-6.35,2.923c-4.938,2.822-8.265,6.249-10.079,9.776l0,0l0,0c1.613,3.225,4.435,6.249,8.366,8.87
	l0.101,0.101c0.605,0.403,1.109,0.706,1.814,1.108c15.623,9.071,40.92,9.071,56.442,0.102c0.504-0.303,1.109-0.605,1.613-1.008
	c0.202-0.102,0.302-0.202,0.504-0.303c0.403-0.201,0.706-0.504,1.109-0.705c0.101-0.102,0.302-0.202,0.403-0.303
	c0.403-0.303,0.807-0.605,1.209-1.008l0.101-0.102c0.403-0.402,0.806-0.705,1.209-1.107c0.101-0.102,0.202-0.202,0.202-0.202
	c0.302-0.303,0.604-0.604,0.907-0.907c0.101-0.101,0.202-0.201,0.303-0.303c0.302-0.302,0.504-0.604,0.806-0.906
	c0.101-0.102,0.101-0.202,0.202-0.202c0.302-0.403,0.504-0.806,0.806-1.108c0.101-0.201,0.202-0.303,0.302-0.504
	c0.101-0.201,0.303-0.504,0.403-0.706c0.101-0.101,0.101-0.201,0.202-0.302l0,0C257.417,297.43,254.594,294.306,250.361,291.584z
	 M240.383,363.346c0.706-0.906,1.311-1.914,1.512-3.124c0.202-1.411-0.605-2.52-1.311-3.527c-0.706-1.108-1.411-2.116-0.907-3.326
	c0.302-0.706,0.705-1.21,1.008-1.612c1.411-2.016,1.008-2.822,0.101-4.939c0.504,1.613,1.008,2.722-0.403,4.637
	c-0.302,0.403-0.705,1.008-1.008,1.713c-0.302,0.706-0.202,1.311-0.101,1.814c-1.613-0.906-1.713-1.713-2.117-3.225
	c-0.302,1.914,0.605,3.124,2.419,3.83c0.202,0.402,0.504,0.806,0.806,1.209c0.706,1.008,1.411,2.016,1.209,3.326
	c-0.201,1.612-1.31,3.023-2.419,4.232c-0.101,0.102-0.201,0.202-0.302,0.404c-0.504,0.604-1.008,1.209-1.31,1.713
	c-0.101-2.419-1.613-3.83-4.032-3.931c1.915,0.302,4.032,1.714,3.528,5.04c-0.504,2.115,0.403,3.527,1.411,5.14c0,0,0,0,0,0.101
	c0,0,0,0,0-0.101c-0.504-1.512-1.31-3.124-1.108-4.737c0,0,0.101-0.101,0.101-0.402c0.101-0.202,0.101-0.404,0.202-0.605
	c0.403-0.705,1.008-1.512,1.713-2.318l0.101-0.101c1.612-1.612,3.527-1.612,5.644-1.813
	C243.003,362.54,242.197,362.338,240.383,363.346z M371.006,330.287l-4.938-2.923l-2.923,1.714l4.938,2.822L371.006,330.287z
	 M341.576,321.115l4.938,2.822l2.923-1.713l-4.938-2.822L341.576,321.115z M339.459,315.471l4.938,2.822l2.923-1.612l-4.938-2.923
	L339.459,315.471z M118.125,363.75c-0.101,0-0.101-0.102-0.202-0.102c-0.101,0-0.101-0.101-0.202-0.101
	c-1.411-0.706-3.628-0.706-5.04,0.101c-0.706,0.403-1.008,0.907-1.008,1.512c0,0,0,0,0,0.102c0.101,1.31,1.915,2.318,3.628,2.318
	c1.814,0,3.528-1.009,3.628-2.318C119.032,364.656,118.73,364.152,118.125,363.75z M331.497,306.501l4.938,2.822l2.923-1.612
	l-4.938-2.822L331.497,306.501z M240.383,421.703c-0.101-0.101-0.302-0.201-0.403-0.201c-0.202-0.101-0.302-0.202-0.504-0.202
	c-3.931-2.016-9.877-1.915-13.607,0.202c-1.915,1.108-2.923,2.62-2.923,4.031v0.101c0.202,3.729,5.141,6.351,10.079,6.351
	s9.776-2.621,9.877-6.351C242.903,424.324,242.097,422.813,240.383,421.703z M193.818,232.219l15.118-8.769
	c4.435-2.52,7.962-9.474,7.962-15.521c0-0.403,0-0.806-0.101-1.209c0-0.101,0-0.202,0-0.302c0-0.302-0.101-0.605-0.101-0.907
	c0-0.101,0-0.202-0.101-0.302c-0.101-0.302-0.202-0.605-0.202-0.907V204.2c-0.202-0.706-0.504-1.209-0.907-1.713l0,0
	c-0.201-0.202-0.302-0.403-0.504-0.605l-0.101-0.101c-0.202-0.202-0.403-0.302-0.504-0.403l-0.101-0.101
	c-0.201-0.101-0.504-0.303-0.706-0.303c-1.31-0.403-2.822-0.202-4.435,0.706c-1.512,0.907-2.822,2.217-4.032,3.83
	c-1.411-5.846-5.846-8.063-11.188-5.04c-5.946,3.427-10.885,12.498-11.49,20.864c-2.419,1.814-4.435,5.342-5.241,8.869
	c-0.302,0.101-0.605,0.202-1.008,0.403c-2.419,1.411-4.334,5.14-4.334,8.466s1.915,4.838,4.334,3.427l7.055-4.032L193.818,232.219z
	 M223.954,326.559c0.202-0.303,0.101-0.706-0.201-0.908c-0.101,0-0.101-0.1-0.202-0.1c-0.101,0-0.202,0-0.302,0
	c-0.202,0-0.303,0.201-0.403,0.302c-0.202,0.302-0.101,0.806,0.202,1.008C223.35,327.063,223.753,326.961,223.954,326.559z
	 M357.198,325.752l4.938,2.822l2.923-1.714l-4.938-2.822L357.198,325.752z M356.291,326.256l-2.923,1.612l4.938,2.822l2.923-1.612
	L356.291,326.256z M363.245,334.822l-4.938-2.922l-2.923,1.713l4.938,2.822L363.245,334.822z M351.353,322.324l4.938,2.924
	l2.923-1.714l-4.938-2.821L351.353,322.324z M345.405,318.898l4.939,2.822l2.923-1.613l-4.939-2.822L345.405,318.898z
	 M357.299,331.396l-4.938-2.822l-2.923,1.612l4.938,2.923L357.299,331.396z M335.629,317.688l4.938,2.923l2.923-1.713l-4.938-2.822
	L335.629,317.688z M325.853,316.58l4.938,2.822l2.923-1.714l-4.938-2.822L325.853,316.58z M329.783,314.362l4.938,2.822l2.923-1.612
	l-4.938-2.822L329.783,314.362z M345.507,324.543l-4.939-2.822l-2.923,1.612l4.939,2.821L345.507,324.543z M351.453,327.969
	l-4.938-2.822l-2.923,1.613l4.938,2.923L351.453,327.969z M339.661,321.115l-4.939-2.923l-2.923,1.714l4.939,2.822L339.661,321.115z
	 M367.176,340.366l4.939,2.822l2.923-1.612l-4.938-2.822L367.176,340.366z M349.135,232.32c-0.403,1.713,0.202,4.032,1.311,5.342
	c0,0.101,0.101,0.101,0.101,0.202c0.101,0.101,0.101,0.101,0.101,0.101c1.21,1.109,2.621,0.706,3.024-1.008
	c0.402-1.713-0.202-4.132-1.513-5.442C351.05,230.304,349.639,230.606,349.135,232.32z M359.013,238.065
	c-0.403,1.713,0.101,4.032,1.31,5.342c0.102,0,0.102,0.101,0.202,0.101c0,0.101,0.101,0.101,0.101,0.101
	c1.209,1.108,2.62,0.706,3.023-1.008c0.504-1.714-0.201-4.133-1.512-5.443C360.826,235.948,359.415,236.352,359.013,238.065z
	 M325.651,303.074l4.938,2.822l2.923-1.613l-4.938-2.922L325.651,303.074z M376.146,268.806l4.637-2.621l0.806-0.907l-1.411-0.806
	L376.146,268.806z M360.826,203.192c-6.35-3.628-12.699-7.358-18.948-10.986v4.233c6.35,3.729,12.699,7.357,18.948,10.986V203.192z
	 M360.826,190.089c-6.35-3.628-12.699-7.357-18.948-10.986v4.233c6.35,3.629,12.699,7.257,18.948,10.986V190.089z M360.826,196.641
	c-6.35-3.629-12.699-7.358-18.948-10.986v4.233c6.35,3.628,12.699,7.257,18.948,10.986V196.641z M401.948,317.588
	c-0.101,0-0.101-0.102-0.201-0.102s-0.101-0.1-0.202-0.1c-1.813-0.908-4.535-0.908-6.248,0.1c-0.907,0.504-1.311,1.21-1.311,1.814
	c0,0,0,0,0,0.102c0.101,1.713,2.318,2.922,4.636,2.922c2.218,0,4.436-1.209,4.536-2.922l0,0
	C403.058,318.797,402.755,318.092,401.948,317.588z M378.767,333.714l4.939,2.822l2.923-1.612L381.689,332L378.767,333.714z
	 M374.938,335.932l4.938,2.923l2.923-1.714l-4.938-2.822L374.938,335.932z M339.56,208.13l-4.636,2.621l37.191,21.468l18.545,10.684
	v27.616l4.535-2.621v-27.616l-18.545-10.684L339.56,208.13z M450.529,336.234c-0.101-0.102-0.202-0.102-0.303-0.202
	s-0.201-0.101-0.302-0.202c-2.621-1.31-6.652-1.31-9.172,0.102c-1.311,0.807-1.915,1.814-1.915,2.721v0.102
	c0.101,2.52,3.427,4.334,6.753,4.334s6.551-1.814,6.651-4.233C452.242,337.947,451.738,337.04,450.529,336.234z M399.529,225.567
	c-0.402,1.512,0.102,3.528,1.21,4.636c0.101,0,0.101,0.101,0.101,0.101l0.101,0.101c1.109,1.008,2.218,0.605,2.621-0.806
	c0.403-1.512-0.202-3.628-1.311-4.838C401.143,223.753,399.933,224.055,399.529,225.567z M391.063,204.3l-4.031,2.318l32.655,18.848
	l16.328,9.474v24.189l4.031-2.318v-24.189l-16.328-9.474L391.063,204.3z M418.176,240.584c1.108,1.008,2.218,0.605,2.62-0.806
	c0.403-1.512-0.201-3.628-1.31-4.838c-1.109-1.109-2.419-0.807-2.822,0.706c-0.403,1.512,0.101,3.527,1.209,4.636
	c0.102,0.101,0.102,0.101,0.102,0.101C418.075,240.484,418.176,240.484,418.176,240.584z M511.507,278.481
	c-0.303-0.202-0.705-0.302-1.008-0.403c-0.807-3.527-2.822-7.055-5.241-8.869c-0.604-8.366-5.543-17.437-11.49-20.864
	c-5.241-3.023-9.776-0.806-11.188,5.04c-1.209-1.612-2.52-2.923-4.031-3.83c-1.714-1.008-3.326-1.108-4.536-0.604
	c-0.201,0.101-0.402,0.202-0.604,0.302c-0.101,0-0.101,0.101-0.201,0.101c-0.101,0.101-0.303,0.201-0.403,0.302
	c-0.101,0.101-0.101,0.101-0.202,0.202c-0.101,0.101-0.302,0.302-0.402,0.403c0,0.101-0.102,0.101-0.102,0.202
	c-0.302,0.504-0.604,1.008-0.806,1.613c0,0.101-0.101,0.202-0.101,0.302c-0.102,0.202-0.102,0.504-0.202,0.706
	c0,0.101-0.101,0.202-0.101,0.302c0,0.303-0.101,0.504-0.101,0.807c0,0.101,0,0.201,0,0.403c0,0.403-0.101,0.807-0.101,1.209
	c0,6.047,3.527,12.901,7.962,15.521l15.118,8.769l10.684,6.148l7.056,4.032c0.303,0.202,0.604,0.302,0.907,0.403
	c0.806,0.202,1.512,0.101,2.116-0.302c0.807-0.604,1.311-1.814,1.311-3.527C515.841,283.622,513.825,279.792,511.507,278.481z
	 M474.618,307.307c-0.102,0-0.102-0.1-0.202-0.1c-0.101-0.102-0.201-0.102-0.201-0.102c-1.915-1.008-4.737-0.906-6.652,0.102
	c-0.907,0.504-1.411,1.31-1.411,1.914v0.102c0.101,1.814,2.52,3.124,4.838,3.124c2.419,0,4.737-1.31,4.737-3.023
	C475.827,308.517,475.525,307.811,474.618,307.307z M455.568,227.381v94.037c0,0.201,0,0.402,0,0.504c0,0.101,0,0.101,0,0.201
	c0,0.102,0,0.202-0.101,0.303c0,0.101-0.101,0.201-0.101,0.201c0,0.102-0.101,0.202-0.101,0.202c0,0.101-0.102,0.201-0.102,0.201
	c0,0.101-0.101,0.101-0.101,0.202c0,0.101-0.101,0.101-0.101,0.201c0,0.102-0.101,0.102-0.101,0.201
	c0,0.102-0.101,0.102-0.202,0.202c-0.101,0.101-0.101,0.101-0.201,0.202l-0.101,0.1c-0.102,0.102-0.202,0.102-0.202,0.202
	c0,0-0.101,0-0.101,0.101c-1.209,0.907-2.822,1.109-4.233,0.201l-40.114-23.182l-5.946-3.426l-14.715,8.466
	c-1.411,0.807-3.125,1.311-4.838,1.411c-0.102,0-0.202,0-0.403,0c-0.303,0-0.604,0-1.008,0c-0.102,0-0.303,0-0.403,0
	c-0.706-0.101-1.311-0.201-1.915-0.403c-0.101,0-0.101,0-0.201-0.101c-0.303-0.101-0.706-0.303-0.907-0.403l-23.787-13.606
	c-0.302-0.202-0.604-0.403-0.906-0.604l-0.102-0.101c-0.101-0.101-0.201-0.302-0.302-0.403l0,0
	c-0.102-0.101-0.102-0.201-0.102-0.302v-0.101c-0.201-0.706-0.101-1.411,0.403-2.117c0,0,0,0,0-0.101
	c0.202-0.202,0.303-0.504,0.605-0.706c0.101-0.101,0.201-0.202,0.302-0.303c0.303-0.302,0.706-0.504,1.109-0.806l14.815-8.567
	l-44.348-25.601c-2.419-1.411-3.931-4.032-3.931-6.753v-0.605v-4.535c-1.209-1.311-2.317-2.923-3.225-4.838
	c-6.249-11.087-15.421-10.079-21.771-6.451c6.955-5.04,14.715-4.636,20.561,2.117c-0.302-2.419-0.201-5.241-0.101-8.164
	c0-0.605,0-1.209,0.101-1.814c0.303-6.148,0.504-12.699-2.62-17.94c-2.419-4.032-6.854-5.342-10.986-6.652
	c-1.814-0.504-3.629-1.109-5.241-1.814c-6.854,2.016-12.195,0.706-15.723-5.442c4.939,3.326,7.055,5.543,13.708,4.334
	c-1.814-1.21-3.326-2.923-4.032-5.543c-0.907-3.024-1.008-5.342-1.108-7.458c-0.504-8.87-4.233-10.684-9.475-14.211
	c7.458,3.628,10.482,5.241,10.986,14.11c0.101,1.915,0.202,4.132,1.008,7.055c1.411,4.737,5.745,6.048,10.281,7.358
	c4.435,1.31,9.172,2.721,11.994,7.257c2.217,3.729,2.923,8.063,3.023,12.397c0.907-2.016,1.814-3.527,2.722-4.838v-14.614v-11.692
	v-32.152c0-1.612,0.906-2.822,2.116-3.527c0.504-0.303,1.008-0.403,1.612-0.403c0,0,0,0,0.101,0c0.102,0,0.202,0,0.403,0
	c0.101,0,0.101,0,0.202,0c0.101,0,0.201,0,0.302,0c0.102,0,0.202,0,0.202,0c0.101,0,0.101,0,0.201,0.101
	c0.101,0,0.202,0.101,0.303,0.101c0.201,0.101,0.302,0.101,0.504,0.202l122.862,70.956
	C454.157,222.039,455.568,224.559,455.568,227.381z M323.03,214.581c-1.512,2.318-2.52,5.039-2.923,8.265v0.604
	c-0.201,4.032-0.403,7.761,0.303,10.684c0.201,0.806,0.403,1.512,0.806,2.217c0.403,0.706,0.605,1.209,0.605,1.209
	c0.302,0.604,0.705,1.209,1.209,1.713V214.581z M394.49,292.895l-18.646-10.785v5.846v0.101v0.101v0.101v0.101v0.101v0.101
	l0.102,0.101l0.101,0.101l0.101,0.101l0.101,0.101l0.101,0.101l0.102,0.101l0.101,0.101l0.101,0.101l10.482,6.047l0.101,0.101
	l0.101,0.101h0.101l0.102,0.101h0.101l0.101,0.101h0.101h0.102h0.101h0.101h0.101h0.101h0.102h0.101h0.101h0.101h0.101h0.102h0.201
	h0.101h0.101h0.102h0.101h0.101l0.202-0.101h0.101l0.101-0.101l0.101-0.101l0.101-0.101l0.102-0.101l0.101-0.101l0.101-0.101
	L394.49,292.895z M447.304,313.657v-86.074l-116.009-67.025v85.671L447.304,313.657z M403.763,268.402
	c10.784,6.249,21.367,12.397,32.152,18.646v-7.156c-10.684-6.148-21.469-12.397-32.152-18.545V268.402z M403.763,279.389
	c10.784,6.249,21.367,12.397,32.152,18.545v-7.156c-10.684-6.148-21.469-12.397-32.152-18.545V279.389z M403.763,257.315
	c10.784,6.249,21.367,12.397,32.152,18.545v-7.156c-10.684-6.148-21.469-12.397-32.152-18.545V257.315z M409.508,235.545
	c1.108,1.008,2.218,0.605,2.62-0.907c0.403-1.512-0.201-3.628-1.31-4.737c-1.109-1.109-2.318-0.806-2.722,0.706
	s0.101,3.528,1.21,4.636c0.101,0,0.101,0.101,0.101,0.101C409.407,235.444,409.508,235.444,409.508,235.545z M368.789,243.81
	c-0.504,1.713,0.101,4.031,1.311,5.342c0.101,0,0.101,0.101,0.101,0.101c0.101,0.101,0.101,0.101,0.101,0.101
	c1.209,1.108,2.62,0.705,3.023-1.008c0.504-1.713-0.201-4.132-1.512-5.442C370.704,241.693,369.293,242.097,368.789,243.81z
	 M310.028,256.207c-0.101-0.101-0.201-0.202-0.403-0.202c-0.101-0.101-0.201-0.202-0.402-0.202
	c-3.326-1.713-8.467-1.612-11.692,0.202c-1.613,0.907-2.52,2.217-2.52,3.528v0.101c0.202,3.225,4.435,5.543,8.668,5.543
	c4.233,0,8.365-2.217,8.467-5.443C312.246,258.424,311.54,257.114,310.028,256.207z M301.563,403.965
	c-0.201,0.201-0.403,0.302-0.605,0.504c-0.201,0.101-0.402,0.302-0.604,0.402c-0.201,0.202-0.504,0.303-0.705,0.504
	c-0.202,0.102-0.403,0.303-0.706,0.403c-0.403,0.202-0.807,0.403-1.209,0.706c-0.303,0.101-0.605,0.302-0.907,0.403
	c-0.202,0.101-0.504,0.201-0.807,0.302c-0.302,0.101-0.604,0.202-0.907,0.303s-0.504,0.201-0.806,0.302
	c-0.303,0.102-0.605,0.202-0.907,0.303c-0.303,0.101-0.504,0.101-0.807,0.201h-0.101c-0.302,0.102-0.604,0.102-0.907,0.202
	c-0.302,0.101-0.504,0.101-0.806,0.201c-0.403,0.102-0.706,0.102-1.109,0.202c-0.302,0-0.504,0.101-0.806,0.101
	c-0.403,0.101-0.907,0.101-1.31,0.101c-0.202,0-0.403,0-0.706,0.101c-0.706,0-1.311,0.102-2.016,0.102s-1.31,0-2.016-0.102
	c-0.202,0-0.403,0-0.604-0.101c-0.403,0-0.907-0.101-1.311-0.101c-0.202,0-0.504-0.101-0.706-0.101
	c-0.403-0.101-0.806-0.101-1.209-0.202c-0.202,0-0.504-0.101-0.706-0.101c-0.403-0.101-0.806-0.201-1.108-0.302
	c-0.202-0.102-0.403-0.102-0.706-0.202c-0.403-0.101-0.807-0.201-1.109-0.303c-0.202-0.101-0.403-0.101-0.604-0.201
	c-0.403-0.101-0.807-0.303-1.209-0.504c-0.101-0.101-0.303-0.101-0.403-0.201c-0.504-0.202-1.008-0.505-1.512-0.706
	c-0.101,0-0.202-0.101-0.202-0.101c-0.403-0.202-0.807-0.403-1.109-0.706c-0.202-0.101-0.302-0.201-0.504-0.302
	c-0.302-0.202-0.504-0.403-0.806-0.604c-0.202-0.102-0.302-0.303-0.504-0.403c-0.202-0.202-0.403-0.403-0.605-0.504
	c-0.202-0.202-0.302-0.303-0.504-0.504c-0.202-0.202-0.403-0.403-0.504-0.504c-0.202-0.202-0.302-0.303-0.403-0.504
	c-0.101-0.202-0.302-0.403-0.403-0.605c-0.101-0.201-0.303-0.403-0.403-0.604s-0.202-0.403-0.302-0.504
	c-0.302-0.604-0.605-1.108-0.807-1.714l0,0c-0.302-0.906-0.504-1.813-0.504-2.821c0-7.459,9.475-13.506,21.065-13.506
	c11.691,0,21.064,6.047,21.064,13.506c0,0.806-0.101,1.612-0.403,2.419c0,0.101-0.1,0.302-0.1,0.402
	c-0.202,0.605-0.505,1.109-0.807,1.714l-0.102,0.101c-0.101,0.101-0.101,0.303-0.201,0.403c-0.101,0.201-0.303,0.403-0.403,0.604
	c-0.101,0.202-0.202,0.303-0.403,0.504c-0.201,0.202-0.303,0.403-0.504,0.605c-0.101,0.201-0.303,0.302-0.504,0.504
	c-0.201,0.201-0.402,0.402-0.604,0.504C301.965,403.662,301.764,403.863,301.563,403.965z M301.461,399.529
	c0.102-0.101,0.202-0.201,0.202-0.402c0.101-0.202,0.202-0.403,0.302-0.605c0.102-0.101,0.102-0.201,0.202-0.302
	c0.101-0.202,0.202-0.403,0.202-0.605c0-0.101,0.1-0.201,0.1-0.402c0.102-0.202,0.102-0.403,0.102-0.605v-0.101l0,0
	c0-0.201,0.101-0.504,0.101-0.705c0-5.645-7.962-10.18-17.739-10.18c-9.777,0-17.739,4.636-17.739,10.18
	c0,0.201,0,0.504,0.101,0.705l0,0v0.101c0,0.202,0.101,0.403,0.101,0.605c0,0.101,0.101,0.201,0.101,0.402
	c0.101,0.202,0.202,0.403,0.202,0.605c0,0.101,0.101,0.201,0.201,0.302c0.101,0.202,0.202,0.403,0.303,0.605
	c0.101,0.101,0.201,0.201,0.201,0.402c0.101,0.202,0.202,0.303,0.403,0.504c0.101,0.102,0.202,0.303,0.403,0.403
	c0.101,0.101,0.202,0.303,0.403,0.403c0.202,0.201,0.303,0.303,0.504,0.504c0.101,0.101,0.201,0.202,0.403,0.303
	c0.202,0.201,0.403,0.302,0.605,0.504c0.101,0.101,0.202,0.201,0.302,0.201c0.302,0.202,0.504,0.303,0.806,0.504
	c0.101,0.101,0.202,0.101,0.302,0.202c0.303,0.201,0.605,0.302,1.008,0.504c0.101,0,0.201,0.101,0.302,0.101
	c0.403,0.201,0.706,0.303,1.108,0.504c0.101,0,0.202,0.101,0.202,0.101c0.403,0.101,0.807,0.303,1.209,0.403
	c0.101,0,0.202,0.101,0.202,0.101c0.403,0.101,0.807,0.202,1.311,0.403c0.101,0,0.201,0,0.302,0.101
	c0.403,0.101,0.907,0.202,1.31,0.303c0.101,0,0.202,0,0.302,0.101c0.403,0.101,0.907,0.101,1.311,0.202c0.101,0,0.302,0,0.403,0.101
	c0.403,0,0.907,0.101,1.311,0.101c0.101,0,0.302,0,0.403,0c0.604,0,1.209,0.101,1.814,0.101c0.605,0,1.209,0,1.814-0.101
	c0.101,0,0.303,0,0.403,0c0.403,0,0.907-0.101,1.311-0.101c0.101,0,0.302,0,0.403-0.101c0.403-0.102,0.907-0.102,1.311-0.202
	c0.101,0,0.201,0,0.302-0.101c0.403-0.101,0.907-0.202,1.31-0.303c0.101,0,0.202,0,0.302-0.101c0.403-0.101,0.907-0.201,1.311-0.403
	c0.101,0,0.202-0.101,0.202-0.101c0.403-0.101,0.806-0.303,1.209-0.403c0.101,0,0.202-0.101,0.202-0.101
	c0.403-0.201,0.806-0.303,1.108-0.504c0.101,0,0.202-0.101,0.202-0.101c0.302-0.202,0.706-0.303,1.008-0.504
	c0.101-0.102,0.202-0.102,0.302-0.202c0.303-0.201,0.605-0.302,0.807-0.504c0.101-0.101,0.202-0.201,0.302-0.201
	c0.202-0.202,0.403-0.303,0.706-0.504c0.101-0.102,0.202-0.202,0.403-0.303c0.201-0.201,0.302-0.303,0.504-0.504
	c0.101-0.101,0.302-0.303,0.403-0.403s0.202-0.302,0.403-0.403C301.159,399.832,301.361,399.631,301.461,399.529z M303.275,354.376
	c-0.101,0-0.101-0.101-0.201-0.101c-1.311-0.705-3.326-0.605-4.536,0.101c-0.706,0.403-1.008,0.907-1.008,1.31l0,0
	c0.101,1.21,1.713,2.117,3.326,2.117s3.226-0.907,3.326-2.117C304.183,355.182,303.881,354.779,303.275,354.376
	C303.377,354.477,303.377,354.477,303.275,354.376z M262.758,237.863c-0.605-0.604-1.613-0.504-2.217,0.101l-13.304,14.313
	l-13.204,1.108c-0.907,0.101-1.512,0.807-1.411,1.713c0.101,0.907,0.807,1.512,1.713,1.411l9.777-0.806l-11.087,11.893
	c-0.605,0.605-0.504,1.613,0.101,2.217c0.605,0.605,1.613,0.504,2.218-0.101l13.405-14.413l13.204-1.108
	c0.907-0.101,1.512-0.807,1.411-1.714c-0.101-0.907-0.806-1.512-1.612-1.411l-9.777,0.806l10.986-11.792
	C263.363,239.476,263.363,238.468,262.758,237.863z M371.006,338.148l4.939,2.822l2.923-1.612l-4.939-2.923L371.006,338.148z
	 M289.468,293.801c-0.907,0.504-1.311,1.209-1.311,1.814v0.101c0.101,1.713,2.318,2.923,4.636,2.923
	c2.217,0,4.435-1.209,4.536-2.923c0-0.706-0.403-1.31-1.209-1.814c-0.101-0.101-0.101-0.101-0.202-0.101
	c-0.101,0-0.101-0.101-0.202-0.101C293.902,292.793,291.181,292.793,289.468,293.801z M306.4,314.161l4.938,2.821l2.923-1.611
	l-4.938-2.924L306.4,314.161z M321.821,305.291l4.938,2.924l2.923-1.714l-4.938-2.822L321.821,305.291z M317.891,307.509
	l4.938,2.822l2.923-1.714l-4.938-2.822L317.891,307.509z M314.061,309.727l4.938,2.822l2.923-1.613l-4.938-2.822L314.061,309.727z
	 M310.23,311.943l4.938,2.923l2.923-1.714l-4.938-2.821L310.23,311.943z M279.691,442.063c-0.101-0.101-0.202-0.101-0.302-0.201
	c-0.101-0.101-0.202-0.101-0.302-0.201c-2.923-1.513-7.257-1.411-10.079,0.201c-1.411,0.807-2.117,1.915-2.117,3.023v0.101
	c0.101,2.722,3.83,4.637,7.458,4.637s7.156-1.915,7.257-4.637C281.606,443.978,281.001,442.97,279.691,442.063z M350.546,336.334
	l-2.923,1.714l4.938,2.822l2.923-1.714L350.546,336.334z M309.625,400.437c-0.201-0.101-0.302-0.101-0.504-0.201
	c-0.504-0.101-1.008-0.202-1.512-0.202c-0.101,0-0.201,0-0.302,0c-0.202,0-0.403,0-0.605,0c-0.101,0-0.302,0-0.402,0.102
	c-0.303,0-0.604,0.101-0.907,0.201l-0.605,3.629c0.706-0.102,1.311-0.102,1.915,0c0.202,0,0.504,0.101,0.706,0.201
	c1.008,0.807,1.411,2.218,1.411,4.031c0,0.102,0,0.102,0,0.202c0,0.201,0,0.403,0,0.604c0,0.101,0,0.201,0,0.303
	c0,0.201,0,0.302-0.101,0.504c-0.102,0.504-0.202,1.008-0.303,1.512v0.101c-0.101,0.504-0.303,0.907-0.403,1.411
	c-0.101,0.303-0.201,0.504-0.302,0.807c-0.102,0.302-0.202,0.604-0.403,0.906c-0.102,0.102-0.102,0.202-0.202,0.403
	c-0.201,0.403-0.403,0.807-0.604,1.21c-0.101,0.201-0.201,0.403-0.303,0.604c-0.101,0.201-0.201,0.303-0.302,0.504
	c-0.201,0.303-0.403,0.706-0.605,1.008c-0.201,0.303-0.402,0.504-0.504,0.807c0,0,0,0-0.101,0.101
	c-0.403,0.504-0.806,1.008-1.209,1.411c-0.505,0.604-1.108,1.108-1.612,1.612l-0.404,2.419c0,0.403-0.1,0.907-0.1,1.311
	c2.418-1.814,4.736-4.535,6.752-7.962C312.044,410.516,312.75,402.956,309.625,400.437z M366.168,377.355
	c-0.101,0-0.101-0.1-0.201-0.1s-0.101-0.102-0.201-0.102c-1.814-0.907-4.536-0.907-6.249,0.102
	c-0.907,0.504-1.311,1.209-1.311,1.813c0,0,0,0,0,0.101c0.101,1.714,2.318,2.924,4.636,2.924c2.218,0,4.436-1.21,4.536-2.924
	C367.378,378.565,366.975,377.961,366.168,377.355z M359.517,344.801l4.938,2.822l2.923-1.613l-4.938-2.821L359.517,344.801z
	 M363.347,342.685l4.938,2.821l2.923-1.713l-4.938-2.822L363.347,342.685z M361.432,342.685l-4.939-2.923l-2.923,1.713l4.939,2.822
	L361.432,342.685z M321.115,319.301l-2.923,1.613l4.938,2.923l2.923-1.714L321.115,319.301z M315.169,315.975l-2.923,1.613
	l4.938,2.822l2.923-1.613L315.169,315.975z M344.7,333.009l-2.923,1.612l4.938,2.923l2.923-1.714L344.7,333.009z M340.971,330.791
	l-1.713-1.008l-0.403-0.201l-0.907-0.504l-5.946-3.428l-0.504-0.302l-3.83-2.218l-0.504-0.302l-2.923,1.714l4.938,2.821l0.907,0.504
	l4.938,2.822l1.008,0.504l4.938,2.822l2.923-1.612L340.971,330.791z"></path>
<path id="color_x5F_1_1_" fill="#e08573" d="M284.932,388.543c-9.273,0-16.933,3.528-17.638,7.963l0,0v0.101
	c0,0.202,0.101,0.403,0.101,0.605c0,0.101,0.101,0.201,0.101,0.402c0.101,0.202,0.202,0.403,0.202,0.605
	c0,0.101,0.101,0.201,0.201,0.302c0.101,0.202,0.202,0.403,0.303,0.605c0.101,0.101,0.201,0.201,0.201,0.402
	c0.101,0.202,0.202,0.303,0.403,0.504c0.101,0.102,0.202,0.303,0.403,0.403c0.101,0.101,0.202,0.303,0.403,0.403
	c0.202,0.201,0.303,0.303,0.504,0.504c0.101,0.101,0.201,0.202,0.403,0.303c0.202,0.201,0.403,0.302,0.605,0.504
	c0.101,0.101,0.201,0.201,0.302,0.201c0.302,0.202,0.504,0.303,0.806,0.504c0.101,0.101,0.202,0.101,0.302,0.202
	c0.303,0.201,0.605,0.302,1.008,0.504c0.101,0,0.201,0.101,0.302,0.101c0.403,0.201,0.706,0.303,1.108,0.504
	c0.101,0,0.202,0.101,0.202,0.101c0.403,0.101,0.807,0.303,1.209,0.403c0.101,0,0.202,0.101,0.202,0.101
	c0.403,0.101,0.806,0.202,1.311,0.403c0.101,0,0.201,0,0.302,0.101c0.403,0.101,0.907,0.202,1.31,0.303c0.101,0,0.202,0,0.302,0.101
	c0.403,0.101,0.907,0.101,1.311,0.202c0.101,0,0.302,0,0.403,0.101c0.403,0.101,0.907,0.101,1.311,0.101c0.101,0,0.302,0,0.403,0
	c0.604,0,1.209,0.101,1.814,0.101s1.209,0,1.814-0.101c0.101,0,0.303,0,0.403,0c0.403,0,0.907-0.101,1.311-0.101
	c0.101,0,0.302,0,0.403-0.101c0.403-0.102,0.907-0.102,1.311-0.202c0.101,0,0.201,0,0.302-0.101c0.403-0.101,0.907-0.202,1.31-0.303
	c0.101,0,0.202,0,0.302-0.101c0.403-0.101,0.907-0.201,1.311-0.403c0.101,0,0.202-0.101,0.202-0.101
	c0.403-0.101,0.806-0.303,1.209-0.403c0.101,0,0.202-0.101,0.202-0.101c0.403-0.201,0.806-0.303,1.108-0.504
	c0.101,0,0.202-0.101,0.202-0.101c0.302-0.202,0.706-0.303,1.008-0.504c0.101-0.102,0.202-0.102,0.302-0.202
	c0.303-0.201,0.605-0.302,0.807-0.504c0.101-0.101,0.202-0.201,0.302-0.201c0.202-0.202,0.403-0.303,0.706-0.504
	c0.101-0.102,0.202-0.202,0.403-0.303c0.202-0.201,0.303-0.303,0.504-0.504c0.101-0.101,0.302-0.303,0.403-0.403
	s0.202-0.302,0.403-0.403c0.101-0.201,0.201-0.302,0.403-0.504c0.101-0.101,0.201-0.201,0.201-0.402
	c0.101-0.202,0.202-0.403,0.303-0.605c0.101-0.101,0.101-0.201,0.201-0.302c0.101-0.202,0.202-0.403,0.202-0.605
	c0-0.101,0.101-0.201,0.101-0.402c0.101-0.202,0.101-0.403,0.101-0.605v-0.101l0,0C301.865,392.071,294.205,388.543,284.932,388.543
	z"></path>
</svg>